<?xml version="1.0" encoding="UTF-8" standalone="no"?>
<svg
   xmlns:dc="http://purl.org/dc/elements/1.1/"
   xmlns:cc="http://creativecommons.org/ns#"
   xmlns:rdf="http://www.w3.org/1999/02/22-rdf-syntax-ns#"
   xmlns:svg="http://www.w3.org/2000/svg"
   xmlns="http://www.w3.org/2000/svg"
   xmlns:sodipodi="http://sodipodi.sourceforge.net/DTD/sodipodi-0.dtd"
   xmlns:inkscape="http://www.inkscape.org/namespaces/inkscape"
   viewBox="0 0 1000 1000"
   version="1.1"
   id="svg10"
   sodipodi:docname="9mobile.svg"
   inkscape:version="0.92.3 (2405546, 2018-03-11)">
  <metadata
     id="metadata16">
    <rdf:RDF>
      <cc:Work
         rdf:about="">
        <dc:format>image/svg+xml</dc:format>
        <dc:type
           rdf:resource="http://purl.org/dc/dcmitype/StillImage" />
      </cc:Work>
    </rdf:RDF>
  </metadata>
  <defs
     id="defs14" />
  <sodipodi:namedview
     pagecolor="#ffffff"
     bordercolor="#666666"
     borderopacity="1"
     objecttolerance="10"
     gridtolerance="10"
     guidetolerance="10"
     inkscape:pageopacity="0"
     inkscape:pageshadow="2"
     inkscape:window-width="1366"
     inkscape:window-height="704"
     id="namedview12"
     showgrid="false"
     inkscape:zoom="0.6675088"
     inkscape:cx="300.11121"
     inkscape:cy="244.56287"
     inkscape:window-x="0"
     inkscape:window-y="27"
     inkscape:window-maximized="1"
     inkscape:current-layer="svg10" />
  <title
     id="title2">Nigeria-Logo</title>
  <path
     d="m 548,148.46 c -21.22,-5.24667 -37.55333,-7.87333 -49,-7.88 -85.39,0 -154.62,69 -154.62,154.09 0,85.09 69.26,154.1 154.62,154.1 85.36,0 154.63,-69 154.63,-154.1 0.006,-12.4315 -1.49155,-24.81811 -4.46,-36.89 L 772.1,224.67 c 20.13881,76.56174 6.81637,158.07395 -36.65,224.24 L 531.89,826.3 H 343.31 l 134,-247 c 0.73,-1.36 -1.42,-4.36 -3.22,-4.52 -143.19,-13 -255.35,-133 -255.35,-279.09 0,-154.79 125.9,-280.26 281.22,-280.26 28.43243,-0.03126 56.70588,4.240436 83.86,12.67 z"
     style="fill:#006e53;fill-rule:evenodd"
     id="path4"
     inkscape:connector-curvature="0"
     sodipodi:nodetypes="ccssccccccccsccc" />
  <circle
     cx="498.07"
     cy="294.67"
     r="84.75"
     style="fill:#d6e806"
     id="circle6" />
  <path
     d="M644.46,236.89a153.65,153.65,0,0,0-79-82.83M698.4,213.77A218.49,218.49,0,0,0,588.61,98.2m161.8,98.24A273.23,273.23,0,0,0,605.94,46.2"
     style="fill:none;stroke:#d6e806;stroke-linecap:round;stroke-width:19.2619642679972px"
     id="path8" />
</svg>
