<?xml version="1.0" encoding="UTF-8" standalone="no"?>
<svg
   xmlns:dc="http://purl.org/dc/elements/1.1/"
   xmlns:cc="http://creativecommons.org/ns#"
   xmlns:rdf="http://www.w3.org/1999/02/22-rdf-syntax-ns#"
   xmlns:svg="http://www.w3.org/2000/svg"
   xmlns="http://www.w3.org/2000/svg"
   xmlns:sodipodi="http://sodipodi.sourceforge.net/DTD/sodipodi-0.dtd"
   xmlns:inkscape="http://www.inkscape.org/namespaces/inkscape"
   width="720"
   height="701"
   fill="none"
   version="1.1"
   id="svg17"
   sodipodi:docname="Aero Contractors .svg"
   inkscape:version="0.92.3 (2405546, 2018-03-11)">
  <metadata
     id="metadata21">
    <rdf:RDF>
      <cc:Work
         rdf:about="">
        <dc:format>image/svg+xml</dc:format>
        <dc:type
           rdf:resource="http://purl.org/dc/dcmitype/StillImage" />
      </cc:Work>
    </rdf:RDF>
  </metadata>
  <sodipodi:namedview
     pagecolor="#ffffff"
     bordercolor="#666666"
     borderopacity="1"
     objecttolerance="10"
     gridtolerance="10"
     guidetolerance="10"
     inkscape:pageopacity="0"
     inkscape:pageshadow="2"
     inkscape:window-width="1366"
     inkscape:window-height="704"
     id="namedview19"
     showgrid="false"
     inkscape:zoom="0.33666191"
     inkscape:cx="54.055085"
     inkscape:cy="350.5"
     inkscape:window-x="0"
     inkscape:window-y="27"
     inkscape:window-maximized="1"
     inkscape:current-layer="g10" />
  <g
     clip-path="url(#clip0)"
     id="g10">
    <path
       d="M 25.881356,482.02119 H 358.88136 c 0,0 77,-1 105,-44 28,-45 113,-224 113,-224 0,0 7,-19 25,-19 l 79,-4 -8,26 h -48 c -18,0 -25,20 -25,20 0,0 -98,223 -126,267 -29,45 -106,45 -106,45 H 25.881356 Z"
       id="path2"
       inkscape:connector-curvature="0"
       style="fill:#ef8939" />
    <path
       d="m 615.88136,172.02119 h 75 l 9,-25 h -103 c 0,0 -42,2 -59,45 l -76,148 c 0,0 -18,44 -108,44 H 21.881356 v 66 H 362.88136 c 79,0 105,-60 105,-60 l 91,-184 c 2,0 12,-34 57,-34 z"
       id="path4"
       inkscape:connector-curvature="0"
       style="fill:#ef8939" />
    <path
       d="m 616.88136,123.02119 h 96 l 9,-25.000004 h -105 c 0,0 -79,-5 -113,58.000004 l -59,100 c -22,42 -99,34 -99,34 H 21.881356 v 67 H 354.88136 c 0,0 63,0 93,-44 l 83,-147 c 0,0 24,-43 86,-43 z"
       id="path6"
       inkscape:connector-curvature="0"
       style="fill:#ef8939" />
  </g>
  <defs
     id="defs15">
    <clipPath
       id="clip0">
      <path
         fill="#fff"
         d="M0 0h720v701H0z"
         id="path12" />
    </clipPath>
  </defs>
</svg>
