<?xml version="1.0" encoding="UTF-8" standalone="no"?>
<svg
   xmlns:dc="http://purl.org/dc/elements/1.1/"
   xmlns:cc="http://creativecommons.org/ns#"
   xmlns:rdf="http://www.w3.org/1999/02/22-rdf-syntax-ns#"
   xmlns:svg="http://www.w3.org/2000/svg"
   xmlns="http://www.w3.org/2000/svg"
   xmlns:sodipodi="http://sodipodi.sourceforge.net/DTD/sodipodi-0.dtd"
   xmlns:inkscape="http://www.inkscape.org/namespaces/inkscape"
   viewBox="0 0 1000 1000"
   version="1.1"
   id="svg20"
   sodipodi:docname="Airtel.svg"
   inkscape:version="0.92.3 (2405546, 2018-03-11)">
  <metadata
     id="metadata26">
    <rdf:RDF>
      <cc:Work
         rdf:about="">
        <dc:format>image/svg+xml</dc:format>
        <dc:type
           rdf:resource="http://purl.org/dc/dcmitype/StillImage" />
      </cc:Work>
    </rdf:RDF>
  </metadata>
  <defs
     id="defs24" />
  <sodipodi:namedview
     pagecolor="#ffffff"
     bordercolor="#666666"
     borderopacity="1"
     objecttolerance="10"
     gridtolerance="10"
     guidetolerance="10"
     inkscape:pageopacity="0"
     inkscape:pageshadow="2"
     inkscape:window-width="1366"
     inkscape:window-height="704"
     id="namedview22"
     showgrid="false"
     inkscape:zoom="0.236"
     inkscape:cx="63.559322"
     inkscape:cy="500"
     inkscape:window-x="0"
     inkscape:window-y="27"
     inkscape:window-maximized="1"
     inkscape:current-layer="svg20" />
  <title
     id="title2">Nigeria-Logo</title>
  <path
     d="m 617.9,232.59898 c 33.1,0.46 64.68,6.74 94.17,21.74 26,13.31 47.2,31.92 61.67,57.57 a 156,156 0 0 1 18.19,54.66 c 5.38,36.84 -0.06,72.48 -12.21,107.33 -7.14,20.44 -17.02,39.61 -27.72,58.44 -21.8,38.33 -49.81,71.55 -82.39,101 a 767.92,767.92 0 0 1 -136.68,98.71 c -19,10.73 -38.7,19.74 -59.89,25.25 a 146,146 0 0 1 -39.83,5.04 c -17.7,-0.36 -31.55,-8.42 -42.32,-22 a 64.2,64.2 0 0 1 -14.4,-43.32 55.77,55.77 0 0 1 1.88,-12.94 c 6.41,-22.77 15.12,-44.58 28.14,-64.47 9.95,-15.19 21.81,-28.68 37.32,-38.33 17.25,-10.74 36,-15.33 56.28,-10.9 a 47.5,47.5 0 0 1 17.53,8.15 c 13.35,9.54 12.65,24.51 6.24,34.07 a 189.11,189.11 0 0 1 -18.36,23.51 c -11.4,12.28 -23.51,23.89 -35.33,35.77 -10.46,10.51 -20.29,21.54 -28.26,34.11 -4.13,6.52 -7.94,13.17 -9.08,21 -1.44,9.82 3.66,16.51 13.57,17.43 a 42.39,42.39 0 0 0 15.23,-1.53 c 15.23,-4.21 29.37,-11 43.26,-18.32 21.42,-11.33 41.19,-25.18 60.46,-39.79 23.36,-17.71 46.07,-36.18 67,-56.72 23.84,-23.37 45.09,-48.77 61.35,-78.08 11.88,-21.4 20.63,-44 24.52,-68.24 3.44,-21.35 1.52,-42.15 -8.37,-61.75 a 56.25,56.25 0 0 0 -21.46,-23.37 40.31,40.31 0 0 0 -13.89,-5.18 c -17.87,-3.17 -35.16,-0.57 -52.15,5.1 -17.71,5.92 -34.14,14.56 -50.11,24 -34.66,20.56 -69.36,41.11 -102.39,64.26 -16.56,11.6 -32.61,23.94 -48.84,36 -14.66,10.9 -29.22,21.93 -45.24,30.84 a 144.58,144.58 0 0 1 -41.71,15.83 c -18.14,3.68 -34.86,0.26 -50.22,-9.6 -15.94,-10.23 -27.1,-24.27 -32,-42.85 -3.12,-11.73 -1.89,-23.36 0.8,-34.94 3.93,-17 11.39,-32.4 20.69,-47 23,-36.06 51.92,-66.65 85.55,-92.8 49.84,-38.75 104.68,-68.59 164,-90.18 a 288,288 0 0 1 95,-17.5 z"
     style="fill:#e20010"
     id="path4"
     inkscape:connector-curvature="0" />
</svg>
