<?xml version="1.0" encoding="UTF-8" standalone="no"?>
<svg
   xmlns:dc="http://purl.org/dc/elements/1.1/"
   xmlns:cc="http://creativecommons.org/ns#"
   xmlns:rdf="http://www.w3.org/1999/02/22-rdf-syntax-ns#"
   xmlns:svg="http://www.w3.org/2000/svg"
   xmlns="http://www.w3.org/2000/svg"
   xmlns:sodipodi="http://sodipodi.sourceforge.net/DTD/sodipodi-0.dtd"
   xmlns:inkscape="http://www.inkscape.org/namespaces/inkscape"
   width="570"
   height="570"
   fill="none"
   version="1.1"
   id="svg6"
   sodipodi:docname="ALAT.svg"
   inkscape:version="0.92.3 (2405546, 2018-03-11)">
  <metadata
     id="metadata12">
    <rdf:RDF>
      <cc:Work
         rdf:about="">
        <dc:format>image/svg+xml</dc:format>
        <dc:type
           rdf:resource="http://purl.org/dc/dcmitype/StillImage" />
      </cc:Work>
    </rdf:RDF>
  </metadata>
  <defs
     id="defs10" />
  <sodipodi:namedview
     pagecolor="#ffffff"
     bordercolor="#666666"
     borderopacity="1"
     objecttolerance="10"
     gridtolerance="10"
     guidetolerance="10"
     inkscape:pageopacity="0"
     inkscape:pageshadow="2"
     inkscape:window-width="1366"
     inkscape:window-height="704"
     id="namedview8"
     showgrid="false"
     inkscape:zoom="0.41403509"
     inkscape:cx="36.228814"
     inkscape:cy="285"
     inkscape:window-x="0"
     inkscape:window-y="27"
     inkscape:window-maximized="1"
     inkscape:current-layer="svg6" />
  <path
     fill="#C7001D"
     d="M0 0h570v570H0z"
     id="path2" />
  <path
     d="m 139,375.13559 h 151.028 c 2.973,0 4.907,-3.129 3.578,-5.789 l -3.106,-6.211 -6.5,-11.5 -0.335,-0.558 c -0.7229,-1.20482 -2.02494,-1.94201 -3.43,-1.942 h -95.737 c -3.094,0 -5.017,-3.363 -3.446,-6.03 l 62.525,-106.159 c 1.542,-2.617 5.324,-2.629 6.881,-0.021 l 81.378,136.261 c 0.7219,1.20873 2.0261,1.94895 3.434,1.949 h 92.801 c 3.079,0 5.004,-3.334 3.464,-6 l -110.88,-192 c -0.71451,-1.23757 -2.03497,-1.99996 -3.464,-2 h -19.882 c -3.052,0 -4.98,3.281 -3.493,5.948 l 90.368,162.104 c 1.487,2.667 -0.441,5.948 -3.493,5.948 h -29.893 c -1.4231,2.6e-4 -2.739,-0.75614 -3.455,-1.986 l -96.186,-165.028 c -0.716,-1.22986 -2.0319,-1.98626 -3.455,-1.986 H 247.3 c -1.42406,5e-5 -2.7407,0.75721 -3.457,1.988 l -108.3,186.079 c -0.35582,0.61081 -0.54319,1.3051 -0.543,2.012 v 0.921 c 0,2.20914 1.79086,4 4,4 z"
     id="path4"
     inkscape:connector-curvature="0"
     style="fill:#ffffff"
     sodipodi:nodetypes="sscccccscccccscccsccsccccccccss" />
</svg>
