<?xml version="1.0" encoding="UTF-8" standalone="no"?>
<svg
   xmlns:dc="http://purl.org/dc/elements/1.1/"
   xmlns:cc="http://creativecommons.org/ns#"
   xmlns:rdf="http://www.w3.org/1999/02/22-rdf-syntax-ns#"
   xmlns:svg="http://www.w3.org/2000/svg"
   xmlns="http://www.w3.org/2000/svg"
   xmlns:sodipodi="http://sodipodi.sourceforge.net/DTD/sodipodi-0.dtd"
   xmlns:inkscape="http://www.inkscape.org/namespaces/inkscape"
   id="svg"
   version="1.1"
   width="400"
   height="116.72462851723049"
   viewBox="0 0 400 116.72462851723049"
   sodipodi:docname="Andela.svg"
   inkscape:version="0.92.3 (2405546, 2018-03-11)">
  <metadata
     id="metadata13">
    <rdf:RDF>
      <cc:Work
         rdf:about="">
        <dc:format>image/svg+xml</dc:format>
        <dc:type
           rdf:resource="http://purl.org/dc/dcmitype/StillImage" />
      </cc:Work>
    </rdf:RDF>
  </metadata>
  <defs
     id="defs11" />
  <sodipodi:namedview
     pagecolor="#ffffff"
     bordercolor="#666666"
     borderopacity="1"
     objecttolerance="10"
     gridtolerance="10"
     guidetolerance="10"
     inkscape:pageopacity="0"
     inkscape:pageshadow="2"
     inkscape:window-width="1366"
     inkscape:window-height="704"
     id="namedview9"
     showgrid="false"
     inkscape:zoom="0.8275"
     inkscape:cx="75.528701"
     inkscape:cy="58.362316"
     inkscape:window-x="0"
     inkscape:window-y="27"
     inkscape:window-maximized="1"
     inkscape:current-layer="svgg" />
  <g
     id="svgg">
    <path
       id="path0"
       d="m 188.47205,0.7129184 c -0.555,0.319 -1.976,1.716 -3,2.95 -1.485,1.789 -1.968,2.36 -2.399,2.837 -0.249,0.275 -0.972,1.138 -1.608,1.9169996 -0.636,0.779 -1.431,1.717 -1.766,2.083 -0.336,0.367 -0.907,1.042 -1.27,1.5 -0.364,0.459 -0.859,1.044 -1.101,1.301 -0.241,0.256 -0.439,0.5 -0.439,0.541 0,0.041 -0.132,0.208 -0.292,0.371 -0.16,0.163 -0.629,0.701 -1.042,1.195 -0.412,0.494 -0.881,1.036 -1.041,1.204 -0.161,0.168 -0.292,0.335 -0.292,0.372 0,0.037 -0.223,0.319 -0.495,0.627 l -0.496,0.56 -2.463,-0.215 c -1.354,-0.118 -3.794,-0.325 -5.421,-0.46 -1.627,-0.135 -4.29,-0.357 -5.917,-0.493 -8.771,-0.732 -8.689,-0.731 -10.011,-0.051 -0.565,0.291 -0.871,0.597 -1.162,1.162 -0.68,1.322 -0.681,1.24 0.051,10.011 0.136,1.627 0.358,4.29 0.494,5.917 0.135,1.627 0.344,4.066 0.464,5.421 0.215,2.414 0.213,2.466 -0.121,2.696 -0.187,0.128 -0.61,0.483 -0.94,0.787 -0.619,0.573 -0.778,0.708 -2.319,1.97 -0.503,0.412 -1.214,1.023 -1.581,1.358 -0.366,0.335 -1.041,0.907 -1.5,1.27 -0.458,0.363 -1.043,0.858 -1.3,1.1 -0.257,0.242 -0.538,0.44 -0.625,0.44 -0.087,0 -0.159,0.056 -0.159,0.125 -0.001,0.068 -0.6,0.612 -1.332,1.208 -0.732,0.596 -1.332,1.14 -1.332,1.208 -0.001,0.069 -0.108,0.125 -0.238,0.125 -0.13,0 -0.261,0.068 -0.291,0.152 -0.031,0.083 -0.617,0.62 -1.302,1.192 -0.686,0.573 -1.333,1.124 -1.44,1.224 -0.106,0.1 -0.693,0.625 -1.304,1.166 -2.449,2.166 -2.47,4.399 -0.061,6.562 0.381,0.342 0.81,0.74 0.955,0.885 0.144,0.145 0.9,0.781 1.679,1.414 0.779,0.632 1.454,1.193 1.5,1.246 0.046,0.053 0.871,0.757 1.834,1.564 0.962,0.807 1.775,1.533 1.805,1.614 0.031,0.082 0.156,0.148 0.278,0.148 0.122,0 0.247,0.066 0.278,0.148 0.03,0.081 0.618,0.612 1.305,1.18 0.688,0.568 1.693,1.42 2.234,1.894 0.541,0.474 1.185,1.011 1.431,1.195 0.246,0.183 0.971,0.801 1.61,1.373 l 1.162,1.04 -0.21,1.793 c -0.116,0.987 -0.212,2.206 -0.214,2.71 -0.002,0.504 -0.117,2.079 -0.256,3.5 -0.139,1.421 -0.363,3.934 -0.499,5.584 -0.135,1.65 -0.324,3.937 -0.42,5.083 -0.493,5.904002 0.532,7.097002 5.722,6.662002 1.113,-0.093 3.374,-0.281 5.024,-0.418 2.779,-0.231 8.058,-0.687 12.54,-1.083 1.826,-0.161 2.543,-0.054 2.543,0.379 0,0.07 0.131,0.263 0.292,0.429 0.16,0.166 0.629,0.704 1.041,1.194 0.413,0.491 0.9,1.061 1.084,1.266 0.452,0.505 1.364,1.6 2.421,2.904 0.483,0.596 0.966,1.159 1.075,1.25 0.109,0.092 0.712,0.805 1.342,1.584 1.066,1.319 1.617,1.966 2.253,2.642 0.141,0.151 0.591,0.687 0.999,1.191 0.851,1.052 0.74,0.923 2.16,2.512 2.329,2.608 5.299,3.034 6.678,0.958 0.111,-0.167 1.238,-1.493 1.73,-2.037 0.188,-0.208 0.679,-0.779 1.092,-1.27 0.412,-0.49 0.881,-1.028 1.041,-1.194 0.161,-0.166 0.292,-0.34 0.292,-0.386 0,-0.046 0.131,-0.219 0.292,-0.385 0.16,-0.166 0.629,-0.705 1.041,-1.196 0.413,-0.492 0.882,-1.01 1.042,-1.152 0.16,-0.141 0.292,-0.353 0.292,-0.47 0,-0.118 0.056,-0.214 0.125,-0.214 0.068,0 0.5,-0.466 0.958,-1.035 0.458,-0.568 1.021,-1.231 1.25,-1.473 0.427,-0.451 0.543,-0.588 1.833,-2.161 0.412,-0.502 0.958,-1.139 1.214,-1.414 0.256,-0.275 0.744,-0.863 1.084,-1.307 l 0.619,-0.808 0.833,0.099 c 0.459,0.054 1.471,0.14 2.25,0.19 0.779,0.049 2.954,0.233 4.834,0.408 1.879,0.175 4.879,0.437 6.666,0.582 1.788,0.146 4.115,0.34 5.171,0.432 5.501,0.478 6.242,-0.821 5.427,-9.512002 -0.142,-1.513 -0.373,-4.138 -0.513,-5.834 -0.14,-1.696 -0.41,-4.648 -0.6,-6.561 -0.19,-1.913 -0.283,-3.53 -0.207,-3.594 0.077,-0.064 0.551,-0.449 1.054,-0.855 0.503,-0.407 1.066,-0.894 1.25,-1.083 0.184,-0.189 0.86,-0.76 1.502,-1.27 0.641,-0.51 1.357,-1.106 1.591,-1.324 0.233,-0.218 0.833,-0.733 1.333,-1.145 0.5,-0.412 0.993,-0.825 1.096,-0.917 0.103,-0.092 0.546,-0.467 0.985,-0.834 0.438,-0.367 0.879,-0.742 0.979,-0.834 0.1,-0.092 0.595,-0.501 1.099,-0.909 0.504,-0.408 1.037,-0.858 1.184,-0.999 0.464,-0.446 1.201,-1.067 2.149,-1.809 4.744,-3.712 4.779,-5.684 0.167,-9.512 -0.687,-0.571 -1.437,-1.206 -1.667,-1.413 -0.229,-0.206 -1.051,-0.896 -1.826,-1.533 -0.775,-0.637 -1.6,-1.336 -1.833,-1.554 -0.233,-0.218 -0.911,-0.79 -1.507,-1.27 -0.596,-0.481 -1.275,-1.053 -1.508,-1.271 -0.37,-0.345 -1.173,-1.022 -2.643,-2.229 -0.224,-0.184 -0.544,-0.465 -0.711,-0.625 -0.168,-0.161 -0.338,-0.292 -0.378,-0.292 -0.04,0 -0.396,-0.291 -0.791,-0.646 -0.396,-0.356 -0.933,-0.827 -1.195,-1.048 l -0.476,-0.402 0.344,-3.327 c 0.188,-1.83 0.461,-4.827 0.606,-6.66 0.145,-1.834 0.379,-4.534 0.52,-6 0.85,-8.826 0.159,-9.846 -6.268,-9.257 -0.963,0.088 -3.213,0.277 -5,0.42 -3.226,0.257 -6.644,0.547 -11.385,0.966 l -2.467,0.218 -0.778,-0.924 c -0.428,-0.508 -0.943,-1.111 -1.144,-1.34 -0.202,-0.229 -0.678,-0.792 -1.06,-1.25 -0.913,-1.097 -2.041,-2.426 -2.25,-2.653 -0.092,-0.099 -0.505,-0.592 -0.917,-1.094 -0.412,-0.503 -0.899,-1.097 -1.083,-1.321 -0.183,-0.223 -0.446,-0.529 -0.583,-0.679 -0.138,-0.151 -0.66,-0.757 -1.162,-1.3469996 -0.501,-0.59 -1.078,-1.26 -1.281,-1.489 -0.203,-0.229 -0.832,-0.979 -1.398,-1.667 -0.567,-0.687 -1.097,-1.275 -1.178,-1.306 -0.081,-0.03 -0.148,-0.119 -0.148,-0.197 0,-0.229 -1.576,-1.78 -2.187,-2.153 -0.737,-0.449 -2.651,-0.476 -3.396,-0.048 m 2.769,15.6619996 c 0.563,0.711 1.089,1.317 1.169,1.348 0.08,0.03 0.145,0.124 0.145,0.208 0,0.084 0.132,0.29 0.292,0.458 0.703,0.736 1.375,1.572 1.375,1.711 0,0.083 0.061,0.15 0.135,0.15 0.074,0 0.501,0.5 0.949,1.11 1.648,2.245 2.05,2.507 2.854,1.866 0.104,-0.083 0.892,-0.513 1.75,-0.956 0.859,-0.443 1.974,-1.05 2.477,-1.349 0.504,-0.298 1.066,-0.61 1.25,-0.692 0.184,-0.082 0.935,-0.482 1.668,-0.888 0.734,-0.406 1.378,-0.743 1.432,-0.748 0.095,-0.009 0.267,0.494 0.763,2.241 0.495,1.742 0.776,2.696 1.056,3.583 0.159,0.504 0.401,1.292 0.537,1.75 0.137,0.458 0.383,1.261 0.547,1.785 l 0.298,0.951 1.35,-0.088 c 0.743,-0.049 2.135,-0.198 3.095,-0.331 0.959,-0.134 2.646,-0.315 3.75,-0.404 1.103,-0.088 2.218,-0.206 2.477,-0.261 l 0.471,-0.101 -0.101,1.391 c -0.092,1.264 -0.193,2.282 -0.751,7.558 -0.263,2.476 -0.324,2.289 0.868,2.644 0.573,0.17 1.454,0.442 1.958,0.602 1.097,0.35 2.137,0.657 4.584,1.355 1.008,0.287 2.038,0.596 2.288,0.688 l 0.455,0.166 -0.69,1.272 c -0.379,0.7 -0.936,1.723 -1.236,2.273 -0.301,0.55 -0.741,1.375 -0.98,1.833 -0.238,0.459 -0.603,1.134 -0.81,1.5 -0.207,0.367 -0.623,1.115 -0.925,1.663 l -0.549,0.996 0.473,0.396 c 0.261,0.218 0.633,0.53 0.828,0.694 0.195,0.163 0.867,0.699 1.494,1.191 0.626,0.491 1.329,1.071 1.562,1.287 0.233,0.216 0.742,0.622 1.131,0.903 0.39,0.281 0.709,0.572 0.709,0.649 0,0.076 0.112,0.138 0.25,0.138 0.137,0 0.25,0.06 0.25,0.134 0,0.074 0.447,0.467 0.993,0.875 1.199,0.894 1.184,0.787 0.213,1.527 -0.436,0.333 -0.98,0.766 -1.208,0.962 -0.932,0.799 -1.132,0.964 -2.332,1.921 -0.687,0.549 -1.325,1.08 -1.416,1.18 -0.092,0.101 -0.64,0.539 -1.218,0.975 -1.826,1.378 -1.791,1.295 -1.089,2.578 0.331,0.604 0.798,1.473 1.038,1.931 0.239,0.459 0.477,0.871 0.528,0.917 0.051,0.046 0.243,0.383 0.426,0.75 0.635,1.27 2.109,4.001 2.336,4.329 0.337,0.484 0.292,0.561 -0.396,0.686 -0.344,0.062 -0.888,0.207 -1.209,0.323 -0.32,0.115 -1.183,0.372 -1.916,0.571 -0.734,0.199 -1.596,0.462 -1.917,0.584 -0.321,0.122 -1.071,0.351 -1.667,0.509 -0.596,0.158 -1.366,0.391 -1.711,0.517 -0.346,0.127 -0.777,0.231 -0.959,0.231 -0.389,0 -0.401,0.175 -0.168,2.385 0.426,4.034 0.67,6.479 0.766,7.682 l 0.105,1.317 -0.891,-0.114 c -0.49,-0.063 -1.717,-0.183 -2.725,-0.266 -1.008,-0.084 -2.396,-0.227 -3.083,-0.318 -0.688,-0.091 -1.972,-0.214 -2.854,-0.273 l -1.604,-0.108 -0.206,0.556 c -0.114,0.306 -0.266,0.818 -0.338,1.139 -0.073,0.321 -0.21,0.808 -0.305,1.083 -0.096,0.275 -0.443,1.4 -0.773,2.5 -0.329,1.1 -0.7,2.338 -0.824,2.75 -0.124,0.413 -0.313,1.073 -0.42,1.467002 -0.226,0.831 -0.32,0.83 -1.843,-0.023 -0.504,-0.283002 -1.179,-0.653002 -1.5,-0.824002 -0.321,-0.17 -1.108,-0.599 -1.75,-0.951 -0.642,-0.353 -1.729,-0.929 -2.417,-1.28 -0.687,-0.351 -1.289,-0.69 -1.336,-0.753 -0.597,-0.789 -1.019,-0.547 -2.675,1.531 -0.767,0.962 -1.438,1.787 -1.492,1.833 -0.053,0.046 -0.543,0.644002 -1.089,1.328002 -0.545,0.684 -1.104,1.361 -1.241,1.505 -0.138,0.144 -0.513,0.613 -0.833,1.043 -0.794,1.062 -0.745,1.081 -2.25,-0.876 -0.459,-0.595 -0.946,-1.197 -1.084,-1.336 -0.137,-0.139 -0.662,-0.777 -1.165,-1.417002 -0.504,-0.64 -1.029,-1.29 -1.167,-1.445 -0.138,-0.155 -0.626,-0.768 -1.084,-1.363 -0.459,-0.595 -0.931,-1.123 -1.05,-1.174 -0.185,-0.08 -1.791,0.626 -2.034,0.894 -0.045,0.05 -0.496,0.308 -1,0.573 -0.504,0.265 -1.479,0.785 -2.166,1.156 -0.688,0.372 -1.55,0.826 -1.917,1.009 -0.367,0.184 -0.704,0.376002 -0.75,0.427002 -0.046,0.051 -0.476,0.294 -0.955,0.541 l -0.871,0.447 -0.191,-0.697 c -0.106,-0.384002 -0.285,-0.998002 -0.399,-1.365002 -0.23,-0.737 -0.495,-1.641 -1.248,-4.25 -0.278,-0.962 -0.611,-2.087 -0.74,-2.5 -0.129,-0.412 -0.282,-0.963 -0.339,-1.223 -0.07,-0.319 -0.182,-0.444 -0.341,-0.383 -0.131,0.05 -0.821,0.135 -1.535,0.188 -0.714,0.054 -2.273,0.203 -3.464,0.333 -4,0.435 -5.942,0.616 -5.998,0.559 -0.031,-0.031 0.053,-1.032 0.186,-2.224 0.979,-8.731 1.002,-9.083 0.598,-9.083 -0.171,0 -0.642,-0.104 -1.048,-0.23 -0.406,-0.127 -1.188,-0.364 -1.738,-0.528 -0.55,-0.163 -1.413,-0.427 -1.917,-0.586 -0.504,-0.158 -1.367,-0.419 -1.917,-0.58 -0.55,-0.16 -1.282,-0.393 -1.628,-0.517 -0.346,-0.124 -0.763,-0.226 -0.927,-0.226 -0.606,0 -0.882,-0.369 -0.623,-0.833 0.128,-0.229 0.432,-0.792 0.676,-1.25 0.243,-0.458 0.613,-1.133 0.822,-1.5 0.208,-0.367 0.718,-1.304 1.133,-2.083 1.418,-2.664 1.63,-3.049 1.784,-3.234 0.539,-0.649 0.4,-1.044 -0.681,-1.933 -0.581,-0.477 -1.243,-1.028 -1.472,-1.224 -0.229,-0.197 -0.942,-0.765 -1.584,-1.263 -0.641,-0.499 -1.264,-1.004 -1.384,-1.124 -0.12,-0.119 -0.682,-0.57 -1.25,-1.001 -1.633,-1.241 -1.91,-1.548 -1.604,-1.779 0.982,-0.742 2.435,-1.877 2.586,-2.02 0.099,-0.095 0.505,-0.435 0.902,-0.756 0.397,-0.321 0.803,-0.659 0.903,-0.752 0.099,-0.093 0.518,-0.43 0.931,-0.749 0.412,-0.318 0.9,-0.718 1.083,-0.887 0.183,-0.17 0.651,-0.538 1.039,-0.82 0.934,-0.676 0.983,-0.927 0.392,-1.984 -0.274,-0.49 -0.688,-1.266 -0.921,-1.724 -0.232,-0.459 -0.8,-1.509 -1.262,-2.334 -0.461,-0.825 -0.954,-1.725 -1.094,-2 -0.141,-0.275 -0.472,-0.908 -0.736,-1.408 -0.546,-1.033 -0.534,-1.109 0.209,-1.256 0.297,-0.059 0.877,-0.214 1.29,-0.345 0.412,-0.131 1.537,-0.465 2.5,-0.742 0.962,-0.276 2.2,-0.645 2.75,-0.819 0.55,-0.174 1.47,-0.455 2.045,-0.623 l 1.046,-0.307 -0.093,-1.166 c -0.113,-1.404 -0.51,-5.252 -0.826,-7.999 -0.127,-1.099 -0.218,-2.01 -0.201,-2.024 0.043,-0.039 2.828,0.241 6.029,0.604 1.558,0.178 3.375,0.363 4.038,0.413 l 1.205,0.091 0.102,-0.459 c 0.057,-0.253 0.199,-0.76 0.316,-1.126 0.117,-0.367 0.332,-1.08 0.478,-1.584 0.494,-1.709 1.292,-4.413 1.525,-5.166 0.127,-0.413 0.279,-0.993 0.338,-1.29 0.15,-0.758 0.278,-0.781 1.279,-0.227 0.487,0.27 1.448,0.774 2.135,1.121 0.688,0.347 1.354,0.709 1.481,0.805 0.287,0.217 2.805,1.589 3.981,2.17 1.029,0.508 1.097,0.484 2.061,-0.746 0.395,-0.504 0.814,-0.977 0.931,-1.05 0.117,-0.073 0.213,-0.242 0.213,-0.375 0,-0.133 0.06,-0.242 0.132,-0.242 0.073,0 0.405,-0.356 0.737,-0.791 0.332,-0.436 0.798,-1.017 1.036,-1.292 0.238,-0.275 0.976,-1.189 1.639,-2.031 1.457,-1.85 1.235,-1.826 2.475,-0.261"
       inkscape:connector-curvature="0"
       style="fill:#345cdc;fill-rule:evenodd;stroke:none"
       sodipodi:nodetypes="cccscccssccscccscccccccccccsscscscccccccsccsccsccccsscccccscccccccccccccscccsscccsccccccccssccsccsscssccccssccccsccccccccccccccccccsccsccccscssccccsccccccccccccccccccccccccccccscsssccccccccscccccsscscccccccccccccccccccccccccccscccsccsccccccccccccsccccssccccccccccccsccccccccccccsccccccccccccccccccssscscc" />
    <path
       id="path1"
       d=""
       stroke="none"
       fill="#385cdc"
       fill-rule="evenodd" />
    <path
       id="path2"
       d=""
       stroke="none"
       fill="#385cdc"
       fill-rule="evenodd" />
    <path
       id="path3"
       d=""
       stroke="none"
       fill="#385cdc"
       fill-rule="evenodd" />
    <path
       id="path4"
       d=""
       stroke="none"
       fill="#385cdc"
       fill-rule="evenodd" />
  </g>
</svg>
