<?xml version="1.0" encoding="UTF-8" standalone="no"?>
<svg
   xmlns:dc="http://purl.org/dc/elements/1.1/"
   xmlns:cc="http://creativecommons.org/ns#"
   xmlns:rdf="http://www.w3.org/1999/02/22-rdf-syntax-ns#"
   xmlns:svg="http://www.w3.org/2000/svg"
   xmlns="http://www.w3.org/2000/svg"
   xmlns:sodipodi="http://sodipodi.sourceforge.net/DTD/sodipodi-0.dtd"
   xmlns:inkscape="http://www.inkscape.org/namespaces/inkscape"
   width="1863"
   height="742"
   fill="none"
   version="1.1"
   id="svg15"
   sodipodi:docname="Arik Air.svg"
   inkscape:version="0.92.3 (2405546, 2018-03-11)">
  <metadata
     id="metadata19">
    <rdf:RDF>
      <cc:Work
         rdf:about="">
        <dc:format>image/svg+xml</dc:format>
        <dc:type
           rdf:resource="http://purl.org/dc/dcmitype/StillImage" />
      </cc:Work>
    </rdf:RDF>
  </metadata>
  <sodipodi:namedview
     pagecolor="#ffffff"
     bordercolor="#666666"
     borderopacity="1"
     objecttolerance="10"
     gridtolerance="10"
     guidetolerance="10"
     inkscape:pageopacity="0"
     inkscape:pageshadow="2"
     inkscape:window-width="1366"
     inkscape:window-height="704"
     id="namedview17"
     showgrid="false"
     inkscape:zoom="0.17767042"
     inkscape:cx="351.77492"
     inkscape:cy="371"
     inkscape:window-x="0"
     inkscape:window-y="27"
     inkscape:window-maximized="1"
     inkscape:current-layer="g8" />
  <g
     clip-path="url(#clip0)"
     fill-rule="evenodd"
     clip-rule="evenodd"
     id="g8">
    <path
       d="m 711.70091,601.42599 186,-226 c 13,-16 21,-32 62,-32 56.99999,0 130.99999,-13 192.99999,-27 86,-19 158,-55 215,-83 -16,31 -125,63 -180,92 48,-12 57,-15 104,-31 -35,32 -76,29 -133,57 42,-9 44,-9 85,-22 -25,27 -73,23 -110,44 38,-6 35,-4 70,-14 -25,16 -67,42 -145,74 l -147.99999,34 c -11,2 -38,5 -61,27 -29,29 -69,63 -81,71 -14,11 -30,30 -57,36 z m -12,-9 169,-218 c 13,-17 16,-39 -17,-51 -45,-17 -94,-21 -138,-39 -91,-35 -144,-119 -198,-200.000009 -18,35.000009 50,79.000009 66,124.000009 -26,-26 -50,-53 -71,-83 -3,41 57,67 75,112 -25,-22 -49,-44 -69,-68 -7,34 64,66 73,97 -24,-16 -47,-34 -64,-54 4,23 28,55 77,94 47,44 124,99 126,174 0,23 -10,41 -21,61 -7,13 -12,31 -8,51 z"
       id="path2"
       inkscape:connector-curvature="0"
       style="fill:#949599" />
  </g>
  <defs
     id="defs13">
    <clipPath
       id="clip0">
      <path
         fill="#fff"
         d="M0 0h1863v742H0z"
         id="path10" />
    </clipPath>
  </defs>
</svg>
