<?xml version="1.0" encoding="UTF-8" standalone="no"?>
<svg
   xmlns:dc="http://purl.org/dc/elements/1.1/"
   xmlns:cc="http://creativecommons.org/ns#"
   xmlns:rdf="http://www.w3.org/1999/02/22-rdf-syntax-ns#"
   xmlns:svg="http://www.w3.org/2000/svg"
   xmlns="http://www.w3.org/2000/svg"
   xmlns:sodipodi="http://sodipodi.sourceforge.net/DTD/sodipodi-0.dtd"
   xmlns:inkscape="http://www.inkscape.org/namespaces/inkscape"
   width="3077"
   height="547"
   fill="none"
   version="1.1"
   id="svg10"
   sodipodi:docname="AXA.svg"
   inkscape:version="0.92.3 (2405546, 2018-03-11)">
  <metadata
     id="metadata16">
    <rdf:RDF>
      <cc:Work
         rdf:about="">
        <dc:format>image/svg+xml</dc:format>
        <dc:type
           rdf:resource="http://purl.org/dc/dcmitype/StillImage" />
      </cc:Work>
    </rdf:RDF>
  </metadata>
  <defs
     id="defs14" />
  <sodipodi:namedview
     pagecolor="#ffffff"
     bordercolor="#666666"
     borderopacity="1"
     objecttolerance="10"
     gridtolerance="10"
     guidetolerance="10"
     inkscape:pageopacity="0"
     inkscape:pageshadow="2"
     inkscape:window-width="1366"
     inkscape:window-height="704"
     id="namedview12"
     showgrid="false"
     inkscape:zoom="0.10757231"
     inkscape:cx="581.00453"
     inkscape:cy="273.5"
     inkscape:window-x="0"
     inkscape:window-y="27"
     inkscape:window-maximized="1"
     inkscape:current-layer="svg10" />
  <path
     d="m 1736.8973,547 h -547 v -56 h 12 l 12,-1 3,-5 14,-19 36,-47 11,-14 h 81 l 4,14 4,16 1,2 -7,8 a 313,313 0 0 1 -37,45 l 19,1 h 19 l 3,-6 a 89,89 0 0 1 15,-21 128,128 0 0 1 7,26 l 20,1 h 19 l 1,-1 a 219,219 0 0 0 7,-13 l 11,-12 a 115,115 0 0 1 6,26 1337,1337 0 0 0 50,-1 l -3,-5 c -6,-11 -5,-10 -17,-46 l -5,-17 6,-9 7,-8 h 81 l 6,19 a 2600,2600 0 0 1 17,66 l 26,1 a 888,888 0 0 0 25,-3 l -11,-26 a 2283,2283 0 0 1 -51,-176 h -41 l -2,3 -9,16 -64,85 -6,-21 a 4701,4701 0 0 1 67,-83 h -41 l -1,1 v 2 c -1,5 -2,8 -6,13 l -32,40 -2,-5 a 4898,4898 0 0 0 -12,-49 v -2 h -50 l 1,3 a 1317,1317 0 0 1 30,88 l -13,17 a 3463,3463 0 0 1 -29,-100 l -1,-7 v -1 h -43 l -4,9 -7,13 a 1709,1709 0 0 1 -69,92 2835,2835 0 0 1 -57,73 h -1 V 0 h 515 l -168,218 a 2950,2950 0 0 0 -39,53 h 31 l 45,-58 32,-42 131,-171 z m -322,-109 -4,-14 13,-17 2,3 7,20 1,2 -2,3 -12,16 z m -117,-59 a 4455,4455 0 0 1 30,-38 143,143 0 0 0 9,-14 v 4 l 1,7 a 385,385 0 0 0 12,41 852,852 0 0 1 -52,0 z m 211,0 c 17,-21 31,-39 36,-48 l 2,-4 1,5 v 7 a 522,522 0 0 0 12,40 h 1 -53 z"
     id="path2"
     inkscape:connector-curvature="0"
     style="fill:#103083" />
  <path
     d="m 1529.8973,274 -41,-1 215,-273 h 33 z"
     id="path4"
     inkscape:connector-curvature="0"
     style="fill:#fc1721" />
</svg>
