<?xml version="1.0" encoding="UTF-8" standalone="no"?>
<svg
   xmlns:dc="http://purl.org/dc/elements/1.1/"
   xmlns:cc="http://creativecommons.org/ns#"
   xmlns:rdf="http://www.w3.org/1999/02/22-rdf-syntax-ns#"
   xmlns:svg="http://www.w3.org/2000/svg"
   xmlns="http://www.w3.org/2000/svg"
   xmlns:sodipodi="http://sodipodi.sourceforge.net/DTD/sodipodi-0.dtd"
   xmlns:inkscape="http://www.inkscape.org/namespaces/inkscape"
   viewBox="0 0 1000 1000"
   version="1.1"
   id="svg20"
   sodipodi:docname="Bet9ja.svg"
   inkscape:version="0.92.3 (2405546, 2018-03-11)">
  <metadata
     id="metadata26">
    <rdf:RDF>
      <cc:Work
         rdf:about="">
        <dc:format>image/svg+xml</dc:format>
        <dc:type
           rdf:resource="http://purl.org/dc/dcmitype/StillImage" />
      </cc:Work>
    </rdf:RDF>
  </metadata>
  <defs
     id="defs24" />
  <sodipodi:namedview
     pagecolor="#ffffff"
     bordercolor="#666666"
     borderopacity="1"
     objecttolerance="10"
     gridtolerance="10"
     guidetolerance="10"
     inkscape:pageopacity="0"
     inkscape:pageshadow="2"
     inkscape:window-width="1366"
     inkscape:window-height="704"
     id="namedview22"
     showgrid="false"
     inkscape:zoom="0.236"
     inkscape:cx="63.559322"
     inkscape:cy="500"
     inkscape:window-x="0"
     inkscape:window-y="27"
     inkscape:window-maximized="1"
     inkscape:current-layer="svg20" />
  <title
     id="title2">Nigeria-Logo</title>
  <path
     d="M296.82,581.69c-2.42.62-3.62,2.23-4.06,4.65-2.07,11.53-4.51,23-5,34.74a51.85,51.85,0,0,0,1.45,16.28c2.53,9,8.25,15.2,17.37,17,16.67,3.3,32,.37,43.32-13.35,8.51-10.33,12-22.22,6.61-35.44-.57-1.4-.88-2.84,1-3.22,6.09-1.23,12.21-3,18.39-.43,7.09,3,10.58,8.58,10.66,16,.13,13.72-6,24.67-16.47,33.06-12.67,10.17-27.34,16.1-43.32,18.91-11.36,2-22.79,1.7-34.16.52-16.17-1.68-31.39-6.25-44.38-16.58-14-11.09-20.59-26-21.83-43.38-.44-6.07-.07-12.19-.76-18.41-2.08,5-4.1,10-6.25,15C212,624.08,202.18,639.36,187.32,651a78.53,78.53,0,0,1-33.13,15.3,17.23,17.23,0,0,1-2.28.16c-1.56-.76-3.12.05-4.69.05q-47.4-.12-94.79,0c-3.8,0-7.59.08-11.84-.21.71-1.05,1.38-1.93,1.08-3,9.09-15.1,12.24-32.06,15.55-49,5-25.86,10.25-51.69,15.36-77.54,1.71-8.64,3.31-17.3,5-25.95h0A9,9,0,0,0,78,509.4q4.47-21.87,8.92-43.74A25.1,25.1,0,0,0,87,450.8c-.48-2.42-1-4.84-1.45-7.26-.45-2.74.88-3.28,3.4-3.26,18.18.09,36.37,0,54.55,0,4.29,0,4.29,0,4.43,4.24a19.12,19.12,0,0,1-.18,2.28q-4.89,25-9.81,50c-1,4.91-1.87,9.83-2.9,15.26,3.4-2.06,6.25-3.82,9.13-5.53,12.73-7.58,26-13.09,41.32-12.05,18.33,1.26,31.86,9.62,39.72,26.46,5.67,12.16,6.85,25.08,6,38.28-.14,2.3-.26,4.6-.39,6.89a105.34,105.34,0,0,0,4.32-9.76c4.19-9.87,10.06-18.73,16.51-27.24h0a11.73,11.73,0,0,0,1-.94A93.84,93.84,0,0,1,292,500.9a117.59,117.59,0,0,1,53.18-7c9.37,1,18.13,3.95,26.61,7.91l.05.06c6.66,3.84,13.09,8,18.36,13.71,8.34,9.06,11.88,20,12.52,32a114.57,114.57,0,0,1-2.75,30.61c-.3,1.37-.43,2.94-2.29,3.25a2.41,2.41,0,0,0-1.9-.45H298.09a12.75,12.75,0,0,0-1.37.15Zm1.79-15.15-.18.47a3.39,3.39,0,0,0,.76.19h37.44c.58,0,1.16,0,1.5-.62,3.15-1,2.54-3.93,3.06-6.22a197.78,197.78,0,0,0,5.09-40.1c.13-7.72-5-12.75-12.66-13-10.8-.39-18.27,4.7-23.12,14-6.86,13.14-10.4,27.33-13.1,41.79C297.14,564.44,297.21,565.71,298.61,566.54ZM114,651.3v0c1.83,0,3.65,0,5.48,0a8.85,8.85,0,0,0,2-.35c17.24-4.6,29.29-14.92,34.47-32.24,5.85-19.5,9.91-39.43,13.72-59.42a56.65,56.65,0,0,0-2.12-28.91,11,11,0,0,0-9.62-8c-6.62-.9-12.3,1.24-17.14,5.75-8.78,8.17-13.49,18.55-15.84,30.06-3.71,18.15-7.21,36.33-10.76,54.51-2.34,12-4.58,23.94-7,35.89-.41,2.08,0,2.89,2.2,2.76C110.92,651.22,112.46,651.3,114,651.3Z"
     style="fill:#d42127"
     id="path4" />
  <path
     d="M602.28,671c-10,.68-19.91,1.38-29.92.7-18.08-1.23-35.55-4.7-51.61-13.5-6.18-3.38-11.78-7.61-15.18-14.06-5.18-9.83-2.57-21.82,4.9-30.61,13.8-16.21,44-19.06,62.73-4.69a33.23,33.23,0,0,1,6,5.76c1.95,2.45,1.84,3.85-.57,5.85s-5,3.85-7,6.39c-8.79,11.17-4.08,26.45,9.56,30.36,11.91,3.41,21.84.49,30.32-8.89,15.63-17.31,25.12-37.66,31-59.92,1.32-5,2.34-10.09,3.35-15.16.33-1.64.93-3.88-.55-4.83-1.21-.78-2.74.87-4,1.74-12.19,8.6-25.37,15.12-40,18.28-17.76,3.83-35.41,4-52.72-2.58-20.07-7.59-34.69-28.21-35.24-49.62A96,96,0,0,1,518.61,504c.26-.81.43-1.66.64-2.49h0c.37-.76.79-1.51,1.1-2.3a88.42,88.42,0,0,1,15.74-25.89c13.39-15.26,30.46-24.82,49.22-31.76a130.75,130.75,0,0,1,35.37-7.32c14.95-1.18,29.7-.39,44.24,3.57a109.89,109.89,0,0,1,20.39,8.39h0a7.07,7.07,0,0,0,1,.94,86.71,86.71,0,0,1,20.51,17.87c5.53,6.46,9.54,13.85,13.07,21.54.78,2.53,1.52,5.08,2.37,7.6,1.84,5.44,2.15,11.18,3.36,16.75q.09,3.1.2,6.2v8.63c0,1.92-.11,3.84-.17,5.76-.47,3.7-.82,7.42-1.45,11.09-.94,5.56-2.07,11.09-3.12,16.63a.33.33,0,0,0-.08.44,7.12,7.12,0,0,0-.94,3l-.18,1.1q-3.43,9.82-6.88,19.66v0a70.22,70.22,0,0,0-4.24,9.1l.07-.07-.4.74a.28.28,0,0,0-.13.38,55.71,55.71,0,0,0-4.5,8.28l0,0a27.71,27.71,0,0,0-3.48,5.7h0l-8.13,11.5,0,0a34.49,34.49,0,0,0-4.69,5.74l0,0-5.36,5.79a.28.28,0,0,0-.31.26,13.82,13.82,0,0,0-3,3.17l0,0-12.07,10.46v0a252.3,252.3,0,0,1-22,13.83l0,0-10.38,4.64v0c-3.74,1.19-7.47,2.4-11.21,3.57C616.44,668.56,609.31,669.5,602.28,671Zm61.16-179.53A101.4,101.4,0,0,0,661,468.84c-1.93-8.67-6.22-15.8-15-19-6.91-2.47-14-2-20.94.2-10.31,3.21-17.13,10.54-22.85,19.21-8.11,12.28-12.65,25.88-15.47,40.23-2.65,13.5-3,26.85.64,40.19,2.38,8.79,8.18,15.91,18,17,12.34,1.33,23.13-2.41,31.79-11C655,538.07,663.16,516.32,663.44,491.43Z"
     style="fill:#14b151"
     id="path6" />
  <circle
     cx="778.99"
     cy="423.39"
     r="53.02"
     style="fill:#fff;stroke:#000;stroke-width:0.6693047853462792px"
     id="circle14" />
  <path
     d="M759.33,374.16l1.88,4.57m-31.12,44.32c2.85,6.71,9.5,8.53,15.41,11.08m6.19-46.59c-13.09,3.16-21.51,16.92-21.1,17m33.58-10.7c-4.17,7.29-4.8,16.9-2.66,28.28m16.9-48.26c4.56-1.93,11.88-1.63,20.82.49M754,455c-2.14,2.32-3.4,6.21-4.43,10.49m33.72-79.83c5.56,3,15.77,8.14,22.21,16.26M775,453.26a35,35,0,0,0,20.43,12.58m9.74-44.39a122.89,122.89,0,0,1-25.86,12.09M820,399c-.57-5.21-3-10.23-5.87-15.22m13,36.08a9.16,9.16,0,0,1,4.82,5.34m-13.2,6.59c.79,7.46-2.25,16.36-5.3,25.29"
     style="fill:none;stroke:#000;stroke-width:0.6693047853462792px"
     id="path16" />
  <path
     d="M759.59,374.65A85.14,85.14,0,0,1,780.84,373c1.94,3.6,2.67,8.46,3.59,13.29-8.26,3.28-16.17,6.56-21.3,9.59-5.46-2.8-8.46-3.46-14.81-7.42C750.42,383.47,754.23,378.87,759.59,374.65ZM820,398.08c3.54,7.39,7,14.79,8.4,22.35-3.33,5-6.79,10.57-9.6,13.06-4.55-2.68-10-7.06-15.3-11,.12-8.54.44-14.87.68-22C809.84,399.07,815.29,397.91,820,398.08ZM727,433.5a53,53,0,0,1,3.81-32l1.28.35c-1.74,7.53-3.06,15-1.32,21.8a17.26,17.26,0,0,0-2.77,9.9Zm34.17-13.28c7,4.29,13.83,8.47,20.43,12.58-.59,7.77-3.09,14.8-5.13,22-7.26,2.32-15.32.72-23,.81-5.69-8.07-6.58-14.88-8.81-22A85.34,85.34,0,0,1,761.12,420.22Zm56.68,39.19a53,53,0,0,1-28.72,16l-2.36-1.07c2.8-1.93,4.84-5.2,6.52-9.11,5.73-.36,13.47-5.71,20.85-10.17A21.61,21.61,0,0,1,817.8,459.41Zm-60.07,12.5a53.1,53.1,0,0,1-18.46-13.49c3.5,3.19,6.4,6,10.53,6.25C750.27,466.66,752.32,468.91,757.73,471.91Z"
     id="path18" />
</svg>
