<?xml version="1.0" encoding="UTF-8" standalone="no"?>
<svg
   xmlns:dc="http://purl.org/dc/elements/1.1/"
   xmlns:cc="http://creativecommons.org/ns#"
   xmlns:rdf="http://www.w3.org/1999/02/22-rdf-syntax-ns#"
   xmlns:svg="http://www.w3.org/2000/svg"
   xmlns="http://www.w3.org/2000/svg"
   xmlns:sodipodi="http://sodipodi.sourceforge.net/DTD/sodipodi-0.dtd"
   xmlns:inkscape="http://www.inkscape.org/namespaces/inkscape"
   width="2045"
   height="576"
   fill="none"
   version="1.1"
   id="svg4"
   sodipodi:docname="Betway.svg"
   inkscape:version="0.92.3 (2405546, 2018-03-11)">
  <metadata
     id="metadata10">
    <rdf:RDF>
      <cc:Work
         rdf:about="">
        <dc:format>image/svg+xml</dc:format>
        <dc:type
           rdf:resource="http://purl.org/dc/dcmitype/StillImage" />
      </cc:Work>
    </rdf:RDF>
  </metadata>
  <defs
     id="defs8" />
  <sodipodi:namedview
     pagecolor="#ffffff"
     bordercolor="#666666"
     borderopacity="1"
     objecttolerance="10"
     gridtolerance="10"
     guidetolerance="10"
     inkscape:pageopacity="0"
     inkscape:pageshadow="2"
     inkscape:window-width="1366"
     inkscape:window-height="704"
     id="namedview6"
     showgrid="false"
     inkscape:zoom="0.32371638"
     inkscape:cx="957.63117"
     inkscape:cy="303.94463"
     inkscape:window-x="0"
     inkscape:window-y="27"
     inkscape:window-maximized="1"
     inkscape:current-layer="svg4" />
  <path
     d="m 865.47,37.55 143.2,404.72 h 88.06 l 50.29,-169.52 50.99,169.52 h 88.7 l 114.59,-323.1 h -118.54 l -47.68,171.48 -49.65,-171.49 h -75.49 l -49.65,171.5 -82.78,-253.1 H 865.47 Z m -159.4,162.38 v 141.7 c 0,16.3 1.66,31.06 4.96,44.33 3.3,13.26 8.95,24.5 16.9,33.77 7.93,9.27 18.42,16.47 31.42,21.53 13.05,5.06 29.04,7.62 48,7.62 22.54,0 42.3,-2.67 59.3,-7.94 16.99,-5.33 32.76,-13 47.3,-23.18 l -29.78,-70.21 c -6.08756,4.64059 -12.63914,8.63856 -19.55,11.93 -7.09249,3.4966 -14.89243,5.32001 -22.8,5.33 -8.42,0 -13.8,-3.09 -16.25,-9.27 -2.4,-6.18 -3.62,-14.81 -3.62,-25.84 V 199.94 h 77.72 l -28.6,-80.77 H 821.95 V 37.72 H 706.08 v 81.45 c -76.50013,-20.979863 -67.07459,80.76 -0.01,80.76 z M 130.4,363.17 c -4.64,-0.7 -9.43,-1.65 -14.28,-3.04 V 203.88 c 5.33,-1.76 10.6,-3.2 15.93,-4.26 5.66022,-1.14854 11.4246,-1.70487 17.2,-1.66 18.54,0 33.89,6.61 46.03,19.82 12.1,13.27 18.17,33.78 18.17,61.59 0,28.71 -6.18,50.02 -18.54,63.93 -12.36,13.9 -28.45,20.82 -48.32,20.82 -6.18,0 -11.56,-0.32 -16.2,-0.95 z m 13.9,-249 c -9.52875,1.45857 -18.94473,3.577 -28.18,6.34 V 0.64 H 0.3 v 422.4 c 19.82,7.52 41.45,13.8 64.84,18.87 23.44,5.11 49.7,7.67 78.79,7.67 26.47,0 50.87,-3.57 73.2,-10.6 22.26,-7.09 41.6,-17.8 57.9,-32.18 16.36,-14.28 29.04,-32.5 38.1,-54.6 9.05,-22.06 13.58,-48.11 13.58,-78.1 0,-22.54 -3.3,-43.69 -9.96,-63.56 -6.6,-19.87 -16.2,-37.08 -28.77,-51.67 -12.57,-14.55 -28.18,-26.05 -46.72,-34.42 -18.54,-8.36 -39.48,-12.57 -62.86,-12.57 -12.84,0 -24.2,0.74 -34.1,2.29 z"
     id="path2"
     inkscape:connector-curvature="0"
     style="clip-rule:evenodd;fill:#000000;fill-rule:evenodd"
     sodipodi:nodetypes="ccccccccccccccccscccsccccccsccccccccccccccscsccccccccscccscccsc" />
</svg>
