<?xml version="1.0" encoding="UTF-8" standalone="no"?>
<svg
   xmlns:dc="http://purl.org/dc/elements/1.1/"
   xmlns:cc="http://creativecommons.org/ns#"
   xmlns:rdf="http://www.w3.org/1999/02/22-rdf-syntax-ns#"
   xmlns:svg="http://www.w3.org/2000/svg"
   xmlns="http://www.w3.org/2000/svg"
   xmlns:sodipodi="http://sodipodi.sourceforge.net/DTD/sodipodi-0.dtd"
   xmlns:inkscape="http://www.inkscape.org/namespaces/inkscape"
   id="Layer_1"
   data-name="Layer 1"
   viewBox="0 0 693.7 407"
   version="1.1"
   sodipodi:docname="Bolt.svg"
   inkscape:version="0.92.3 (2405546, 2018-03-11)">
  <metadata
     id="metadata26">
    <rdf:RDF>
      <cc:Work
         rdf:about="">
        <dc:format>image/svg+xml</dc:format>
        <dc:type
           rdf:resource="http://purl.org/dc/dcmitype/StillImage" />
      </cc:Work>
    </rdf:RDF>
  </metadata>
  <sodipodi:namedview
     pagecolor="#ffffff"
     bordercolor="#666666"
     borderopacity="1"
     objecttolerance="10"
     gridtolerance="10"
     guidetolerance="10"
     inkscape:pageopacity="0"
     inkscape:pageshadow="2"
     inkscape:window-width="1366"
     inkscape:window-height="704"
     id="namedview24"
     showgrid="false"
     inkscape:zoom="0.4771515"
     inkscape:cx="130.98565"
     inkscape:cy="203.5"
     inkscape:window-x="0"
     inkscape:window-y="27"
     inkscape:window-maximized="1"
     inkscape:current-layer="g21" />
  <defs
     id="defs7">
    <style
       id="style2">.cls-1{fill:none;}.cls-2{fill:#56bd82;}.cls-3{clip-path:url(#clip-path);}</style>
    <clipPath
       id="clip-path"
       transform="translate(0 0)">
      <rect
         class="cls-1"
         width="693.7"
         height="407"
         id="rect4" />
    </clipPath>
  </defs>
  <title
     id="title9">bolt_logo</title>
  <polygon
     class="cls-2"
     points="557.6 0 485.6 15.3 485.6 306 557.6 306 557.6 0"
     id="polygon11" />
  <g
     class="cls-3"
     clip-path="url(#clip-path)"
     id="g21">
    <path
       class="cls-2"
       d="M352.6,86.9A111.1,111.1,0,1,0,463.7,198,111.11,111.11,0,0,0,352.6,86.9m0,147.1a36,36,0,1,1,36-36,36,36,0,0,1-36,36"
       transform="translate(0 0)"
       id="path13" />
    <path
       class="cls-2"
       d="M352.6,335a36,36,0,1,1-36,36,36,36,0,0,1,36-36"
       transform="translate(0 0)"
       id="path15" />
  </g>
</svg>
