<?xml version="1.0" encoding="UTF-8" standalone="no"?>
<svg
   xmlns:dc="http://purl.org/dc/elements/1.1/"
   xmlns:cc="http://creativecommons.org/ns#"
   xmlns:rdf="http://www.w3.org/1999/02/22-rdf-syntax-ns#"
   xmlns:svg="http://www.w3.org/2000/svg"
   xmlns="http://www.w3.org/2000/svg"
   xmlns:sodipodi="http://sodipodi.sourceforge.net/DTD/sodipodi-0.dtd"
   xmlns:inkscape="http://www.inkscape.org/namespaces/inkscape"
   viewBox="0 0 1000 1000"
   version="1.1"
   id="svg42"
   sodipodi:docname="Business Day.svg"
   inkscape:version="0.92.3 (2405546, 2018-03-11)">
  <metadata
     id="metadata48">
    <rdf:RDF>
      <cc:Work
         rdf:about="">
        <dc:format>image/svg+xml</dc:format>
        <dc:type
           rdf:resource="http://purl.org/dc/dcmitype/StillImage" />
      </cc:Work>
    </rdf:RDF>
  </metadata>
  <defs
     id="defs46" />
  <sodipodi:namedview
     pagecolor="#ffffff"
     bordercolor="#666666"
     borderopacity="1"
     objecttolerance="10"
     gridtolerance="10"
     guidetolerance="10"
     inkscape:pageopacity="0"
     inkscape:pageshadow="2"
     inkscape:window-width="640"
     inkscape:window-height="480"
     id="namedview44"
     showgrid="false"
     inkscape:zoom="0.3337544"
     inkscape:cx="488.3957"
     inkscape:cy="591.90024"
     inkscape:window-x="0"
     inkscape:window-y="27"
     inkscape:window-maximized="0"
     inkscape:current-layer="svg42" />
  <title
     id="title2">Nigeria-Logo</title>
  <path
     d="M54.3,500.47c1.33-.94,1.59-1.6.26-2.67-8.78-6.78-17.7-13.57-26.35-20.49-3.45-2.79-7.31-5.19-10.51-8.51h-.13v59.61h.13c1.07-.93,2.26-1.86,3.33-2.79,11-8.25,22.09-16.77,33.27-25.15"
     style="fill:#292525"
     id="path4" />
  <path
     d="M987.09,400.8c0-2-.4-2.4-2.4-2.4H15.31c-2,0-2.4.4-2.4,2.4v45h0v113.1h0V599.2c0,2,.4,2.4,2.4,2.4H984.56c2,0,2.39-.4,2.39-2.4.14-66.27.14-132.27.14-198.4m-4.66,193.48c0,2.13-.53,2.66-2.66,2.66H20.23c-2.39,0-2.66-.8-2.66-2.8V528.68h-.13V469.06h.13v-63.2c0-2.13.53-2.67,2.66-2.67H979.77c2.13,0,2.66.4,2.66,2.67V594.28"
     style="fill:#fff"
     id="path6" />
  <path
     d="m 680.77,415.7 c 0,-3.46 0,-3.46 -3.33,-3.46 H 34.74 c -0.93202,0.07 -1.86798,0.07 -2.8,0 -1.46,-0.13 -1.86,0.54 -1.86,1.87 v 50.83 c -0.106377,0.92997 0.299278,1.8446 1.06,2.39 4.66,3.6 9.32,7.32 14,10.91 8.86,6.92 17.8,13.76 26.72,20.63 -2.39,1.86 -4.52,3.72 -6.79,5.45 -10.91,8.25 -21.95,16.5 -32.86,24.75 -1.33,1.07 -2.27,2.13 -2.13,4.13 0.13,16.23 0.13,32.6 0,48.84 0,2.52 0.53,3.32 3.32,3.32 214.76667,-0.13333 429.58,-0.13333 644.44,0 2.53,0 3.06,-0.66 3.06,-3.06 -0.13,-55.35 -0.13,-111 -0.13,-166.6 M 121.63,541.18 c -5.06,6.26 -12,8.92 -19.7,9.32 -3.070151,0.15273 -6.147826,-0.0249 -9.18,-0.53 -7.58,-1.07 -15,-0.14 -22.62,0.13 h -2.26 l -1.33,-1.33 c -0.139889,-0.80768 0.394495,-1.57808 1.2,-1.73 H 68 c 2,-0.13 4.13,0.26 5.46,-1.6 1.59,-2.13 1.73,-4.79 1.73,-7.32 0.26,-6.52 0.393333,-13.04 0.4,-19.56 v -58.28 c 0,-1.73 -0.14,-3.59 -0.27,-5.32 -0.27,-3.86 -2,-5.59 -5.85,-6.26 l -3.07,-0.4 c -0.79,0 -1.59,-0.26 -1.59,-1.19 0,-0.93 0.8,-1.47 1.73,-1.47 h 8.25 c 1.59,0 3.06,0.14 4.66,0.14 h 4.65 c 6.52,0 13.18,-0.8 19.7,0.26 13.3,2 18,12.51 17,22.49 -0.67,8 -4.39,14.64 -10.11,20.09 -1.47,1.33 -1.73,1.87 0.39,2.93 20.36,10.91 21.83,35.8 10.52,49.63"
     style="fill:#ea2127"
     id="path8"
     inkscape:connector-curvature="0"
     sodipodi:nodetypes="csccscccccccccccccccccccccccscccsssssccccc" />
  <path
     d="M 971.12,412.24 H 689.69 c -3.33,0 -3.33,0 -3.33,3.33 V 582 c 0,3.32 0,3.32 3.33,3.32 h 281.56 c 3.33,0 3.33,0 3.33,-3.32 V 415.84 c 0.13,-3.6 0.13,-3.6 -3.46,-3.6 M 751.56,550.63 c -8.91,1.2 -17.83,0 -26.61,-0.8 -4.16595,-0.26002 -8.34405,-0.26002 -12.51,0 -2.26,0.14 -4.66,0.14 -6.92,0.27 -1.06,0 -2.13,0 -2.13,-1.46 0,-1.46 1.07,-1.47 2,-1.47 5.59,0.13 6.38,-2.26 6.78,-7.45 0.4,-5.19 0.54,-10.25 0.54,-15.44 v -67.06 c -0.27,-6.25 -2.13,-8.25 -8.25,-8.65 l -1.6,-0.13 -1.33,-1.33 c 0,-0.8 0.66,-1.2 1.33,-1.33 l 2.26,-0.14 c 6.92,-0.13 13.84,0.8 21.16,0.14 10.11,0 20.76,-0.67 31.14,1.06 17,2.93 28.07,12.77 32.86,29.27 5.73,19.17 4.13,37.8 -6.52,55.09 -7.32,11.85 -18.76,17.44 -32.2,19.43"
     style="fill:#292525"
     id="path10"
     inkscape:connector-curvature="0"
     sodipodi:nodetypes="cssssssccccccscssccccccccccc" />
  <path
     d="M111,491.68c-2-1.06-1.86-1.59-.4-2.92,5.72-5.46,9.45-12.11,10.12-20.1.79-10-3.73-20.49-17-22.49-6.52-.93-13.17-.13-19.69-.26H79.31c-1.59,0-3.06-.13-4.66-.13H66.4c-.93,0-1.73.39-1.73,1.46s.8,1.2,1.6,1.2a22.68,22.68,0,0,1,3.06.4c3.86.53,5.46,2.39,5.86,6.25.13,1.73.26,3.59.26,5.32,0,19.43.14,38.86,0,58.29,0,6.52-.26,13-.4,19.56-.13,2.52-.13,5.19-1.73,7.32-1.33,1.86-3.46,1.46-5.45,1.59H67.6c-.8.27-1.33.67-1.2,1.73l1.34,1.33H70c7.58-.13,15-1.2,22.49-.13a53.37,53.37,0,0,0,9.18.53c7.85-.53,14.63-3.19,19.69-9.31,11.58-14,10.11-38.86-10.38-49.64M92.49,452c4.79-.53,9,.8,11.57,4.92,5.46,8.79,6.39,18.1,1.73,27.55-2.39,4.79-10.51,7.18-15.3,4.92-1.2-.53-.93-1.46-.93-2.39V470.79c0-5.19.13-10.51,0-15.7,0-2.13.93-2.79,2.93-3.06m19.42,84.76c-4,8.52-13.57,8.39-19,5.06a5.82,5.82,0,0,1-2.66-4.39,42.5,42.5,0,0,1-.53-8.25V498.6c0-2.13.67-2.53,2.66-2.66,7.19-.53,12.24,2.8,16.1,8.52,4.13,6.12,5.73,12.77,6.12,19.69-.39,4.66-.79,8.78-2.66,12.64"
     style="fill:#fff"
     id="path14" />
  <path
     d="M790.28,476.11c-4.79-16.36-15.83-26.34-32.86-29.27-10.52-1.73-21-1.06-31.14-1.06-7.32.66-14.24-.27-21.16-.14l-2.26.14c-.67.13-1.33.39-1.33,1.19l1.33,1.33,1.6.14c6.25.53,8.11,2.53,8.25,8.65v67.06c0,5.19-.14,10.25-.54,15.44s-1.19,7.58-6.78,7.45c-.93,0-2,.26-2,1.46,0,1.47,1.07,1.6,2.13,1.47,2.26,0,4.66-.14,6.92-.27a96.71,96.71,0,0,1,12.51,0c8.91.67,17.7,2,26.61.8,13.44-1.86,24.88-7.45,32.2-19.43,10.65-17.16,12.11-35.79,6.52-55m-17,49.64c-4.39,11.44-13.57,17.16-25.68,18a34.3,34.3,0,0,1-12.24-.93c-5.19-1.6-6.92-4-7.32-9.45-.8-12.64-.4-25.28-.4-32.2V458c0-4,.66-4.79,4.66-5.19,20.09-1.73,36.72,8.12,42.18,27.28,4.39,15.43,4.52,30.73-1.2,45.64"
     style="fill:#fcfdff"
     id="path28" />
  <path
     d="M92.22,496.07c-2,.14-2.66.54-2.66,2.67.13,10.24,0,20.35,0,30.6a43.12,43.12,0,0,0,.53,8.25c.4,1.86,1.06,3.46,2.66,4.39,5.46,3.33,15,3.46,19-5.05,1.86-3.86,2.4-8,2.53-12.51a37.32,37.32,0,0,0-6.12-19.7c-3.73-5.85-8.78-9.18-16-8.65"
     style="fill:#ea2127"
     id="path34" />
  <path
     d="M89.69,470.93v16.23c0,.93-.26,1.86.93,2.39,4.79,2.27,12.91-.13,15.31-4.92,4.52-9.45,3.72-18.76-1.73-27.54-2.53-4.13-6.79-5.46-11.58-4.93-2.13.27-2.93.93-2.93,3.2.13,5.05,0,10.38,0,15.57"
     style="fill:#ea2127"
     id="path36" />
  <path
     d="M732.27,453c-4,.4-4.66,1.2-4.66,5.19v43.11c.13,6.79-.4,19.56.4,32.21.26,5.45,2.13,7.85,7.32,9.44,4,1.33,8.11,1.2,12.24.94,12.11-.8,21.29-6.52,25.68-18,5.72-14.9,5.59-30.34,1.2-45.51C769,461.08,752.36,451.23,732.27,453"
     style="fill:#292525"
     id="path38" />
</svg>
