<?xml version="1.0" encoding="UTF-8" standalone="no"?>
<svg
   xmlns:dc="http://purl.org/dc/elements/1.1/"
   xmlns:cc="http://creativecommons.org/ns#"
   xmlns:rdf="http://www.w3.org/1999/02/22-rdf-syntax-ns#"
   xmlns:svg="http://www.w3.org/2000/svg"
   xmlns="http://www.w3.org/2000/svg"
   xmlns:sodipodi="http://sodipodi.sourceforge.net/DTD/sodipodi-0.dtd"
   xmlns:inkscape="http://www.inkscape.org/namespaces/inkscape"
   width="275"
   height="94"
   viewBox="0 0 275 94"
   fill="none"
   version="1.1"
   id="svg20"
   sodipodi:docname="Cool FM.svg"
   inkscape:version="0.92.3 (2405546, 2018-03-11)">
  <metadata
     id="metadata26">
    <rdf:RDF>
      <cc:Work
         rdf:about="">
        <dc:format>image/svg+xml</dc:format>
        <dc:type
           rdf:resource="http://purl.org/dc/dcmitype/StillImage" />
      </cc:Work>
    </rdf:RDF>
  </metadata>
  <defs
     id="defs24" />
  <sodipodi:namedview
     pagecolor="#ffffff"
     bordercolor="#666666"
     borderopacity="1"
     objecttolerance="10"
     gridtolerance="10"
     guidetolerance="10"
     inkscape:pageopacity="0"
     inkscape:pageshadow="2"
     inkscape:window-width="640"
     inkscape:window-height="480"
     id="namedview22"
     showgrid="false"
     inkscape:zoom="1.2036364"
     inkscape:cx="122.96073"
     inkscape:cy="47"
     inkscape:window-x="0"
     inkscape:window-y="27"
     inkscape:window-maximized="0"
     inkscape:current-layer="svg20" />
  <path
     d="M263.68 93.7134C255.473 89.2188 247.07 85.8967 238.472 82.9655C220.298 77.2984 201.734 75.7351 182.974 76.9076C165.777 78.0801 148.971 81.793 132.556 86.2876C116.141 90.5867 99.3357 93.1271 82.53 92.5409C62.793 92.15 44.033 87.6555 27.6181 76.3214C17.0657 69.091 8.66279 59.711 2.80032 48.3769C2.01866 47.009 1.62782 45.4457 0.846161 43.8823C1.82324 43.4915 1.82324 44.2732 2.01866 44.664C14.3299 62.056 31.5264 71.8268 52.2405 76.126C68.8509 79.448 85.4612 78.6664 102.072 75.9305C113.601 73.9764 124.935 70.4589 136.465 67.7231C154.638 63.6193 173.007 61.6652 191.572 63.4239C217.953 65.9643 241.794 74.9535 262.508 92.15C262.899 92.5409 263.29 92.9317 263.68 93.3225C263.68 93.1271 263.68 93.3225 263.68 93.7134Z"
     fill="#0054B4"
     id="path2" />
  <path
     d="M249.415 45.8365C249.415 45.2502 249.415 44.664 249.415 43.8823C249.22 40.7557 250.588 38.6061 253.128 37.2382C255.668 35.8703 258.404 36.0657 260.749 38.0199C261.531 38.6061 261.922 38.4107 262.703 37.8244C265.048 36.0657 267.589 35.8703 270.129 37.2382C272.67 38.6061 274.037 40.9511 274.037 43.8823C274.037 45.6411 274.037 47.2044 274.037 48.9631C274.037 50.3311 273.451 50.3311 272.474 49.9402C271.106 49.354 270.52 48.3769 270.52 46.8136C270.52 45.6411 270.52 44.4686 270.52 43.4915C270.52 41.3419 269.152 39.974 267.198 39.7786C265.244 39.5832 263.68 41.1465 263.68 43.2961C263.485 45.2502 263.68 47.2044 263.68 48.9631C263.68 50.1356 263.29 50.1356 262.313 49.9402C260.945 49.5494 260.163 48.5723 260.163 47.009C260.163 45.6411 260.163 44.2732 259.968 42.9053C259.772 40.9511 258.209 39.5832 256.645 39.5832C254.691 39.5832 253.323 40.9511 253.323 42.9053C253.323 44.0778 253.323 45.2502 253.323 46.2273C253.323 47.3998 252.933 48.1815 252.151 48.9631C251.565 49.354 250.978 49.9402 250.197 49.7448C249.22 49.354 249.806 48.5723 249.806 47.9861C249.415 47.5952 249.415 46.6182 249.415 45.8365Z"
     fill="#0054B4"
     id="path10" />
  <path
     d="M237.495 45.8365C237.495 44.8594 237.495 44.0777 237.495 43.2961C237.69 39.5832 240.426 36.8474 243.943 36.4565C244.92 36.4565 245.898 36.2611 246.679 36.4565C247.265 36.4565 248.243 36.0657 248.438 36.8474C248.633 37.629 248.243 38.2153 247.656 38.8015C246.875 39.5832 245.898 39.5832 245.116 39.7786C241.989 39.974 241.012 40.9511 240.817 44.2732C240.817 45.4457 240.817 46.2273 240.817 47.3998C240.817 48.3769 240.426 49.1586 239.644 49.7448C239.058 50.1356 238.276 50.7219 237.69 50.331C237.104 49.9402 237.299 49.1586 237.299 48.5723C237.495 47.5952 237.495 46.6181 237.495 45.8365Z"
     fill="#0054B4"
     id="path12" />
  <path
     d="M245.702 41.7328C246.093 41.7328 246.288 41.7328 246.875 41.7328C247.461 41.9282 248.633 41.3419 248.829 42.1236C249.024 42.9053 248.438 43.8823 247.656 44.4686C246.093 45.4457 244.334 45.2502 242.771 44.8594C241.989 44.664 241.989 43.8823 241.989 43.1007C242.185 42.319 242.575 41.9282 243.357 41.9282C244.139 41.5373 244.921 41.7328 245.702 41.7328Z"
     fill="#0054B4"
     id="path14" />
  <path
     d="M167.34 54.4348C168.318 55.2164 169.295 54.4348 170.272 54.8256C169.099 55.2164 167.731 55.021 166.168 55.2164C166.559 54.6302 166.754 54.4348 167.34 54.4348Z"
     fill="#FE0000"
     id="path16" />
</svg>
