<?xml version="1.0" encoding="UTF-8" standalone="no"?>
<svg
   xmlns:dc="http://purl.org/dc/elements/1.1/"
   xmlns:cc="http://creativecommons.org/ns#"
   xmlns:rdf="http://www.w3.org/1999/02/22-rdf-syntax-ns#"
   xmlns:svg="http://www.w3.org/2000/svg"
   xmlns="http://www.w3.org/2000/svg"
   xmlns:sodipodi="http://sodipodi.sourceforge.net/DTD/sodipodi-0.dtd"
   xmlns:inkscape="http://www.inkscape.org/namespaces/inkscape"
   width="2725"
   height="503"
   viewBox="0 0 2725 503"
   version="1.1"
   id="svg4"
   sodipodi:docname="Cowrywise.svg"
   inkscape:version="0.92.3 (2405546, 2018-03-11)">
  <metadata
     id="metadata10">
    <rdf:RDF>
      <cc:Work
         rdf:about="">
        <dc:format>image/svg+xml</dc:format>
        <dc:type
           rdf:resource="http://purl.org/dc/dcmitype/StillImage" />
      </cc:Work>
    </rdf:RDF>
  </metadata>
  <defs
     id="defs8" />
  <sodipodi:namedview
     pagecolor="#ffffff"
     bordercolor="#666666"
     borderopacity="1"
     objecttolerance="10"
     gridtolerance="10"
     guidetolerance="10"
     inkscape:pageopacity="0"
     inkscape:pageshadow="2"
     inkscape:window-width="640"
     inkscape:window-height="480"
     id="namedview6"
     showgrid="false"
     inkscape:zoom="0.12146789"
     inkscape:cx="1218.429"
     inkscape:cy="251.5"
     inkscape:window-x="0"
     inkscape:window-y="27"
     inkscape:window-maximized="0"
     inkscape:current-layer="svg4" />
  <path
     d="m 1214.6775,8.2326284 h -140.93 l -0.27,0.49 -19.45,35.4299996 h 160.65 c 119,0 215.53,96.500002 215.53,215.540002 0,119.04 -96.5,215.54 -215.53,215.54 -119.03,0 -215.53998,-96.51 -215.53998,-215.54 -0.01,-22.51739 3.51648,-44.89665 10.44998,-66.32 h 41.15 c -29.1708,72.08523 -7.8307,154.76751 52.5825,203.73134 60.4133,48.96384 145.7224,52.71888 210.2042,9.25253 64.4817,-43.46635 93.004,-123.95384 70.2797,-198.32333 -22.7243,-74.36948 -91.3625,-125.168669 -169.1264,-125.170542 h -181.89 l -19.71,35.910002 h 201.6 c 63.3297,0.0129 118.8698,42.2764 135.7648,103.3109 16.895,61.0345 -9.0067,125.84198 -63.3153,158.41842 -54.3086,32.57644 -123.6789,24.91684 -169.572,-18.7235 -45.893,-43.64033 -57.0315,-112.53766 -27.2275,-168.41582 h 46.62 c -31.1178,36.52995 -32.6231,89.79205 -3.618,128.02116 29.005,38.22911 80.7046,51.12383 124.2654,30.99385 43.5608,-20.12998 67.2447,-67.86035 56.9269,-114.72506 -10.3179,-46.8647 -51.8572,-80.23536 -99.8443,-80.20995 H 991.83752 l -19.72,35.93 c -5.90284,21.61249 -8.89591,43.91591 -8.9,66.32 0,138.87 112.57998,251.46 251.45998,251.46 138.88,0 251.46,-112.59 251.46,-251.46 0,-138.87 -112.59,-251.4600016 -251.46,-251.4600016 z m 0,185.1400016 c 36.6276,0 66.32,29.69247 66.32,66.32 0,36.62753 -29.6924,66.32 -66.32,66.32 -36.6275,0 -66.32,-29.69247 -66.32,-66.32 0,-36.62753 29.6925,-66.32 66.32,-66.32 z"
     id="path2"
     inkscape:connector-curvature="0"
     style="fill:#0066f5"
     sodipodi:nodetypes="scccssscccsssccccsssccsssccccssssssss" />
</svg>
