<?xml version="1.0" encoding="UTF-8" standalone="no"?>
<svg
   xmlns:dc="http://purl.org/dc/elements/1.1/"
   xmlns:cc="http://creativecommons.org/ns#"
   xmlns:rdf="http://www.w3.org/1999/02/22-rdf-syntax-ns#"
   xmlns:svg="http://www.w3.org/2000/svg"
   xmlns="http://www.w3.org/2000/svg"
   xmlns:sodipodi="http://sodipodi.sourceforge.net/DTD/sodipodi-0.dtd"
   xmlns:inkscape="http://www.inkscape.org/namespaces/inkscape"
   width="510.164"
   height="121.77"
   viewBox="0 0 5314 1268"
   shape-rendering="geometricPrecision"
   text-rendering="geometricPrecision"
   image-rendering="optimizeQuality"
   fill-rule="evenodd"
   clip-rule="evenodd"
   version="1.1"
   id="svg13"
   sodipodi:docname="Decagon.svg"
   inkscape:version="0.92.3 (2405546, 2018-03-11)">
  <metadata
     id="metadata17">
    <rdf:RDF>
      <cc:Work
         rdf:about="">
        <dc:format>image/svg+xml</dc:format>
        <dc:type
           rdf:resource="http://purl.org/dc/dcmitype/StillImage" />
      </cc:Work>
    </rdf:RDF>
  </metadata>
  <sodipodi:namedview
     pagecolor="#ffffff"
     bordercolor="#666666"
     borderopacity="1"
     objecttolerance="10"
     gridtolerance="10"
     guidetolerance="10"
     inkscape:pageopacity="0"
     inkscape:pageshadow="2"
     inkscape:window-width="640"
     inkscape:window-height="480"
     id="namedview15"
     showgrid="false"
     inkscape:zoom="0.64881097"
     inkscape:cx="228.10958"
     inkscape:cy="60.884998"
     inkscape:window-x="0"
     inkscape:window-y="27"
     inkscape:window-maximized="0"
     inkscape:current-layer="Layer_x0020_1" />
  <defs
     id="defs4">
    <style
       id="style2">.fil1{fill:#b8d344}</style>
  </defs>
  <g
     id="Layer_x0020_1">
    <path
       class="fil1"
       d="m 2432.2145,299 c 29,0 58,3 87,9 l -35,96 c -16,-2 -33,-3 -50,-3 -43,0 -84,7 -123,21 l -16,-102 c 43,-14 89,-21 137,-21 z m -54,638 c -15,-26 -27,-53 -36,-80 l 101,-18 c 6,15 13,30 22,44 21,38 48,70 79,96 l -79,65 c -34,-30 -63,-66 -87,-107 z m 823,-169 c -3,22 -7,43 -12,64 l -44,-19 c 5,-18 10,-36 13,-54 z m -60,175 c -13,23 -29,44 -47,64 l -42,-45 c 16,-15 30,-32 43,-50 z m -124,133 c -11,8 -22,16 -34,23 -21,12 -43,22 -65,30 l -20,-75 c 26,-8 53,-19 78,-34 4,-2 7,-4 11,-6 z m -179,75 c -46,8 -93,9 -139,2 l 29,-88 c 37,7 76,7 115,2 z m -189,-8 38,-87 c -43,-12 -84,-32 -120,-59 l -69,74 c 45,34 97,58 151,72 z m -483,-47 c -17,-13 -34,-27 -49,-43 l 38,-28 c 13,14 26,27 41,39 z m -122,-139 c -12,-23 -23,-48 -32,-73 l 60,-14 c 6,21 13,42 22,62 z m -53,-174 c -2,-14 -2,-27 -2,-41 0,-25 2,-48 6,-72 l 75,20 c -7,27 -10,56 -10,85 v 12 z m 25,-193 c 16,-44 39,-85 67,-121 l 62,68 c -24,30 -44,63 -59,100 z m 101,-160 56,77 c 32,-31 70,-57 111,-75 l -29,-96 c -52,22 -99,54 -138,94 z m 840,234 c -15,26 -32,50 -51,71 l -66,-78 c 10,-13 19,-27 27,-41 22,-38 36,-77 44,-117 l 96,36 c -10,45 -26,88 -50,129 z m -557,-628 c 20,-9 40,-16 61,-21 l 5,47 c -18,4 -36,9 -53,16 z m 181,-36 c 26,0 53,3 79,8 l -18,59 c -21,-6 -43,-9 -65,-11 z m 177,40 c 13,6 25,12 37,19 21,12 41,26 59,41 l -55,55 c -20,-19 -43,-36 -69,-51 -3,-2 -7,-4 -10,-6 z m 155,118 c 30,36 54,77 71,119 l -90,20 c -14,-36 -33,-70 -57,-101 z m 88,168 c 14,54 19,111 12,167 l -98,-23 c 5,-45 2,-90 -9,-133 z"
       id="path8"
       inkscape:connector-curvature="0"
       style="fill:#b8d344" />
    <path
       d="m 2221.2145,602 c 15,-25 32,-49 51,-71 l 66,78 c -10,13 -19,27 -28,42 -21,37 -36,77 -43,117 l -96,-37 c 10,-44 26,-88 50,-129 z m 579,-272 c 15,26 26,52 36,80 l -101,18 c -6,-15 -14,-30 -22,-45 -22,-37 -49,-69 -80,-96 l 80,-64 c 33,30 63,66 87,107 z m -823,168 c 2,-21 6,-42 12,-63 l 44,19 c -6,17 -10,35 -13,54 z m 60,-175 c 13,-22 29,-44 46,-64 l 42,45 c -15,16 -30,33 -42,50 z m 123,-133 c 11,-8 23,-15 35,-22 21,-12 42,-23 64,-31 l 21,75 c -27,8 -53,19 -79,34 -3,2 -7,4 -10,6 z m 180,-75 c 46,-8 93,-9 139,-2 l -29,88 c -38,-6 -77,-7 -115,-1 z m 189,8 -38,87 c 43,12 83,32 120,59 l 69,-74 c -46,-33 -97,-58 -151,-72 z m 217,844 c -30,0 -59,-3 -87,-8 l 35,-97 c 16,2 33,4 49,4 44,0 85,-8 124,-21 l 15,101 c -43,14 -88,21 -136,21 z m 266,-796 c 17,13 33,27 48,42 l -38,29 c -12,-14 -26,-27 -40,-39 z m 121,139 c 13,23 24,47 33,72 l -60,14 c -6,-21 -14,-42 -23,-62 z m 54,174 c 1,13 2,27 2,41 0,24 -2,48 -6,71 l -75,-20 c 6,-27 10,-55 10,-85 0,-4 0,-8 -1,-12 z m -25,193 c -16,44 -39,85 -67,121 l -63,-69 c 25,-30 45,-63 59,-99 z m -102,159 -56,-76 c -32,31 -69,56 -111,74 l 30,97 c 52,-23 98,-55 137,-95 z m -282,395 c -20,8 -40,15 -61,21 l -6,-48 c 18,-3 36,-9 54,-15 z m -181,35 c -27,0 -53,-3 -79,-8 l 18,-59 c 21,6 43,10 64,12 z m -178,-40 c -12,-6 -24,-12 -36,-19 -21,-12 -41,-26 -59,-41 l 54,-55 c 21,19 44,37 69,51 4,2 7,4 11,6 z m -154,-118 c -31,-36 -54,-76 -72,-119 l 91,-20 c 13,36 32,70 57,101 z m -88,-168 c -15,-54 -19,-110 -13,-167 l 98,23 c -5,45 -1,90 10,134 z"
       id="path10"
       inkscape:connector-curvature="0"
       style="fill:#34a853" />
  </g>
</svg>
