<?xml version="1.0" encoding="UTF-8" standalone="no"?>
<svg
   xmlns:dc="http://purl.org/dc/elements/1.1/"
   xmlns:cc="http://creativecommons.org/ns#"
   xmlns:rdf="http://www.w3.org/1999/02/22-rdf-syntax-ns#"
   xmlns:svg="http://www.w3.org/2000/svg"
   xmlns="http://www.w3.org/2000/svg"
   xmlns:sodipodi="http://sodipodi.sourceforge.net/DTD/sodipodi-0.dtd"
   xmlns:inkscape="http://www.inkscape.org/namespaces/inkscape"
   width="571"
   height="164"
   viewBox="0 0 571 164"
   version="1.1"
   id="svg28"
   sodipodi:docname="eHealth Africa.svg"
   inkscape:version="0.92.3 (2405546, 2018-03-11)">
  <metadata
     id="metadata34">
    <rdf:RDF>
      <cc:Work
         rdf:about="">
        <dc:format>image/svg+xml</dc:format>
        <dc:type
           rdf:resource="http://purl.org/dc/dcmitype/StillImage" />
      </cc:Work>
    </rdf:RDF>
  </metadata>
  <defs
     id="defs32" />
  <sodipodi:namedview
     pagecolor="#ffffff"
     bordercolor="#666666"
     borderopacity="1"
     objecttolerance="10"
     gridtolerance="10"
     guidetolerance="10"
     inkscape:pageopacity="0"
     inkscape:pageshadow="2"
     inkscape:window-width="640"
     inkscape:window-height="480"
     id="namedview30"
     showgrid="false"
     inkscape:zoom="0.57968476"
     inkscape:cx="255.31118"
     inkscape:cy="82"
     inkscape:window-x="0"
     inkscape:window-y="27"
     inkscape:window-maximized="0"
     inkscape:current-layer="g26" />
  <g
     fill="#0090FC"
     id="g26">
    <path
       d="m 342.12785,90.87 h -41.13 -0.08 l -0.21,0.22 0.11,0.18 -0.6,0.21 -0.33,0.45 h -0.48 l -0.22,0.07 v 0.13 l -0.25,0.29 v 0.21 l 0.12,0.09 -0.3,0.45 -0.28,0.36 V 94 l -0.26,0.56 -0.64,0.93 -0.38,0.16 h -0.22 l 0.09,0.1 v 0.27 l -0.12,0.18 -0.38,1.17 -0.29,0.74 v 0.41 l 0.5,0.43 0.37,0.42 h 0.24 l 0.23,0.65 -0.1,0.21 -0.15,-0.05 -0.21,0.14 -0.11,0.43 v 0.65 l 0.26,0.26 v 0.42 l -0.24,0.2 0.06,0.39 0.19,0.47 h -0.1 l 0.11,0.22 0.07,0.34 0.21,0.18 -0.18,0.29 0.17,0.2 0.18,0.53 -0.06,0.27 0.63,0.6 0.46,0.07 0.38,0.32 v 0.18 l 0.13,0.08 -0.06,0.42 -0.1,0.21 0.1,0.08 -0.37,0.52 v 0.19 l 0.07,0.13 v 0.11 l -0.14,0.13 0.08,0.63 0.2,0.38 -0.1,0.11 v 0.45 l 0.1,0.11 v 0.44 l -0.19,0.18 0.07,0.47 -0.13,0.88 h -0.07 l 0.1,0.15 v 0.79 h -0.27 v 0.1 l 0.09,0.13 h 0.35 l 0.1,0.08 0.08,0.68 -0.18,0.26 -0.19,0.1 0.11,0.16 v 0.17 h -0.23 l -0.25,0.26 0.07,0.09 0.08,-0.07 h 0.22 l -0.16,0.23 v 0.36 h -0.22 l -0.39,0.49 v 0.22 l -0.35,0.48 h -0.29 v 0.33 l -1.18,0.64 h -0.17 l -0.09,0.25 -1.13,0.6 h -0.43 v 0.09 l -0.52,0.24 -0.71,0.47 -0.17,-0.12 v 0.22 l -0.43,0.53 -0.22,0.1 -0.12,-0.29 -0.08,0.46 -0.2,0.06 -0.07,0.26 -0.71,0.43 v 0.18 l -0.18,0.16 -0.17,0.05 v 0.25 h -0.46 l -1,0.63 v 0.4 l -0.31,0.23 h -0.42 l -0.18,0.23 -0.33,-0.21 h -0.19 V 123 l 0.17,0.2 v 0.28 l -0.13,0.18 v 0.26 l -0.19,0.28 0.51,0.69 v 0.24 l -0.22,0.18 0.17,0.08 0.19,0.31 v 0.42 l 0.21,0.39 -0.09,1.1 0.1,0.39 h 0.13 v -0.31 l 0.2,-0.42 v 0.37 h 0.08 v 0.48 l -0.14,0.18 v 0.48 l 0.08,0.07 -0.21,0.56 v 0.3 l -0.16,0.2 v 0.36 h -0.1 l 0.07,0.31 0.27,-0.16 0.06,0.2 -0.22,0.33 -0.11,0.46 -0.64,0.68 -1.15,0.52 -1.55,0.31 -0.6,0.57 -0.45,0.11 -0.14,0.21 -0.22,0.18 -0.13,0.44 h -0.18 l -0.17,0.11 0.08,0.1 0.17,0.32 v 0.32 l 0.16,-0.21 0.25,0.08 0.08,-0.3 h 0.12 V 135 l -0.07,0.5 -0.18,0.29 v 0.36 l -0.21,0.28 h 0.1 l -0.21,0.64 -0.06,0.55 -0.26,0.53 -0.17,0.68 -0.26,0.31 -0.08,0.31 -0.47,0.55 h -0.16 l -0.1,0.15 -0.36,0.17 -0.17,0.2 -0.43,0.28 -0.21,0.42 -0.35,0.4 v 0.17 l -0.2,0.38 h -0.34 l -0.27,0.52 -0.7,1.31 -0.57,0.53 -0.09,0.5 -0.33,0.14 -0.31,0.37 h -0.18 l -0.08,0.14 -1.85,1.82 h -0.22 v 0.09 l -0.3,0.34 -1.21,0.78 -0.26,0.28 -0.43,0.13 v 0.11 l -0.68,0.18 -0.38,0.24 h -0.4 l -0.2,-0.15 h -0.54 l -0.44,0.14 -0.19,0.32 0.26,0.22 v 0.1 h -0.62 l -0.36,-0.18 h -0.29 l -0.25,0.25 0.11,0.22 -0.11,0.11 -0.85,-0.18 -0.24,-0.19 -0.82,-0.2 -0.53,0.1 v 0.13 l -0.28,0.1 -0.41,-0.22 h -0.95 l -0.28,0.13 -0.08,0.3 -0.19,-0.09 -0.22,0.06 -0.2,0.16 -0.1,0.14 h -0.42 l -0.28,0.12 -0.52,-0.19 -0.42,0.15 -0.08,0.12 -0.43,-0.09 -0.38,0.43 -0.32,0.06 -0.11,0.26 -0.19,-0.07 -0.17,0.08 -0.88,-0.41 -0.18,0.1 v -0.42 l -0.33,-0.18 -0.26,0.13 -0.16,-0.07 0.14,-0.12 -0.09,-0.37 -0.41,-0.07 -0.3,0.26 v 0.32 l -0.22,-0.17 v -0.36 l 0.12,-0.3 -0.08,-0.44 0.24,-0.4 -0.31,-0.56 -0.31,-0.28 -0.29,-0.45 v -0.46 l 0.19,-0.17 0.17,0.18 h 0.16 l 0.21,-0.23 0.1,-0.54 -0.19,-0.6 v -0.27 l -0.5,-0.84 v -0.39 l -0.49,-0.64 -0.23,-1 -0.42,-1.04 v -0.5 l -0.38,-1.08 -0.57,-0.42 -0.1,-0.57 -0.6,-0.43 -0.1,-0.25 -0.42,-0.42 -0.43,-0.85 -0.32,-0.44 v -0.68 l -0.28,-0.31 v -0.36 l 0.19,-0.14 -0.16,-0.32 -0.24,-0.13 -0.13,-0.92 -0.21,-0.27 0.25,-0.16 -0.16,-0.51 0.06,-0.75 -0.53,-1.39 v -1.36 l -0.25,-0.91 0.22,-0.1 V 128 l -0.93,-1.35 v -0.5 l -0.89,-1.26 -0.13,-0.79 -0.88,-2 -0.56,-1 -1,-1.07 -0.1,-1.51 v -0.18 l 0.08,-0.56 v -0.86 l 0.08,-0.56 v -0.64 l 0.49,-0.59 0.1,-0.67 0.43,-0.57 v -1.42 l 0.16,-0.13 v -0.59 l 1,-0.86 v -0.43 l 0.78,-0.59 h 0.21 l 0.7,-1.31 v -1.55 l -0.22,-0.27 v -0.29 l -0.67,-1.1 v -0.46 l -0.27,-0.43 v -0.64 l -0.32,-0.16 0.56,-0.72 0.08,-0.7 -0.53,-0.75 v -1.38 l -1,-1.1 v -0.25 l -0.19,-0.23 0.51,-0.28 -0.33,-0.11 h -0.51 l -0.09,-0.21 -0.09,-0.21 0.2,-0.37 -0.12,-0.51 -0.22,-0.23 -0.2,-0.23 0.03,-0.38 -0.28,-0.31 v -0.32 l -0.53,-0.34 -0.19,-0.19 -0.35,-0.34 -0.08,-0.08 -0.31,-0.12 -0.02,-0.3 -0.64,-0.31 -0.17,-0.39 -0.8,-0.64 -0.48,-0.51 0.13,-0.09 -0.45,-0.38 -0.19,-0.41 -0.27,-0.27 v -0.54 l -0.32,-0.41 v -0.28 l -0.2,-0.16 -0.37,-0.78 v -0.18 l 0.43,0.14 0.34,-0.28 0.08,-1 0.05,-0.49 0.2,0.2 0.78,-0.19 -0.55,-0.13 -0.35,-0.56 0.38,-0.06 v -0.42 -0.1 l -0.44,-0.23 0.44,-0.84 0.56,-0.63 -0.13,-0.31 0.07,-0.07 0.28,-0.27 -0.26,-0.27 0.24,-0.62 -0.06,-0.68 -0.32,-0.45 v -0.5 l 0.12,-0.23 -0.27,-0.42 -0.52,0.22 -0.16,-0.18 h -0.31 l -0.21,-1.09 -0.28,0.15 -0.24,-0.11 -0.13,0.08 -0.3,-0.31 -0.18,0.5 -0.45,0.09 -0.29,-0.17 -0.82,0.3 -0.18,-0.11 -0.35,0.21 -1.71,0.1 -0.64,-0.18 -0.46,-0.41 -0.2,-0.62 -0.24,-0.12 V 78 l -0.44,-0.86 -0.72,-0.7 -1.3,-0.69 -0.56,0.23 -0.69,-0.14 h -0.07 l -1.22,0.41 -0.63,-0.08 h -0.19 l -0.95,0.59 h -0.15 l -1,0.12 -0.84,0.41 -0.92,0.77 -1.07,0.1 -1.53,0.73 -0.69,-0.31 -1,-0.13 -0.09,-0.16 -0.25,-0.47 -0.34,0.08 -0.08,0.44 -0.77,-0.34 -0.89,0.29 h -2.34 l -0.67,0.09 v 0.18 l -1.23,0.44 -0.13,0.18 h -0.39 l -0.62,0.53 -0.16,-0.06 -1.75,-0.65 -1.35,-1 h -0.37 l -1.1,-1.1 h -0.08 l -0.66,-0.44 h -0.27 l -0.45,-0.65 -0.29,-0.13 0.13,-0.25 h -0.05 l -0.23,-0.26 h -0.67 l -0.94,-0.49 -0.4,-0.1 0.1,-0.22 -0.26,-0.28 -0.22,-0.22 0.15,-0.3 v -0.08 l -0.36,0.13 -0.4,-0.43 v -0.4 l -0.18,-0.56 h -0.34 l -0.13,-0.28 0.24,-0.45 -0.25,-0.14 v -0.27 l 0.19,-0.33 -0.26,-0.21 -0.48,-0.25 -0.14,-0.54 h -0.37 l -0.16,-0.16 v -0.28 l 0.14,-0.14 -0.26,-0.17 -0.16,0.23 -0.27,-0.11 h -0.4 l -0.4,-0.55 0.16,-0.65 -0.28,-0.31 -0.42,0.12 -0.09,-0.1 v -0.3 l -0.75,0.08 0.42,-0.45 h -0.2 l 0.1,-0.16 -0.16,-0.18 h -0.29 l -0.11,-0.15 h 0.85 l 0.15,-0.11 -0.47,-0.36 -0.43,0.09 -0.45,0.16 h -0.2 l -0.1,-0.25 h -0.36 l -0.32,-0.32 0.32,-0.25 h -0.24 -0.59 l -0.15,-0.27 v -0.34 l -0.16,-0.19 0.3,0.08 0.19,0.06 0.38,-0.24 -0.6,-0.21 -0.4,0.21 -0.09,-0.13 0.17,-0.19 v -0.53 l -0.2,-0.26 0.31,-0.31 0.36,0.46 h 0.48 l 0.27,-0.25 -0.4,0.11 -0.46,-0.23 -0.08,-0.27 -0.05,-0.14 0.24,-0.18 -0.42,-0.3 h 0.14 v -0.36 l -0.33,-0.05 -0.39,-0.68 -0.6,-0.49 1.11,-1 0.46,-0.83 0.07,-0.58 0.1,-0.72 0.28,-1.1 0.43,-0.6 0.12,-1.27 -0.35,-1.83 -0.49,-0.8 0.2,-0.15 h 0.25 l 0.13,-0.6 -0.13,-0.39 0.23,-0.23 -0.51,-0.76 -0.21,0.17 -0.17,-0.04 -0.15,-0.43 -0.39,0.43 v -0.68 l 0.2,-0.42 v -0.07 -0.58 l 0.19,-0.38 v -0.44 l 0.25,-0.27 h 0.22 l 0.56,-1 0.31,-0.12 -0.22,-0.16 v -0.17 l 0.71,-0.94 V 44.5 l 0.44,-1 0.26,-0.14 0.83,-0.77 0.06,-0.51 1.09,-1.58 -0.28,-0.5 0.48,-0.28 0.12,-0.35 1.23,-0.64 h 0.32 V 38 l 0.69,-1 0.42,-0.6 1.73,-0.32 1.23,-1.08 h 0.56 l 0.51,-0.55 0.12,-0.49 1.11,-1.26 0.12,-0.51 -0.2,-0.25 -0.15,-0.15 0.23,-0.66 -0.29,-0.59 v -0.38 l 0.46,-0.94 0.71,-0.64 v -0.43 l -0.28,-0.61 0.8,-0.58 0.25,-0.38 0.43,-0.14 0.7,-0.47 h 0.28 l 0.49,-0.52 0.65,-0.22 0.39,-0.27 h 0.19 l 0.8,-0.74 0.24,-0.46 0.08,-0.73 0.38,-0.5 0.07,-1 0.34,-0.38 h 0.28 l 0.14,-0.13 0.35,-0.12 0.1,0.13 -0.06,0.1 v 0.2 l 0.08,0.28 0.19,0.15 0.49,0.52 0.38,0.08 0.54,-0.08 0.37,-0.2 h 0.29 l 0.57,0.16 0.57,-0.12 0.31,-0.34 h 0.13 l 0.09,0.34 0.22,0.22 1,0.08 h 0.25 0.47 l 0.54,-0.17 0.34,-0.37 0.06,-0.21 0.22,-0.2 0.42,-0.22 h 0.5 l 0.1,-0.14 0.19,-0.13 h 0.24 l 0.12,0.11 h 0.19 l 0.22,-0.29 v -0.27 l 0.42,-0.26 h 0.25 l 0.49,-0.07 0.86,-0.66 0.39,0.06 h 0.68 l 0.38,-0.13 0.41,0.22 h 0.27 l 0.45,-0.44 0.34,0.13 h 0.37 l 0.18,-0.36 0.22,-0.05 0.32,0.1 h 0.18 l 0.37,0.06 0.47,-0.08 0.22,0.06 h 0.48 l 0.23,0.36 h 0.4 l 0.36,-0.28 h 0.28 l 0.23,0.09 0.22,-0.28 0.36,-0.07 v -0.24 l 0.41,-0.1 0.25,0.19 v 0.28 l 0.61,0.07 0.3,-0.3 v -0.18 l 0.48,0.17 0.39,0.34 0.75,-0.22 0.26,0.06 0.5,-0.1 0.09,0.11 0.46,-0.4 0.64,-0.32 0.47,-0.1 0.18,0.26 v -0.23 l 0.39,-0.08 0.22,0.2 v 0.31 l 0.18,0.06 0.26,0.61 0.18,0.1 0.21,-0.22 0.63,-0.58 0.16,0.12 v 0.35 l -0.35,0.52 v 0.32 l -0.43,0.3 -0.08,0.46 0.43,0.58 0.52,0.2 v 0.58 l 0.13,0.09 0.07,0.25 -0.19,0.2 0.15,0.21 -0.13,0.2 -0.51,0.5 -0.88,0.62 -0.17,0.52 0.28,0.51 0.56,0.39 0.26,-0.06 0.08,0.27 0.24,0.11 0.13,-0.11 v -0.13 l 0.11,-0.08 0.27,0.15 v 0.25 l 0.05,0.19 0.53,0.32 h 0.21 l 0.4,0.08 0.34,0.32 0.87,0.19 1.24,-0.23 0.49,0.19 h 1 l 0.6,0.39 1.13,0.16 0.45,0.59 v 0.55 l 0.55,1.05 0.59,0.3 h 0.68 l 0.19,-0.11 0.57,0.07 1.32,0.55 0.82,0.42 0.53,0.43 0.68,0.56 0.77,0.31 0.37,-0.14 0.6,-0.51 0.06,-0.17 0.46,-0.46 0.15,-0.4 -0.22,-0.71 -0.32,-0.5 0.06,-0.91 0.22,-0.17 0.11,-0.48 0.43,-0.42 0.75,-0.36 0.87,-0.08 0.55,-0.28 h 0.13 l 0.38,0.19 0.18,-0.16 0.15,0.08 0.62,0.16 h 0.38 l 0.75,0.41 v 0.22 l -0.14,0.05 0.14,0.2 0.63,0.17 h 0.46 l 0.24,0.22 1.19,0.14 0.33,-0.05 0.32,0.05 0.25,0.29 0.16,0.49 h 0.18 0.88 l 0.68,0.22 1.38,0.11 0.57,0.12 0.5,0.35 0.21,-0.13 h 0.2 l 0.51,0.32 h 0.6 0.42 l 0.64,0.4 h 0.59 l 0.07,-0.16 0.43,-0.37 0.46,-0.15 0.22,-0.12 0.48,-0.26 0.21,-0.15 h 0.5 0.35 l -0.28,0.12 h -0.34 v 0.08 l 0.12,0.12 0.39,-0.16 h 0.34 0.33 v -0.12 l -0.26,-0.05 0.1,-0.11 0.6,0.16 0.36,0.12 h 0.29 l 0.15,0.15 -0.17,0.08 0.08,0.31 0.36,0.2 0.24,0.36 v -0.23 l -0.33,-0.35 0.08,-0.3 0.65,0.45 0.88,-0.24 1.13,0.19 0.48,-0.19 0.23,-0.31 0.19,0.09 0.35,0.51 0.18,0.66 0.5,0.76 0.39,0.92 -0.15,0.43 0.23,0.6 -0.07,0.11 -0.27,1 v 0.38 l -0.21,0.53 0.16,0.16 -0.13,0.63 -0.24,0.23 -0.07,0.21 v -0.1 l -0.47,-0.26 -0.85,-0.9 -0.1,-0.33 -0.47,-0.21 -0.17,-0.35 v -0.35 l -0.69,-0.58 v -0.22 l -0.16,-0.19 -0.12,-0.45 h -0.17 l -0.07,-0.11 -0.08,0.12 v 0.24 0.24 l 0.37,0.48 v 0.4 l 0.66,0.78 0.08,0.28 1,0.87 0.15,0.28 -0.07,0.28 V 37 l 0.6,0.65 v 0.2 l 0.18,0.23 0.07,0.68 0.19,0.3 v 0.37 l 1.02,1.57 0.08,0.5 0.29,0.19 0.7,1 0.16,0.47 0.2,0.24 v -0.12 l 0.11,0.09 0.29,0.45 h 0.17 l 0.2,0.21 h -0.52 l -0.13,-0.11 v 0.15 l 0.12,0.24 v 0.44 l -0.08,0.25 0.27,0.93 0.55,0.35 h 0.33 l 0.22,-0.1 0.22,0.47 0.37,0.11 0.11,0.22 0.41,0.42 0.31,0.12 v 0.15 0.16 l 0.09,0.14 v 0.09 l 0.06,0.08 v 0.07 l 0.07,0.1 0.12,0.49 0.34,0.41 v 0.17 h -0.08 l -0.05,-0.11 -0.14,-0.17 -0.06,0.06 v 0.32 l 0.43,1.27 0.09,0.7 -0.1,0.65 0.24,0.76 0.32,0.61 0.29,0.06 0.78,0.52 v 0.34 h 0.36 l 0.38,0.2 v 0.25 h 0.07 l 0.41,0.44 0.74,1.94 0.24,1.27 h 0.13 l 0.1,0.47 v 0.16 l 0.24,0.08 0.15,0.37 0.09,0.55 0.31,0.08 v -0.5 h -0.08 v -0.36 l 0.13,-0.06 0.32,0.46 -0.12,0.13 0.3,0.45 0.2,0.21 0.18,-0.12 h 0.26 l 0.11,0.07 0.23,-0.08 0.32,0.36 0.17,0.21 0.49,0.12 0.11,0.18 0.6,0.67 0.26,0.45 0.36,0.15 0.26,0.31 h 0.14 v -0.1 l 0.12,0.16 0.29,0.74 0.22,0.06 0.25,0.32 -0.06,0.11 0.16,0.35 h 0.18 l 0.2,0.1 0.14,-0.13 0.06,0.1 h 0.09 v 0.13 l 0.41,0.4 h 0.11 v 0.17 l 0.06,0.55 -0.18,0.07 -0.33,0.37 h -0.25 l -0.18,0.27 h -0.38 l 0.2,0.24 h 0.12 l 0.27,-0.12 h 0.46 l 0.06,0.12 0.11,0.22 h 0.11 l 1.11,1.35 0.13,0.27 0.18,0.05 0.44,0.4 0.43,0.1 0.51,-0.06 0.16,-0.2 0.46,-0.28 h 0.29 l 0.59,-0.48 h 0.18 l 0.1,0.1 h 0.48 l 0.17,-0.06 0.35,0.16 0.52,-0.06 1.07,-0.66 0.35,-0.07 0.35,0.15 0.26,-0.08 h 0.48 l 0.49,-0.25 h 0.56 l 0.17,0.1 h 0.18 l 0.86,-0.16 0.24,-0.3 0.52,-0.07 0.15,0.13 v -0.15 l 0.54,-0.06 0.32,-0.31 h 0.06 l 0.14,-0.25 0.22,-0.21 h 0.15 V 66 l 0.21,0.15 0.45,0.16 h 0.21 0.08 l -0.19,0.27 -0.11,0.28 v 0.29 l -0.1,0.18 0.08,0.15 h 0.27 v 0.1 l -0.19,0.16 -0.15,0.37 0.15,0.21 0.06,0.3 -0.13,0.28 h 0.24 v -0.09 h 0.11 l 0.11,0.21 -0.12,0.06 v -0.07 h -0.23 -0.15 l -0.26,0.44 0.14,0.23 -0.07,0.42 -0.11,0.19 v 0.46 l -0.61,0.85 -0.41,0.88 -0.26,0.32 h -0.14 25.84 c 0.1372,4.58e-4 0.2683,-0.05662 0.36143,-0.157358 0.0931,-0.100738 0.13977,-0.235906 0.12857,-0.372642 0,-0.23 -0.06,-0.45 -0.09,-0.67 -0.17,-1.39 -0.38,-2.77 -0.62,-4.14 -0.07,-0.42 -0.15,-0.85 -0.23,-1.27 -0.31,-1.6 -0.65,-3.19 -1.05,-4.76 0,-0.12 -0.07,-0.23 -0.1,-0.35 -0.38,-1.46 -0.81,-2.91 -1.27,-4.34 -0.13,-0.41 -0.26,-0.82 -0.4,-1.22 -0.48,-1.4 -1,-2.78 -1.52,-4.15 -0.06,-0.13 -0.1,-0.27 -0.16,-0.4 -0.6,-1.48 -1.25,-2.93 -1.93,-4.36 -0.18,-0.38 -0.37,-0.75 -0.55,-1.12 -0.59333,-1.2 -1.21333,-2.38 -1.86,-3.54 l -0.42,-0.77 c -0.78,-1.333333 -1.6,-2.666667 -2.46,-4 l -0.64,-1 c -0.71333,-1.073333 -1.45333,-2.123333 -2.22,-3.15 l -0.79,-0.73 c -0.95,-1.24 -1.92,-2.46 -2.94,-3.64 l -0.63,-0.71 c -0.86,-1 -1.74,-1.94 -2.65,-2.88 l -0.78,-0.87 c -1.1,-1.11 -2.23,-2.2 -3.39,-3.25 l -0.45,-0.38 c -1,-0.93 -2.12,-1.82 -3.21,-2.69 l -1,-0.79 c -1.22,-0.94 -2.46,-1.86 -3.73,-2.73 l -0.09,-0.07 c -1.31,-0.89 -2.65,-1.74 -4,-2.56 l -1.13,-0.63 c -1.19,-0.69 -2.39,-1.36 -3.61,-2 l -0.64,-0.34 c -1.4,-0.71 -2.84,-1.37 -4.29,-2 l -1.11,-0.46 c -1.21,-0.51 -2.44,-1 -3.68,-1.43 l -1,-0.36 c -1.5,-0.52 -3,-1 -4.57,-1.43 l -1,-0.28 c -1.28,-0.34 -2.57,-0.65 -3.88,-0.93 l -1.19,-0.26 c -1.59,-0.32 -3.19,-0.6 -4.82,-0.82 l -0.8,-0.1 c -1.41,-0.18 -2.79,-0.32 -4.21,-0.43 l -1.32,-0.09 c -1.68,-0.1 -3.36,-0.17 -5.06,-0.17 h -0.3 c -1.6,0 -3.21,0.07 -4.83,0.17 l -1.69,0.14 c -1.14,0.09 -2.28,0.21 -3.42,0.35 -0.72,0.09 -1.46,0.17 -2.18,0.28 h -0.16 c -36.70406,5.7493896 -64.94374,35.479042 -68.8,72.43 0,0.16 0,0.32 0,0.48 -0.15,1.08 -0.23,2.15 -0.29,3.25 0,0.32 0,0.64 0,1 -0.15,1.21 -0.15,2.47 -0.15,3.74 0,0.1 0,0.2 0,0.3 0,1.17 0,2.32 0.08,3.48 l 0.06,1 c 0.06,1 0.13,2 0.23,3.06 l 0.06,0.71 c 0.13,1.22 0.29,2.43 0.47,3.63 0,0.3 0.09,0.59 0.14,0.89 0.15,1 0.32,1.9 0.51,2.84 0.06,0.32 0.12,0.64 0.19,1 0.24,1.18 0.51,2.36 0.81,3.52 0,0.13 0.07,0.27 0.11,0.4 0.27,1 0.57,2.07 0.88,3.09 l 0.3,1 c 0.31,1 0.63,1.9 1,2.85 0.07,0.19 0.13,0.39 0.2,0.58 0.41,1.11 0.85,2.21 1.3,3.3 l 0.36,0.83 c 0.37,0.85 0.75,1.7 1.15,2.55 l 0.4,0.84 c 0.52,1.06 1,2.1 1.6,3.13 l 0.25,0.44 c 0.49,0.9 1,1.78 1.53,2.66 l 0.52,0.85 c 0.53,0.86 1.07,1.71 1.63,2.55 0.1,0.14 0.19,0.29 0.29,0.44 0.65,1 1.33,1.91 2,2.85 l 0.55,0.73 c 0.56,0.73 1.13,1.46 1.71,2.17 0.19,0.24 0.37,0.47 0.57,0.7 0.74,0.89 1.5,1.77 2.28,2.63 l 0.39,0.43 c 0.67,0.73 1.36,1.44 2.05,2.15 l 0.7,0.7 c 0.74,0.73 1.49,1.44 2.25,2.14 l 0.31,0.29 c 0.86,0.79 1.75,1.55 2.64,2.29 l 0.73,0.59 c 0.71,0.58 1.44,1.16 2.18,1.72 l 0.69,0.52 c 0.93,0.69 1.88,1.37 2.84,2 l 0.55,0.35 c 0.81,0.54 1.63,1.07 2.46,1.58 l 0.85,0.52 c 0.92,0.55 1.85,1.09 2.79,1.61 l 0.29,0.16 c 1,0.56 2.08,1.09 3.14,1.6 l 0.86,0.42 c 0.85,0.4 1.71,0.78 2.57,1.16 l 0.78,0.34 c 1.09,0.45 2.19,0.89 3.3,1.29 l 0.68,0.25 c 0.92,0.32 1.84,0.64 2.77,0.93 l 1,0.31 c 1.09,0.33 2.19,0.64 3.29,0.93 l 0.18,0.05 c 1.17,0.3 2.35,0.57 3.53,0.82 l 1,0.19 c 1,0.19 1.9,0.36 2.87,0.52 l 0.83,0.13 c 1.2,0.18 2.41,0.33 3.62,0.46 l 0.81,0.07 c 1,0.1 2,0.17 3,0.23 l 1,0.06 c 1.25,0.05 2.51,0.09 3.77,0.09 1.26,0 2.62,0 3.92,-0.09 0.5,0 1,-0.07 1.47,-0.1 0.81,-0.06 1.61,-0.1 2.41,-0.17 0.52,0 1,-0.13 1.54,-0.19 0.77,-0.08 1.53,-0.16 2.29,-0.27 l 1.65,-0.27 c 0.71,-0.12 1.41,-0.22 2.11,-0.35 0.7,-0.13 1.14,-0.25 1.71,-0.37 0.57,-0.12 1.34,-0.27 2,-0.43 0.66,-0.16 1.15,-0.3 1.72,-0.45 0.57,-0.15 1.29,-0.33 1.93,-0.51 0.64,-0.18 1.13,-0.35 1.69,-0.53 0.56,-0.18 1.26,-0.38 1.88,-0.59 0.62,-0.21 1.1,-0.4 1.65,-0.6 0.55,-0.2 1.24,-0.44 1.86,-0.68 0.62,-0.24 1.09,-0.46 1.64,-0.69 0.55,-0.23 1.19,-0.48 1.78,-0.74 0.59,-0.26 1.08,-0.51 1.61,-0.76 0.53,-0.25 1.17,-0.54 1.74,-0.82 0.57,-0.28 1,-0.55 1.56,-0.83 0.56,-0.28 1.14,-0.59 1.7,-0.9 0.56,-0.31 1,-0.59 1.51,-0.89 0.51,-0.3 1.12,-0.64 1.66,-1 0.54,-0.36 1,-0.63 1.47,-0.95 0.47,-0.32 1.08,-0.69 1.61,-1.05 0.53,-0.36 0.95,-0.68 1.43,-1 0.48,-0.32 1,-0.73 1.55,-1.11 l 1.39,-1.09 c 0.5,-0.39 1,-0.77 1.49,-1.17 l 1.33,-1.16 c 0.48,-0.41 1,-0.81 1.43,-1.23 0.43,-0.42 0.85,-0.8 1.28,-1.2 0.43,-0.4 0.93,-0.86 1.39,-1.31 0.46,-0.45 0.81,-0.84 1.22,-1.25 0.41,-0.41 0.89,-0.91 1.32,-1.37 0.43,-0.46 0.79,-0.88 1.18,-1.31 0.39,-0.43 0.85,-0.94 1.26,-1.42 0.41,-0.48 0.74,-0.91 1.11,-1.37 0.37,-0.46 0.81,-1 1.2,-1.47 0.39,-0.47 0.7,-1 1.06,-1.43 0.36,-0.43 0.75,-1 1.12,-1.52 0.37,-0.52 0.66,-1 1,-1.47 0.34,-0.47 0.71,-1 1,-1.57 0.29,-0.57 0.62,-1 0.94,-1.52 0.32,-0.52 0.66,-1.07 1,-1.62 0.34,-0.55 0.58,-1 0.87,-1.58 0.29,-0.58 0.61,-1.09 0.9,-1.64 0.29,-0.55 0.55,-1.09 0.82,-1.63 0.27,-0.54 0.56,-1.12 0.82,-1.69 0.26,-0.57 0.49,-1.11 0.74,-1.67 0.25,-0.56 0.51,-1.14 0.75,-1.72 0.24,-0.58 0.44,-1.13 0.66,-1.7 0.22,-0.57 0.46,-1.18 0.68,-1.78 0.22,-0.6 0.38,-1.15 0.58,-1.72 0.2,-0.57 0.41,-1.22 0.6,-1.83 0.19,-0.61 0.34,-1.17 0.5,-1.76 0.16,-0.59 0.36,-1.23 0.52,-1.86 0.16,-0.63 0.29,-1.2 0.43,-1.81 0.14,-0.61 0.3,-1.24 0.43,-1.87 0.13,-0.63 0.23,-1.23 0.34,-1.84 0.11,-0.61 0.25,-1.27 0.35,-1.91 0.1,-0.64 0.17,-1.25 0.26,-1.87 0.09,-0.62 0.16,-1.12 0.22,-1.68 0.0114,-0.266995 -0.19324,-0.493882 -0.46,-0.51 z m -96.3,-65.44 -0.28,-0.22 v -0.13 h 0.33 l 0.13,0.16 z m -39.9,48.94 -0.24,-0.15 -0.05,-0.16 0.08,-0.13 h 0.19 l 0.14,0.17 v 0.24 z m 33.39,12.91 -0.2,0.13 h -0.14 v -0.33 l 0.21,-0.22 0.22,0.14 z m 3,-5.64 v -0.27 h 0.23 l 0.14,-0.41 0.37,-0.38 0.13,0.12 v 0.5 l -0.26,0.69 -0.34,-0.05 z"
       id="path2"
       inkscape:connector-curvature="0" />
    <polygon
       points="103.7 135.89 103.53 135.92 103.41 135.95"
       id="polygon4" />
  </g>
</svg>
