<?xml version="1.0" encoding="UTF-8" standalone="no"?>
<svg
   xmlns:dc="http://purl.org/dc/elements/1.1/"
   xmlns:cc="http://creativecommons.org/ns#"
   xmlns:rdf="http://www.w3.org/1999/02/22-rdf-syntax-ns#"
   xmlns:svg="http://www.w3.org/2000/svg"
   xmlns="http://www.w3.org/2000/svg"
   xmlns:sodipodi="http://sodipodi.sourceforge.net/DTD/sodipodi-0.dtd"
   xmlns:inkscape="http://www.inkscape.org/namespaces/inkscape"
   id="Layer_1"
   data-name="Layer 1"
   viewBox="0 0 743.06 190.37"
   version="1.1"
   sodipodi:docname="Eyowo.svg"
   inkscape:version="0.92.3 (2405546, 2018-03-11)">
  <metadata
     id="metadata19">
    <rdf:RDF>
      <cc:Work
         rdf:about="">
        <dc:format>image/svg+xml</dc:format>
        <dc:type
           rdf:resource="http://purl.org/dc/dcmitype/StillImage" />
      </cc:Work>
    </rdf:RDF>
  </metadata>
  <sodipodi:namedview
     pagecolor="#ffffff"
     bordercolor="#666666"
     borderopacity="1"
     objecttolerance="10"
     gridtolerance="10"
     guidetolerance="10"
     inkscape:pageopacity="0"
     inkscape:pageshadow="2"
     inkscape:window-width="640"
     inkscape:window-height="480"
     id="namedview17"
     showgrid="false"
     inkscape:zoom="0.44545528"
     inkscape:cx="332.24435"
     inkscape:cy="95.184998"
     inkscape:window-x="0"
     inkscape:window-y="27"
     inkscape:window-maximized="0"
     inkscape:current-layer="Layer_1" />
  <defs
     id="defs4">
    <style
       id="style2">.cls-1,.cls-3{fill:#292e1e}.cls-2{fill:#c4702e}.cls-3{opacity:.04;isolation:isolate}</style>
  </defs>
  <path
     class="cls-2"
     d="m 372.62668,9.55 c 0,0 5.51,-24 26.2,4.14 0,0 33.28,34.18 23.47,77.14 a 113.77,113.77 0 0 1 -9.89,26.65 121.91,121.91 0 0 1 -30.21,37.16 l -26.88,23 c 0,0 -28.54,17.57 -22.48,-4.65 0,0 0.3,-9.21 5.06,-11 a 8.66,8.66 0 0 0 2.88,-2.25 8.07,8.07 0 0 0 1.62,-3.18 7.79,7.79 0 0 0 0.07,-3.52 8,8 0 0 0 -1.5,-3.23 c 0,0 -2.86,-5.25 5.25,-9.89 a 7.58,7.58 0 0 0 2.5,-2 7.07,7.07 0 0 0 1.39,-2.8 6.85,6.85 0 0 0 0,-3.09 7.05,7.05 0 0 0 -1.34,-2.82 9.42,9.42 0 0 1 1.12,-6.35 10.3,10.3 0 0 1 5,-4.36 c 0,0 6.18,-0.85 2.59,-10.7 0,0 -0.77,-6.24 4.38,-7.42 0,0 7.42,-1 0.83,-9 0,0 -3.93,-5.57 4,-9.72 0,0 5.12,-1.18 -0.59,-10 0,0 -3.38,-3.76 4,-8.08 0,0 4.06,-1.5 -0.23,-9.37 0,0 -3.76,-7.71 2.41,-10.21 0,0 4.61,-3 1.18,-10 0.02,-0.12 -4.33,-17.86 -0.83,-24.45 z"
     id="path8"
     inkscape:connector-curvature="0"
     style="fill:#c4702e" />
  <path
     class="cls-2"
     d="m 372.62668,9.55 c 0,0 5.51,-24 26.2,4.14 0,0 33.28,34.18 23.47,77.14 a 113.77,113.77 0 0 1 -9.89,26.65 121.91,121.91 0 0 1 -30.21,37.16 l -26.88,23 c 0,0 -28.54,17.57 -22.48,-4.65 0,0 0.3,-9.21 5.06,-11 a 8.66,8.66 0 0 0 2.88,-2.25 8.07,8.07 0 0 0 1.62,-3.18 7.79,7.79 0 0 0 0.07,-3.52 8,8 0 0 0 -1.5,-3.23 c 0,0 -2.86,-5.25 5.25,-9.89 a 7.58,7.58 0 0 0 2.5,-2 7.07,7.07 0 0 0 1.39,-2.8 6.85,6.85 0 0 0 0,-3.09 7.05,7.05 0 0 0 -1.34,-2.82 9.42,9.42 0 0 1 1.12,-6.35 10.3,10.3 0 0 1 5,-4.36 c 0,0 6.18,-0.85 2.59,-10.7 0,0 -0.77,-6.24 4.38,-7.42 0,0 7.42,-1 0.83,-9 0,0 -3.93,-5.57 4,-9.72 0,0 5.12,-1.18 -0.59,-10 0,0 -3.38,-3.76 4,-8.08 0,0 4.06,-1.5 -0.23,-9.37 0,0 -3.76,-7.71 2.41,-10.21 0,0 4.61,-3 1.18,-10 0.02,-0.12 -4.33,-17.86 -0.83,-24.45 z"
     id="path10"
     inkscape:connector-curvature="0"
     style="fill:#c4702e" />
  <path
     class="cls-2"
     d="m 359.69668,16.08 c 0,0 5.41,-12.49 -5.88,-9.48 -11.29,3.01 -33,19.68 -33,19.68 0,0 -33.83,17.24 -38,69.41 0,0 0.66,53.1 16.91,75.63 l 14.15,18.61 c 0,0 6.36,3.08 8.19,-7.22 l 4.86,-19.2 a 8.08,8.08 0 0 1 2,-3 8.4,8.4 0 0 1 3.14,-1.91 c 0,0 4.47,-1.34 -0.39,-8.85 0,0 -1.39,-4.25 4.59,-6.74 a 5.67,5.67 0 0 0 2.23,-1.24 9.59,9.59 0 0 0 0.3,-11.07 44.55,44.55 0 0 1 -0.16,-9.54 47.34,47.34 0 0 1 8.19,-22.31 c 0,0 23.09,-37.49 13.55,-56.32 a 36.57,36.57 0 0 1 -0.68,-26.45 z"
     id="path12"
     inkscape:connector-curvature="0"
     style="fill:#c4702e" />
  <path
     class="cls-3"
     d="m 313.06668,100.2 a 1.33,1.33 0 0 0 0.4,-0.49 1,1 0 0 0 0.08,-0.56 1.29,1.29 0 0 0 -0.46,-0.54 2,2 0 0 0 -0.77,-0.32 c -0.85,-0.17 -1.12,0.28 -2.69,0.53 -1.1,0.17 -1.63,0.06 -3.42,0.36 -0.51,0.09 -0.9,0.17 -1,0.35 -0.1,0.18 0.29,0.33 1.22,0.87 1.14,0.64 1.24,0.75 1.22,0.87 0,0.4 -1.48,0.64 -1.94,0.7 -1.18,0.19 -1.87,0.09 -3.42,0.37 -0.62,0.11 -0.9,0.19 -1,0.35 -0.26,0.39 0.41,1.08 1,1.4 2.8,1.43 9.38,-2.56 10.78,-3.89 z m -5.65,-6.29 c 0,1.71 -6,2.21 -13.66,4.17 a 5.32,5.32 0 0 1 -2.64,0 c -0.31,-0.08 -1.88,-0.5 -2.11,-1.52 a 1.9,1.9 0 0 1 0.09,-0.83 1.94,1.94 0 0 1 0.43,-0.71 c 1.88,-2.17 6.39,1.29 10.79,-0.83 1.84,-0.89 2.45,-2.17 4.2,-2.08 1.31,0.1 2.89,0.93 2.9,1.8 z"
     id="path14"
     inkscape:connector-curvature="0"
     style="opacity:0.03999999;isolation:isolate;fill:#292e1e" />
</svg>
