<?xml version="1.0" encoding="UTF-8" standalone="no"?>
<svg
   xmlns:dc="http://purl.org/dc/elements/1.1/"
   xmlns:cc="http://creativecommons.org/ns#"
   xmlns:rdf="http://www.w3.org/1999/02/22-rdf-syntax-ns#"
   xmlns:svg="http://www.w3.org/2000/svg"
   xmlns="http://www.w3.org/2000/svg"
   xmlns:sodipodi="http://sodipodi.sourceforge.net/DTD/sodipodi-0.dtd"
   xmlns:inkscape="http://www.inkscape.org/namespaces/inkscape"
   width="2600"
   height="540"
   fill="none"
   version="1.1"
   id="svg10"
   sodipodi:docname="Farmcrowdy.svg"
   inkscape:version="0.92.3 (2405546, 2018-03-11)">
  <metadata
     id="metadata16">
    <rdf:RDF>
      <cc:Work
         rdf:about="">
        <dc:format>image/svg+xml</dc:format>
        <dc:type
           rdf:resource="http://purl.org/dc/dcmitype/StillImage" />
      </cc:Work>
    </rdf:RDF>
  </metadata>
  <defs
     id="defs14" />
  <sodipodi:namedview
     pagecolor="#ffffff"
     bordercolor="#666666"
     borderopacity="1"
     objecttolerance="10"
     gridtolerance="10"
     guidetolerance="10"
     inkscape:pageopacity="0"
     inkscape:pageshadow="2"
     inkscape:window-width="640"
     inkscape:window-height="480"
     id="namedview12"
     showgrid="false"
     inkscape:zoom="0.12730769"
     inkscape:cx="1162.5378"
     inkscape:cy="270"
     inkscape:window-x="0"
     inkscape:window-y="27"
     inkscape:window-maximized="0"
     inkscape:current-layer="svg10" />
  <path
     d="m 1237.7855,-5.8549849 a 269,269 0 0 0 -145,473.0000049 269,269 0 1 0 145,-473.0000049 z m 1,6.00000001 a 263,263 0 0 1 56,523.00000489 263,263 0 1 1 -56,-523.00000489 z"
     id="path2"
     inkscape:connector-curvature="0"
     style="clip-rule:evenodd;fill:#acbb16;fill-rule:evenodd" />
  <path
     d="m 1255.7855,11.145015 a 250,250 0 1 0 120,475.000005 251,251 0 0 0 91,-373 c -4,-7 -9,-10 -14,-17.000005 a 243,243 0 0 0 -197,-85 z m 6,221.000005 c 1,2 1,-1 1,3 l -5,19 -5,24 c -8,-12 -14,-38 -17,-54 -4,-27 0,-41 1,-66 -4,10 -6,24 -7,36 -10,-9 -11,-17 -25,-22 14,11 20,24 22,47 1,28 5,36 10,60 -9,-6 -14,-12 -21,-20 -35,-40 -46,-13 -60,-66 -1,20 3,22 8,36 -11,0 -22,-2 -31,4 23,2 39,5 54,16 32,23 72,88 74,133 -10,-5 -20,-27 -65,-44 -15,-5 -27,-7 -40,-14 -7,-5 -22,-19 -22,-30 0,13 12,29 17,33 l -47,2 c 32,3 47,0 75,11 19,8 41,22 52,33 7,8 29,26 25,37 l -19,47 c -6,16 -5,17 -7,35 a 231,231 0 0 1 -195,-248 233,233 0 0 1 392,-149.000005 l 6,7.000005 a 232,232 0 0 1 -138,391 c -7,-30 -4,-42 4,-71 9,-31 14,-33 34,-49 47,-36 67,-36 112,-52 -17,-1 -30,2 -46,5 8,-14 12,-16 14,-36 -4,37 -47,43 -86,67 l -29,20 c -18,-36 8,-48 35,-87 7,-10 17,-30 20,-46 4,-25 10,-28 25,-42 -12,4 -16,11 -23,17 l -3,-18 c -1,29 -2,56 -30,81 6,-37 4,-40 -8,-70 12,37 2,72 -22,100 l -21,23 c -3,-17 -5,-37 -5,-55 0,-9 3,-39 9,-48 2,-13 16,-36 22,-45 l 23,-28 8,-8 c -5,3 -18,12 -21,16 v -21 l -5,-16 c 2,11 5,17 1,31 -8,26 -39,52 -40,68 v -26 c -11,4 -22,16 -16,32 l 6,-14 -3,15 c 9,-2 8,-1 12,-4 z"
     id="path4"
     inkscape:connector-curvature="0"
     style="clip-rule:evenodd;fill:#293737;fill-rule:evenodd" />
  <path
     d="m 1348.7855,156.14502 c 11,-5 23,-17 45,-18 -15,6 -33,12 -42,23 24,25 47,-10 56,-17 6,-5 12,-6 18,-11 -15,-5 -31,-11 -49,-7 -16,3 -30,12 -28,30 z m 12,207 c 27,-3 30,1 52,5 -22,-1 -27,-5 -52,1 19,37 42,7 77,8 -21,-31 -72,-41 -77,-14 z m -247,-209 3,1 1,1 6,2 c 4,0 6,2 9,3 17,7 34,26 49,-3 -9,-6 -29,-9 -41,-9 19,-1 25,0 41,4 -4,-13 -17,-18 -34,-15 -17,2 -23,11 -34,16 z m 307,151 c 9,-8 10,-15 23,-22 -5,8 -16,15 -19,27 32,11 25,-9 50,-44 -27,-3 -60,11 -54,39 z m -127,-189 c 1,-8 -10,-23.000005 -13,-28.000005 10,8 11,14.000005 16,21.000005 l 3,4 c 4,-16.000005 -2,-24.000005 -11,-33.000005 -8,-7 -20,-14 -34,-13 17,26 5,56.000005 39,49.000005 z m 70,141 c 10,9 6,1 29,25 -2,-6 -23,-18 -33,-22 -10,28 20,30 31,34 7,2 11,6 16,8 -2,-47 -42,-53 -43,-45 z m -105,-64 c 2,-10 0,-19 0,-28 l 1,2 c 2,5 3,10 3,24 18,-11 6,-46 -18,-59 3,27 -17,55 14,61 z m -172,6 c 15,8 16,9 27,18 11,10 25,7 31,-6 l -28,-12 c 12,1 19,5 29,8 -4,-19 -27,-21 -44,-16 z m -14,85 c 11,9 12,9 22,23 6,10 17,15 30,4 -3,-7 -17,-17 -25,-20 13,3 19,12 28,16 -2,-25 -31,-30 -55,-23 z m 126,135 c 10,-29 34,-18 31,-45 -10,3 -21,13 -24,21 5,-14 16,-20 21,-25 -27,-24 -41,32 -28,49 z m 18,-77 c 3,-11 3,-14 3,-27 3,8 2,19 0,28 19,-2 21,-15 13,-31 -5,-12 -16,-19 -25,-25 1,12 4,15 1,29 -3,14 -3,22 8,26 z m -6,-96 -2,-35 6,34 c 16,-10 7,-42 -17,-55 2,25 -17,53 13,56 z m 182,-39 31,-2 c -11,2 -23,1 -31,7 9,26 31,1 51,0 -2,-5 0,-2 -5,-5 l -5,-4 c -14,-9 -35,-11 -41,4 z m -170,-47 c 0,-7 -4,-12 -6,-19 l 5,6 4,9 c 0,0 3,-1 4,-7 1,-13 -17,-29 -36,-31 l 8,28 c 2,12 7,15 21,14 z m -97,222 c 7,-8 8,-12 16,-17 8,-6 14,-7 13,-20 -7,-1 -9,3 -15,6 4,-6 7,-7 11,-11 -23,-19 -32,20 -25,42 z m 5,-104 c 9,-4 11,-8 22,-10 11,-3 17,-3 17,-16 -11,1 -12,3 -21,6 9,-6 10,-5 20,-9 -5,-19 -33,-10 -38,29 z m 185,71 12,-22 c -3,8 -6,13 -8,24 24,0 16,-13 25,-43 -16,4 -36,20 -29,41 z m -32,-54 8,-24 -5,25 c 24,3 15,-24 19,-44 -12,4 -38,30 -22,43 z m 44,91 2,1 3,1 14,7 c -8,-2 -11,-4 -22,-5 2,25 20,16 42,22 -2,-10 -8,-17 -13,-22 -5,-5 -18,-13 -26,-4 z m -248,-140 c 11,-1 15,-2 25,2 10,3 16,3 19,-5 -7,-5 -12,-3 -20,-5 l 21,2 c 0,-30 -37,-10 -45,6 z m 179,-117 c 2,-5 -3,-11 -6,-18 3,4 7,11 11,14 5,-8 -3,-18 -8,-21 -6,-5.000005 -13,-7.000005 -22,-8.000005 10,23.000005 9,36.000005 25,33.000005 z m 130,48 c 8,-2 11,-5 19,-5 -6,2 -14,4 -18,8 5,7 12,11 21,3 l 20,-12 c -11,-7 -37,-13 -42,6 z m -206,208 c 1,-8 1,-12 4,-19 10,-18 2,-25 -4,-12 l -3,10 c 0,-9 3,-11 5,-18 -24,0 -17,27 -2,39 z m 95,-155 h 14 l -13,6 c 7,16 18,5 34,-3 l 4,-3 c -6,-3 -17,-11 -31,-6 l -5,3 v 1 l -1,1 z m 91,10 c 6,-2 11,-4 18,-4 -7,1 -13,2 -18,7 9,15 20,1 26,-3 l 9,-4 c -10,-6 -30,-13 -35,4 z m -107,-8 4,-4 v -26 c -11,4 -22,16 -16,31 l 6,-14 -3,16 c 6,-1 5,0 9,-3 z m 85,-45 -4,-15 2,3 4,7 3,3 c 12,-15 -7,-25 -25,-26 l 2,4 c 13,20 5,24 18,24 z m -12,-54 2,-1 c 10,-3 8,-22 -4,-32 -7,18 -11,29 2,33 z m -151,163 c 5,-5 3,-7 11,-16 2,-3 5,-4 5,-9 -2,-7 -3,-3 -8,0 3,-5 6,-7 -1,-8 -4,0 -7,3 -9,6 -4,10 0,19 2,27 z m 94,-121 5,-3 3,-5 -3,10 c 19,4 12,-25 4,-30 -7,20 -12,16 -9,28 z m 57,70 6,-7 -3,8 c 12,-3 15,-19 8,-29 l -1,1 c -1,5 0,0 -1,2 -8,9 -20,16 -9,25 z m 0,51 12,-3 c -6,2 -6,1 -11,6 4,5 8,7 16,2 l 12,-8 -1,-3 -5,-2 -9,-1 c -8,0 -11,3 -14,9 z m 86,41 10,-2 c -4,2 -6,1 -9,6 7,8 10,5 25,-5 l 3,-3 c -10,-3 -23,-10 -29,4 z m -240,-7 5,-9 -2,11 c 16,-2 10,-12 13,-27 -9,2 -24,14 -16,25 z m -17,-10 c 3,-4 2,-4 2,-9 l 1,3 1,2 2,3 c 3,-13 -1,-23 -12,-29 1,15 -8,27 6,30 z m 204,6 2,-3 2,5 c 19,-1 5,-23 -1,-27 -1,11 -8,19 -3,25 z m -204,-125 4,1 h 4 c -7,1 -6,1 -8,5 5,3 8,5 14,1 l 13,-7 c -8,-5 -21,-10 -27,0 z m 176,7 c 4,-6 -1,-1 1,-4 l 3,-2 c -3,-8 -9,-10 -18,-11 7,16 5,17 14,17 z m -29,0 -3,-10 6,7 c 1,-10 -5,-14 -15,-15 3,11 1,17 12,18 z"
     id="path6"
     inkscape:connector-curvature="0"
     style="clip-rule:evenodd;fill:#acbb16;fill-rule:evenodd"
     sodipodi:nodetypes="cccccccccccccccccccccccccccccccccccccccccccccccccccccccccccccccccccccscccccccccccccccccccccccccccccccccccccccccccccccccsccccccccccccccccccccccccccccccccccccccccccccccccccccccccccccccccccccccccccccccccccccccccccccccccccccccccccccccccccccccccccccccccc" />
</svg>
