<?xml version="1.0" encoding="UTF-8" standalone="no"?>
<svg
   xmlns:dc="http://purl.org/dc/elements/1.1/"
   xmlns:cc="http://creativecommons.org/ns#"
   xmlns:rdf="http://www.w3.org/1999/02/22-rdf-syntax-ns#"
   xmlns:svg="http://www.w3.org/2000/svg"
   xmlns="http://www.w3.org/2000/svg"
   xmlns:sodipodi="http://sodipodi.sourceforge.net/DTD/sodipodi-0.dtd"
   xmlns:inkscape="http://www.inkscape.org/namespaces/inkscape"
   viewBox="0 0 1000 1000"
   version="1.1"
   id="svg24"
   sodipodi:docname="Fidelity Bank Nigeria.svg"
   inkscape:version="0.92.3 (2405546, 2018-03-11)">
  <metadata
     id="metadata30">
    <rdf:RDF>
      <cc:Work
         rdf:about="">
        <dc:format>image/svg+xml</dc:format>
        <dc:type
           rdf:resource="http://purl.org/dc/dcmitype/StillImage" />
      </cc:Work>
    </rdf:RDF>
  </metadata>
  <defs
     id="defs28" />
  <sodipodi:namedview
     pagecolor="#ffffff"
     bordercolor="#666666"
     borderopacity="1"
     objecttolerance="10"
     gridtolerance="10"
     guidetolerance="10"
     inkscape:pageopacity="0"
     inkscape:pageshadow="2"
     inkscape:window-width="640"
     inkscape:window-height="480"
     id="namedview26"
     showgrid="false"
     inkscape:zoom="0.236"
     inkscape:cx="434.32203"
     inkscape:cy="480.9322"
     inkscape:window-x="0"
     inkscape:window-y="27"
     inkscape:window-maximized="0"
     inkscape:current-layer="svg24" />
  <title
     id="title2">Nigeria-Logo</title>
  <path
     d="m 780.02458,197.97339 a 106.48,106.48 0 0 0 -19.38,-1.77 h -605.88 a 5.45,5.45 0 0 0 -5.44,5.44 v 508.07 a 106.75,106.75 0 0 0 23.15,66.42 c 174.9,-67.7 482.33,-304.16 621,-574.8 a 104.93,104.93 0 0 0 -13.45,-3.36 z"
     style="fill:#11237d"
     id="path20"
     inkscape:connector-curvature="0" />
  <path
     d="m 867.62458,303.20339 v 508.05 a 5.45,5.45 0 0 1 -5.44,5.44 h -605.88 a 106.89,106.89 0 0 1 -46.46,-10.58 c 178.14,-71.31 486.55,-311.13 621.19,-583.47 a 106.61,106.61 0 0 1 36.59,80.56 z"
     style="fill:#4dc247"
     id="path22"
     inkscape:connector-curvature="0" />
</svg>
