<?xml version="1.0" encoding="UTF-8" standalone="no"?>
<svg
   xmlns:dc="http://purl.org/dc/elements/1.1/"
   xmlns:cc="http://creativecommons.org/ns#"
   xmlns:rdf="http://www.w3.org/1999/02/22-rdf-syntax-ns#"
   xmlns:svg="http://www.w3.org/2000/svg"
   xmlns="http://www.w3.org/2000/svg"
   xmlns:sodipodi="http://sodipodi.sourceforge.net/DTD/sodipodi-0.dtd"
   xmlns:inkscape="http://www.inkscape.org/namespaces/inkscape"
   id="Layer_1"
   data-name="Layer 1"
   viewBox="0 0 825.84 198.65"
   version="1.1"
   sodipodi:docname="Fieldinsight.svg"
   inkscape:version="0.92.3 (2405546, 2018-03-11)">
  <metadata
     id="metadata31">
    <rdf:RDF>
      <cc:Work
         rdf:about="">
        <dc:format>image/svg+xml</dc:format>
        <dc:type
           rdf:resource="http://purl.org/dc/dcmitype/StillImage" />
      </cc:Work>
    </rdf:RDF>
  </metadata>
  <sodipodi:namedview
     pagecolor="#ffffff"
     bordercolor="#666666"
     borderopacity="1"
     objecttolerance="10"
     gridtolerance="10"
     guidetolerance="10"
     inkscape:pageopacity="0"
     inkscape:pageshadow="2"
     inkscape:window-width="640"
     inkscape:window-height="480"
     id="namedview29"
     showgrid="false"
     inkscape:zoom="0.40080402"
     inkscape:cx="369.25778"
     inkscape:cy="99.324997"
     inkscape:window-x="0"
     inkscape:window-y="27"
     inkscape:window-maximized="0"
     inkscape:current-layer="Layer_1-2" />
  <defs
     id="defs4">
    <style
       id="style2">.cls-1{fill:#1e314c}.cls-2{fill:#3eaef7}</style>
  </defs>
  <g
     id="Layer_2"
     data-name="Layer 2">
    <g
       id="Layer_1-2"
       data-name="Layer 1-2">
      <path
         class="cls-1"
         d="M 101.92,549.65 V 488.54 H 87.08 v -17.26 h 14.84 V 466 c 0,-21.28 14.31,-31.07 30.31,-31.07 7.35627,0.12562 14.52114,2.36465 20.64,6.45 L 145.61,456 c -4.19,-2.74 -8.06,-4.19 -12.09,-4.19 -6.77,0 -11.94,4.51 -11.94,14.19 v 5.32 H 145 v 17.25 h -23.42 v 61.11 z m 78.35,-101.9 c 0,15.32 -23.22,15.32 -23.22,0 0,-15.32 23.22,-15.32 23.22,0 z m -21.44,22.09 v 79.84 h 19.67 v -79.84 z m 289.26,-22.09 c 0,15.32 -23.22,15.32 -23.22,0 0,-15.32 23.22,-15.32 23.22,0 z m -21.39,22.09 v 79.84 h 19.67 v -79.84 z m 95.88,79.81 V 508 c 0,-12.09 -6.61,-21.29 -19.19,-21.29 -12.09,0 -20.28,10.14 -20.28,22.25 v 40.63 H 463.6 V 470 h 17.59 l 1.27,10.81 c 8.06,-7.91 16.12,-11.94 26.12,-11.94 18.7,0 33.7,14 33.7,39 v 41.82 z m 88.51,-58.37 c -5.64,-5.32 -12.09,-7.1 -19.67,-7.1 -9.35,0 -14.51,2.9 -14.51,7.89 0,4.99 4.68,8.06 14.84,8.71 15,1 34,4.36 34,25.47 0,14 -11.41,26.12 -34.22,26.12 -12.57,0 -25.15,-2.09 -36.75,-14.19 l 9.67,-14 c 5.64,6.34 18.54,11 27.41,11.13 7.41,0.16 14.35,-3.71 14.35,-9.52 0,-5.49 -4.51,-7.74 -15.8,-8.39 -15,-1.13 -32.95,-6.61 -32.95,-24.67 0,-18.39 19,-24.83 33.54,-24.83 12.42,0 21.77,2.42 31,10.48 z"
         id="path6"
         transform="translate(-87.08,-400.67)"
         inkscape:connector-curvature="0"
         style="fill:#1e314c"
         sodipodi:nodetypes="cccccscccssccccccssscccccsssccccccssscccccsscccsscsscccscsscc" />
      <path
         class="cls-1"
         d="M551.26 69.17h19.67v79.81h-19.67z"
         id="path8" />
      <circle
         class="cls-2"
         cx="519.53"
         cy="44.94"
         r="8.29"
         id="circle12" />
      <circle
         class="cls-2"
         cx="539.87"
         cy="22.75"
         r="10.15"
         id="circle14" />
      <circle
         class="cls-2"
         cx="560.17"
         cy="46.81"
         r="13.22"
         id="circle16" />
      <circle
         class="cls-2"
         cx="586.59"
         cy="15.7"
         r="15.7"
         id="circle18" />
      <path
         class="cls-2"
         d="M601.73 432.85h30.1v3.32h-30.1z"
         id="path20"
         transform="rotate(-47.5 117.938 333.118)" />
      <path
         class="cls-2"
         d="M642.9 432.85H673v3.32h-30.1z"
         id="path22"
         transform="rotate(-47.51 159.22 333.095)" />
      <path
         class="cls-2"
         d="M635.84 419.44h3.32v30.1h-3.32z"
         id="path24"
         transform="rotate(-42.49 78.66 346.143)" />
    </g>
  </g>
</svg>
