<?xml version="1.0" encoding="UTF-8" standalone="no"?>
<svg
   xmlns:dc="http://purl.org/dc/elements/1.1/"
   xmlns:cc="http://creativecommons.org/ns#"
   xmlns:rdf="http://www.w3.org/1999/02/22-rdf-syntax-ns#"
   xmlns:svg="http://www.w3.org/2000/svg"
   xmlns="http://www.w3.org/2000/svg"
   xmlns:sodipodi="http://sodipodi.sourceforge.net/DTD/sodipodi-0.dtd"
   xmlns:inkscape="http://www.inkscape.org/namespaces/inkscape"
   viewBox="0 0 1000 1000"
   version="1.1"
   id="svg62"
   sodipodi:docname="First Bank Nigeria.svg"
   inkscape:version="0.92.3 (2405546, 2018-03-11)">
  <metadata
     id="metadata68">
    <rdf:RDF>
      <cc:Work
         rdf:about="">
        <dc:format>image/svg+xml</dc:format>
        <dc:type
           rdf:resource="http://purl.org/dc/dcmitype/StillImage" />
      </cc:Work>
    </rdf:RDF>
  </metadata>
  <defs
     id="defs66" />
  <sodipodi:namedview
     pagecolor="#ffffff"
     bordercolor="#666666"
     borderopacity="1"
     objecttolerance="10"
     gridtolerance="10"
     guidetolerance="10"
     inkscape:pageopacity="0"
     inkscape:pageshadow="2"
     inkscape:window-width="640"
     inkscape:window-height="480"
     id="namedview64"
     showgrid="false"
     inkscape:zoom="0.236"
     inkscape:cx="531.00448"
     inkscape:cy="439.57828"
     inkscape:window-x="0"
     inkscape:window-y="27"
     inkscape:window-maximized="0"
     inkscape:current-layer="svg62" />
  <title
     id="title2">Nigeria-Logo</title>
  <rect
     x="17"
     y="18"
     width="965"
     height="965"
     style="fill:#162d4c"
     id="rect4" />
  <path
     d="m 400.39441,289.60864 v -0.49 h 291 v 0.51 z"
     style="fill:#e4b935"
     id="path6"
     inkscape:connector-curvature="0" />
  <path
     d="m 400.39441,289.60864 h 291 c -2.2,10.58 -4.36,21.17 -6.61,31.74 q -12.92,60.67 -25.92,121.3 c -3.5,16.43 -7,32.87 -10.54,49.28 -0.45,2 -0.25,2.71 2,2.74 8,0.12 16,0 24,-0.31 a 47.22,47.22 0 0 1 11.69,0.76 c 7,1.48 8.95,6.53 4.76,12.4 a 23.88,23.88 0 0 1 -8.88,7.12 c -7.89,4.07 -16.43,5.81 -25.12,6.94 a 86.47,86.47 0 0 1 -12.94,1 c -1.68,0 -2.11,0.78 -2.39,2.13 q -4,19 -8.07,38.08 l -24.69,116.42 c -0.5,2.36 -1,4.71 -1.47,7.09 -0.24,1.34 -0.72,2.15 -2.25,1.87 a 6.51,6.51 0 0 0 -1.25,0 h -284.73 c -3.44,0 -3.43,0 -2.69,-3.52 q 21.38,-100.68 42.74,-201.36 4.77,-22.46 9.57,-44.9 a 3.63,3.63 0 0 0 -0.16,-2.63 c -4.25,-8.41 -5.6,-17.54 -6.49,-26.76 -2.27,-23.44 3.18,-45.83 9.57,-68.05 1.85,-6.4 8.81,-10.34 16.4,-9.48 2.79,0.31 3.59,-0.45 4.11,-3.09 2.53,-12.64 5.3,-25.23 8,-37.84 a 5.53,5.53 0 0 1 0.36,-0.93 z m 99,207 a 10.46,10.46 0 0 1 2.24,0 c 9.14,2.08 13.82,-3.32 17.52,-10.37 0.42,-0.81 0.85,-1.63 1.21,-2.46 2.57,-5.85 2.56,-5.86 -2.17,-10 a 8,8 0 0 0 -1,-0.8 c -2.07,-1.26 -2.06,-2.61 -0.79,-4.67 a 37.85,37.85 0 0 1 38.37,-17.53 13.87,13.87 0 0 1 6.91,3 c 6.5,5.21 13.22,10.12 20.08,14.86 a 184.26,184.26 0 0 0 19.72,12.21 c 2.53,1.32 2.67,1.26 2.44,-1.46 q -0.66,-7.71 -1.53,-15.41 c -1.29,-11.54 -4.78,-22.17 -12.16,-31.44 -5.29,-6.64 -10.32,-13.49 -15.72,-20.05 a 5.06,5.06 0 0 1 -1.29,-4.26 c 1.2,-9.46 1.22,-9.52 -4.68,-17 -13,-16.48 -28.44,-30.6 -44.22,-44.34 a 7.34,7.34 0 0 0 -3.16,-1.38 160.58,160.58 0 0 0 -33.3,-4.57 c -6.52,-0.3 -12.56,0.42 -17.91,4.42 -4.37,3.27 -9,3.81 -14.49,2.9 -17.72,-2.95 -35.53,-5.37 -53.32,-7.89 -5.18,-0.73 -10.31,-2 -15.6,-1.74 -4.55,0.21 -7.08,1.79 -8.23,5.54 -5.67,18.52 -10,37.31 -9.37,56.86 a 86.34,86.34 0 0 0 17.08,50 c 12,16.18 28.24,26.56 46.81,33.59 21.41,8.08 43.79,10.97 66.51,11.95 z m -2,122.73 c -1.05,0.69 -1.74,1.15 -2.44,1.59 -8.67,5.44 -17.33,10.9 -26.05,16.26 -1.76,1.08 -1.84,1.64 -0.2,3 14,11.55 27.94,23.19 41.91,34.79 0.35,0.3 0.67,0.81 1.41,0.46 0.15,-2.58 0.45,-5.23 0.41,-7.88 a 21.12,21.12 0 0 1 1.85,-8.68 c 3.89,-9.28 7.61,-18.63 11.43,-27.94 a 8.17,8.17 0 0 0 0.65,-3.62 c -0.34,-8.24 -0.66,-16.48 -0.91,-24.72 a 8.09,8.09 0 0 0 -1.31,-4.19 c -8.84,-14.3 -17.62,-28.63 -26.49,-42.92 a 4.44,4.44 0 0 1 -0.56,-3.94 c 1.48,-5.11 2.82,-10.26 4.29,-15.38 a 16.44,16.44 0 0 0 0.5,-6.16 c -0.52,-5.64 -1,-11.28 -1.39,-16.93 -0.11,-1.88 -0.64,-2.5 -2.63,-2.51 a 199.44,199.44 0 0 1 -39.44,-3.91 c -33.81,-7 -61.06,-23.92 -80.5,-52.79 -0.39,-0.57 -0.58,-1.39 -1.62,-1.62 -0.11,0.47 -0.23,0.93 -0.33,1.39 q -12.94,61.38 -25.87,122.78 c -1.08,5.11 -1.08,5.17 4.06,5.71 3.32,0.35 6.48,1.41 10,0.13 17.05,-6.13 34.21,-11.95 51.31,-18 a 5,5 0 0 1 5.24,0.66 q 34.05,24.3 68.24,48.42 z m -79.94,-45.57 c 0,12.24 0,24.31 0,36.39 a 14.93,14.93 0 0 1 -1.19,6 c -6.6,15.71 -13.12,31.46 -19.74,47.17 a 4.74,4.74 0 0 0 0.18,4.67 c 1.4,2.46 2.64,5 3.79,7.59 a 3,3 0 0 0 3.17,2.06 c 15.92,-0.09 31.83,0 47.74,-0.07 0.69,0 1.48,0.32 2.22,-0.49 -1.46,-3 -2.87,-6.11 -4.45,-9.11 a 6.65,6.65 0 0 1 -0.68,-4.75 c 3.9,-19.06 7.7,-38.15 11.66,-57.2 0.4,-1.89 0,-2.83 -1.5,-3.88 q -19.58,-13.63 -39.09,-27.36 a 3.41,3.41 0 0 0 -2.19,-1.06 z m 220.15,-57.54 c 1.83,0 3.66,0.06 5.49,0 10.93,-0.44 21.72,-1.79 32.12,-5.39 a 22.72,22.72 0 0 0 8.64,-4.83 c 1.18,-1.13 2.25,-2.46 1.56,-4.17 -0.61,-1.52 -2.26,-1.63 -3.64,-1.64 -3.33,0 -6.68,-0.09 -10,0.21 a 124.72,124.72 0 0 1 -41.91,-3.11 c -24.36,-6.05 -46.07,-17.54 -66.15,-32.3 a 18.1,18.1 0 0 0 -9,-3.71 c -9.37,-1 -17.51,1.17 -23.57,8.93 -1.12,1.43 -1.15,2.34 0.32,3.64 a 172.25,172.25 0 0 0 24.89,18.35 c 24.9,15.18 51.75,24 81.17,23.98 z m -74.54,-10.82 c 0.26,1.74 0.5,3 0.63,4.35 0.41,4.3 1.82,8.48 1.39,12.86 -1.32,13.43 -4.18,26.63 -5.94,40 -1.36,10.41 -2.75,20.83 -2.19,31.35 0.45,8.5 3.21,16.16 10.42,21.21 6.8,4.76 14.27,6.21 22.12,2.16 a 3.13,3.13 0 0 0 1.9,-3.16 48.75,48.75 0 0 0 -0.83,-8.43 c -0.35,-1.76 -0.92,-2.22 -2.82,-1.88 -7.06,1.27 -11.91,-3.81 -10.53,-10.82 1.21,-6.16 3.66,-11.9 6,-17.67 5.69,-13.85 12.45,-27.23 18.36,-41 a 42.17,42.17 0 0 0 2.75,-12.11 c 0.16,-1.36 0,-2.06 -1.7,-2.28 a 71.49,71.49 0 0 1 -8.3,-1.72 126.82,126.82 0 0 1 -31.26,-12.86 z"
     style="fill:#dfac0f"
     id="path8"
     inkscape:connector-curvature="0" />
  <path
     d="m 499.34441,496.56864 c -22.72,-1 -45.1,-3.87 -66.53,-12 -18.57,-7 -34.81,-17.41 -46.81,-33.59 a 86.34,86.34 0 0 1 -17.08,-50 c -0.59,-19.55 3.7,-38.34 9.37,-56.86 1.15,-3.75 3.68,-5.33 8.23,-5.54 5.29,-0.26 10.42,1 15.6,1.74 17.79,2.52 35.6,4.94 53.32,7.89 5.48,0.91 10.12,0.37 14.49,-2.9 5.35,-4 11.39,-4.72 17.91,-4.42 a 160.58,160.58 0 0 1 33.31,4.65 7.34,7.34 0 0 1 3.16,1.38 c 15.78,13.74 31.19,27.86 44.22,44.34 5.9,7.46 5.88,7.52 4.68,17 a 5.06,5.06 0 0 0 1.29,4.26 c 5.4,6.56 10.43,13.41 15.72,20.05 7.38,9.27 10.87,19.9 12.16,31.44 q 0.87,7.69 1.53,15.41 c 0.23,2.72 0.09,2.78 -2.44,1.46 a 184.26,184.26 0 0 1 -19.72,-12.21 c -6.86,-4.74 -13.58,-9.65 -20.08,-14.86 a 13.87,13.87 0 0 0 -6.91,-3 37.85,37.85 0 0 0 -38.37,17.53 c -1.27,2.06 -1.28,3.41 0.79,4.67 a 8,8 0 0 1 1,0.8 c 4.73,4.1 4.74,4.11 2.17,10 -0.36,0.83 -0.79,1.65 -1.21,2.46 -3.7,7 -8.38,12.45 -17.52,10.37 a 10.46,10.46 0 0 0 -2.28,-0.07 z m 24.24,-87.21 -13.51,-15.16 c -1.13,-1.27 -1.75,0 -2.41,0.54 q -10.26,8.94 -20.48,17.94 c -0.58,0.51 -1.44,0.85 -1.56,1.95 z"
     style="fill:#162d4c"
     id="path50"
     inkscape:connector-curvature="0" />
  <path
     d="m 497.31441,619.29864 -8.41,-6 q -34.14,-24.18 -68.24,-48.39 a 5,5 0 0 0 -5.24,-0.66 c -17.1,6 -34.26,11.83 -51.31,18 -3.55,1.28 -6.71,0.22 -10,-0.13 -5.14,-0.54 -5.14,-0.6 -4.06,-5.71 q 12.9,-61.43 25.81,-122.82 c 0.1,-0.46 0.22,-0.92 0.33,-1.39 1,0.23 1.23,1.05 1.62,1.62 19.44,28.87 46.69,45.83 80.5,52.79 a 199.44,199.44 0 0 0 39.44,3.91 c 2,0 2.52,0.63 2.63,2.51 0.35,5.65 0.87,11.29 1.39,16.93 a 16.44,16.44 0 0 1 -0.5,6.16 c -1.47,5.12 -2.81,10.27 -4.29,15.38 a 4.44,4.44 0 0 0 0.56,3.94 c 8.87,14.29 17.65,28.62 26.49,42.92 a 8.09,8.09 0 0 1 1.31,4.19 c 0.25,8.24 0.57,16.48 0.91,24.72 a 8.17,8.17 0 0 1 -0.65,3.62 c -3.82,9.31 -7.54,18.66 -11.43,27.94 a 21.12,21.12 0 0 0 -1.85,8.68 c 0,2.65 -0.26,5.3 -0.41,7.88 -0.74,0.35 -1.06,-0.16 -1.41,-0.46 -14,-11.6 -27.9,-23.24 -41.91,-34.79 -1.64,-1.35 -1.56,-1.91 0.2,-3 8.72,-5.36 17.38,-10.82 26.05,-16.26 0.73,-0.43 1.42,-0.89 2.47,-1.58 z"
     style="fill:#162d4c"
     id="path52"
     inkscape:connector-curvature="0" />
  <path
     d="m 417.37441,677.63529 a 3.41,3.41 0 0 0 2.14,-1.06 q 19.55,-13.68 39.09,-27.33 c 1.52,-1.05 1.9,-2 1.5,-3.88 -4,-19 -7.76,-38.14 -11.66,-57.2 a 6.65,6.65 0 0 1 0.68,-4.75 c 1.58,-3 3,-6.09 4.45,-9.11 -0.74,-0.81 -1.53,-0.49 -2.22,-0.49 -15.91,0 -31.82,0 -47.74,-0.07 a 3,3 0 0 0 -3.17,2.06 c -1.15,2.58 -2.39,5.13 -3.79,7.59 a 4.74,4.74 0 0 0 -0.18,4.67 c 6.62,15.71 13.14,31.46 19.74,47.17 a 14.93,14.93 0 0 1 1.19,6 c -0.07,12.09 -0.03,24.16 -0.03,36.4 z"
     style="fill:#162d4c"
     id="path54"
     inkscape:connector-curvature="0" />
  <path
     d="m 637.52441,516.18864 c -29.42,0 -56.27,-8.8 -81.23,-24 a 172.25,172.25 0 0 1 -24.89,-18.35 c -1.47,-1.3 -1.44,-2.21 -0.32,-3.64 6.06,-7.76 14.2,-9.92 23.57,-8.93 a 18.1,18.1 0 0 1 9,3.71 c 20.08,14.76 41.79,26.25 66.15,32.3 a 124.72,124.72 0 0 0 41.86,3.06 c 3.31,-0.3 6.66,-0.24 10,-0.21 1.38,0 3,0.12 3.64,1.64 0.69,1.71 -0.38,3 -1.56,4.17 a 22.72,22.72 0 0 1 -8.64,4.83 c -10.4,3.6 -21.19,4.95 -32.12,5.39 -1.8,0.09 -3.63,0.03 -5.46,0.03 z"
     style="fill:#162d4c"
     id="path56"
     inkscape:connector-curvature="0" />
  <path
     d="m 563.06441,505.40864 a 126.82,126.82 0 0 0 31.29,12.87 71.49,71.49 0 0 0 8.3,1.72 c 1.65,0.22 1.86,0.92 1.7,2.28 a 42.17,42.17 0 0 1 -2.75,12.11 c -5.91,13.75 -12.67,27.13 -18.36,41 -2.37,5.77 -4.82,11.51 -6,17.67 -1.38,7 3.47,12.09 10.53,10.82 1.9,-0.34 2.47,0.12 2.82,1.88 a 48.75,48.75 0 0 1 0.83,8.43 3.13,3.13 0 0 1 -1.9,3.16 c -7.85,4.05 -15.32,2.6 -22.12,-2.16 -7.21,-5.05 -10,-12.71 -10.42,-21.21 -0.56,-10.52 0.83,-20.94 2.19,-31.35 1.76,-13.36 4.62,-26.56 5.94,-40 0.43,-4.38 -1,-8.56 -1.39,-12.86 -0.16,-1.32 -0.4,-2.65 -0.66,-4.36 z"
     style="fill:#162d4c"
     id="path58"
     inkscape:connector-curvature="0" />
  <path
     d="m 523.58441,409.35864 -38,5.27 c 0.12,-1.1 1,-1.44 1.56,-1.95 q 10.21,-9 20.48,-17.94 c 0.66,-0.57 1.28,-1.81 2.41,-0.54 z"
     style="fill:#dcaa10"
     id="path60"
     inkscape:connector-curvature="0" />
</svg>
