<?xml version="1.0" encoding="UTF-8" standalone="no"?>
<svg
   xmlns:dc="http://purl.org/dc/elements/1.1/"
   xmlns:cc="http://creativecommons.org/ns#"
   xmlns:rdf="http://www.w3.org/1999/02/22-rdf-syntax-ns#"
   xmlns:svg="http://www.w3.org/2000/svg"
   xmlns="http://www.w3.org/2000/svg"
   xmlns:sodipodi="http://sodipodi.sourceforge.net/DTD/sodipodi-0.dtd"
   xmlns:inkscape="http://www.inkscape.org/namespaces/inkscape"
   width="2926"
   height="553"
   fill="none"
   version="1.1"
   id="svg8"
   sodipodi:docname="Flutterwave.svg"
   inkscape:version="0.92.3 (2405546, 2018-03-11)">
  <metadata
     id="metadata14">
    <rdf:RDF>
      <cc:Work
         rdf:about="">
        <dc:format>image/svg+xml</dc:format>
        <dc:type
           rdf:resource="http://purl.org/dc/dcmitype/StillImage" />
      </cc:Work>
    </rdf:RDF>
  </metadata>
  <defs
     id="defs12" />
  <sodipodi:namedview
     pagecolor="#ffffff"
     bordercolor="#666666"
     borderopacity="1"
     objecttolerance="10"
     gridtolerance="10"
     guidetolerance="10"
     inkscape:pageopacity="0"
     inkscape:pageshadow="2"
     inkscape:window-width="640"
     inkscape:window-height="480"
     id="namedview10"
     showgrid="false"
     inkscape:zoom="0.11312372"
     inkscape:cx="1308.3021"
     inkscape:cy="276.5"
     inkscape:window-x="0"
     inkscape:window-y="27"
     inkscape:window-maximized="0"
     inkscape:current-layer="svg8" />
  <path
     d="m 1506.5045,235 c 71,-58 216,-267 -11,-230 -99,15 -244,111 -273,222 -15,-30 -32,-58 -50,-86 -28,-38 -59,-8 -29,30 a 640,640 0 0 1 146,381 c 7,-67 -4,-149 -31,-229 13,4 28,6 41,6 46,76 117,141 196,171 73,29 170,12 130,-105 -21,-64 -70,-120 -119,-160 z m 10,-203 c 126,-14 -9,143 -53,172 -41,-27 -93,-51 -143,-44 36,-47 124,-119 196,-128 z m -197,162 c 34,-3 71,16 100,36 -28,14 -58,22 -89,25 -46,0 -56,-57 -11,-61 z m 174,244 c -59,-17 -115,-65 -155,-113 33,-7 66,-20 96,-38 11,-5 22,-13 32,-20 35,32 72,75 86,124 14,53 -24,57 -59,47 z"
     id="path2"
     inkscape:connector-curvature="0"
     style="fill:#f5a623" />
</svg>
