<?xml version="1.0" encoding="UTF-8" standalone="no"?>
<svg
   xmlns:dc="http://purl.org/dc/elements/1.1/"
   xmlns:cc="http://creativecommons.org/ns#"
   xmlns:rdf="http://www.w3.org/1999/02/22-rdf-syntax-ns#"
   xmlns:svg="http://www.w3.org/2000/svg"
   xmlns="http://www.w3.org/2000/svg"
   xmlns:sodipodi="http://sodipodi.sourceforge.net/DTD/sodipodi-0.dtd"
   xmlns:inkscape="http://www.inkscape.org/namespaces/inkscape"
   viewBox="0 0 1000 1000"
   version="1.1"
   id="svg58"
   sodipodi:docname="glo.svg"
   inkscape:version="0.92.3 (2405546, 2018-03-11)">
  <metadata
     id="metadata62">
    <rdf:RDF>
      <cc:Work
         rdf:about="">
        <dc:format>image/svg+xml</dc:format>
        <dc:type
           rdf:resource="http://purl.org/dc/dcmitype/StillImage" />
      </cc:Work>
    </rdf:RDF>
  </metadata>
  <sodipodi:namedview
     pagecolor="#ffffff"
     bordercolor="#666666"
     borderopacity="1"
     objecttolerance="10"
     gridtolerance="10"
     guidetolerance="10"
     inkscape:pageopacity="0"
     inkscape:pageshadow="2"
     inkscape:window-width="640"
     inkscape:window-height="480"
     id="namedview60"
     showgrid="false"
     inkscape:zoom="0.236"
     inkscape:cx="425.84746"
     inkscape:cy="500"
     inkscape:window-x="0"
     inkscape:window-y="27"
     inkscape:window-maximized="0"
     inkscape:current-layer="svg58" />
  <defs
     id="defs36">
    <linearGradient
       id="a"
       x1="484.48"
       y1="319.34"
       x2="536.14"
       y2="785.87"
       gradientUnits="userSpaceOnUse">
      <stop
         offset="0"
         stop-color="#123214"
         id="stop2" />
      <stop
         offset="0.46"
         stop-color="#3e7c37"
         id="stop4" />
      <stop
         offset="0.91"
         stop-color="#5fbb46"
         id="stop6" />
    </linearGradient>
    <linearGradient
       id="b"
       x1="4812.32"
       y1="-2121.07"
       x2="4812.32"
       y2="-2122.13"
       gradientTransform="matrix(115.64, 0, 0, -355.9, -555713.76, -754599.8)"
       gradientUnits="userSpaceOnUse">
      <stop
         offset="0"
         stop-color="#fff"
         stop-opacity="0"
         id="stop9" />
      <stop
         offset="0.64"
         stop-color="#fff"
         stop-opacity="0.43"
         id="stop11" />
      <stop
         offset="1"
         stop-color="#fff"
         stop-opacity="0.42"
         id="stop13" />
    </linearGradient>
    <radialGradient
       id="c"
       cx="1772.25"
       cy="-341.52"
       fy="-409.14889841083107"
       r="151.52"
       gradientTransform="matrix(1.17, 0.59, -0.28, 0.47, -1527.13, -664.3)"
       gradientUnits="userSpaceOnUse">
      <stop
         offset="0.13"
         stop-color="#fff"
         id="stop16" />
      <stop
         offset="0.29"
         stop-color="#fff"
         stop-opacity="0.69"
         id="stop18" />
      <stop
         offset="0.45"
         stop-color="#fff"
         stop-opacity="0.4"
         id="stop20" />
      <stop
         offset="0.59"
         stop-color="#fff"
         stop-opacity="0.18"
         id="stop22" />
      <stop
         offset="0.69"
         stop-color="#fff"
         stop-opacity="0.05"
         id="stop24" />
      <stop
         offset="0.74"
         stop-color="#fff"
         stop-opacity="0"
         id="stop26" />
    </radialGradient>
    <radialGradient
       id="d"
       cx="570.86"
       cy="398.43"
       fx="613.1001782573674"
       fy="841.347906680515"
       r="444.93"
       gradientTransform="translate(410.75 -300.75) rotate(39.84) scale(1 1.09)"
       gradientUnits="userSpaceOnUse">
      <stop
         offset="0.86"
         stop-opacity="0"
         id="stop29" />
      <stop
         offset="0.98"
         stop-opacity="0.47"
         id="stop31" />
      <stop
         offset="1"
         id="stop33" />
    </radialGradient>
  </defs>
  <title
     id="title38">Nigeria-Logo</title>
  <circle
     cx="502.49"
     cy="490.94"
     r="401.79"
     style="fill:#50b651"
     id="circle40" />
  <path
     d="M903.05,489.81c0,222.6-180.45,403.05-403,403.05S97,712.41,97,489.81c0-98.47,2.76-113.11,41.52-169.17,0,0-2,63.32,44.43,101,28.87,23.41,59,6.51,114.15-18.89,59.66-27.5,108.16-45.24,146-40.56,57,7.06,232.69,112.57,324.38,91.56C840.73,437,833,264.3,833,264.3,913,342.42,903.05,395.22,903.05,489.81Z"
     style="fill-rule:evenodd;opacity:0.6629999876022339;isolation:isolate;fill:url(#a)"
     id="path42" />
  <path
     d="M673,785.86q218.65-205.67,72.69-471.24.74.54,18.06-62.32,77.68,94.07,82.61,232.22Q846.32,663.46,673,785.86Z"
     style="fill-rule:evenodd;opacity:0.5860000252723694;isolation:isolate;fill:url(#b)"
     id="path44" />
  <path
     d="M603.86,253.13C533.5,214.19,452.78,135.86,463.51,119.41s150-13.62,220.37,25.32,130.26,155.75,119.54,172.2S674.22,292.07,603.86,253.13Z"
     style="fill-rule:evenodd;opacity:0.7440000176429749;isolation:isolate;fill:url(#c)"
     id="path46" />
  <path
     d="M890.42,570.48C853.09,750.23,693.81,885.29,503,885.29c-218.53,0-395.69-177.16-395.69-395.69,0-135.76,68.37-255.55,172.55-326.8C195.21,233,141.31,339.05,141.31,457.64c0,211.53,171.48,383,383,383C696.57,840.64,842.25,726.93,890.42,570.48Z"
     style="fill-rule:evenodd;fill:url(#d)"
     id="path54" />
  <path
     d="M503,21C244.2,21,34.39,230.8,34.39,489.6S244.2,958.21,503,958.21,971.61,748.4,971.61,489.6,761.8,21,503,21Zm0,864.3c-218.53,0-395.69-177.16-395.69-395.69,0-135.76,68.37-255.55,172.55-326.8A393.82,393.82,0,0,1,503,93.91c218.53,0,395.69,177.15,395.69,395.69a397.6,397.6,0,0,1-8.27,80.88C853.09,750.23,693.81,885.29,503,885.29Z"
     style="fill:#fff;fill-rule:evenodd"
     id="path56" />
</svg>
