<?xml version="1.0" encoding="UTF-8" standalone="no"?>
<svg
   xmlns:dc="http://purl.org/dc/elements/1.1/"
   xmlns:cc="http://creativecommons.org/ns#"
   xmlns:rdf="http://www.w3.org/1999/02/22-rdf-syntax-ns#"
   xmlns:svg="http://www.w3.org/2000/svg"
   xmlns="http://www.w3.org/2000/svg"
   xmlns:xlink="http://www.w3.org/1999/xlink"
   xmlns:sodipodi="http://sodipodi.sourceforge.net/DTD/sodipodi-0.dtd"
   xmlns:inkscape="http://www.inkscape.org/namespaces/inkscape"
   viewBox="0 0 1000 1000"
   version="1.1"
   id="svg79"
   sodipodi:docname="Heritage Bank PLC.svg"
   inkscape:version="0.92.3 (2405546, 2018-03-11)">
  <metadata
     id="metadata83">
    <rdf:RDF>
      <cc:Work
         rdf:about="">
        <dc:format>image/svg+xml</dc:format>
        <dc:type
           rdf:resource="http://purl.org/dc/dcmitype/StillImage" />
      </cc:Work>
    </rdf:RDF>
  </metadata>
  <sodipodi:namedview
     pagecolor="#ffffff"
     bordercolor="#666666"
     borderopacity="1"
     objecttolerance="10"
     gridtolerance="10"
     guidetolerance="10"
     inkscape:pageopacity="0"
     inkscape:pageshadow="2"
     inkscape:window-width="640"
     inkscape:window-height="480"
     id="namedview81"
     showgrid="false"
     inkscape:zoom="0.236"
     inkscape:cx="434.32203"
     inkscape:cy="480.9322"
     inkscape:window-x="0"
     inkscape:window-y="27"
     inkscape:window-maximized="0"
     inkscape:current-layer="svg79" />
  <defs
     id="defs39">
    <linearGradient
       id="a"
       x1="196.82"
       y1="419.78"
       x2="244.42"
       y2="482.53"
       gradientUnits="userSpaceOnUse">
      <stop
         offset="0.76"
         stop-color="#68ac48"
         id="stop2" />
      <stop
         offset="0.78"
         stop-color="#6eaf4f"
         id="stop4" />
      <stop
         offset="0.81"
         stop-color="#7fb863"
         id="stop6" />
      <stop
         offset="0.84"
         stop-color="#9cc784"
         id="stop8" />
      <stop
         offset="0.88"
         stop-color="#c3dbb1"
         id="stop10" />
      <stop
         offset="0.89"
         stop-color="#cfe1bf"
         id="stop12" />
      <stop
         offset="0.91"
         stop-color="#a4c6a2"
         id="stop14" />
      <stop
         offset="0.93"
         stop-color="#4e9066"
         id="stop16" />
      <stop
         offset="0.95"
         stop-color="#176d41"
         id="stop18" />
      <stop
         offset="0.96"
         stop-color="#026032"
         id="stop20" />
    </linearGradient>
    <linearGradient
       id="b"
       x1="300.96"
       y1="403.56"
       x2="368.49"
       y2="492.58"
       xlink:href="#a"
       gradientTransform="translate(292.37288,16.949153)" />
    <linearGradient
       id="c"
       x1="265.51"
       y1="640.54"
       x2="303.45"
       y2="526.72"
       gradientUnits="userSpaceOnUse"
       gradientTransform="translate(292.37288,16.949153)">
      <stop
         offset="0.22"
         stop-color="#68ac48"
         id="stop24" />
      <stop
         offset="0.33"
         stop-color="#63a847"
         id="stop26" />
      <stop
         offset="0.46"
         stop-color="#559e44"
         id="stop28" />
      <stop
         offset="0.59"
         stop-color="#3e8c3f"
         id="stop30" />
      <stop
         offset="0.73"
         stop-color="#1d7438"
         id="stop32" />
      <stop
         offset="0.83"
         stop-color="#026032"
         id="stop34" />
    </linearGradient>
    <linearGradient
       id="d"
       x1="177.95"
       y1="564.81"
       x2="222.16"
       y2="623.09"
       xlink:href="#a" />
    <linearGradient
       id="e"
       x1="12.41"
       y1="494.48"
       x2="358.73"
       y2="494.48"
       xlink:href="#a"
       gradientTransform="translate(292.37288,16.949153)" />
    <linearGradient
       inkscape:collect="always"
       xlink:href="#a"
       id="linearGradient85"
       gradientUnits="userSpaceOnUse"
       x1="196.82"
       y1="419.78"
       x2="244.42"
       y2="482.53" />
  </defs>
  <title
     id="title41">Nigeria-Logo</title>
  <path
     d="m 335.81288,464.68915 c 13.62,9.39 25.79,16.39 43.44,22.21 l 14.55,-85.36 -49.76,0.41 z m -9.16,52.76 -18.61,116.16 h 48.23 l 13.87,-87.56 c -17.13,-8.05 -27.57,-10.98 -43.49,-28.6 z"
     style="fill:#68ac48"
     id="path43"
     inkscape:connector-curvature="0" />
  <polygon
     points="175.26,478.33 224.41,471.69 234.64,403.87 234.65,403.81 235.14,400.56 235.17,400.56 237.47,386.38 189.72,386.38 "
     style="fill:url(#linearGradient85)"
     id="polygon45"
     transform="translate(292.37288,16.949153)" />
  <path
     d="m 575.74288,403.32915 h -32.28 l -2.54,14.3 32.45,0.32 c 3,-0.2 31,3.76 27.91,35.73 -0.53,5.5 -7.05,28.86 -10.11,32.36 15.7,2.94 26.93,5 37.27,11.19 12.39,-9.13 22.12,-24.22 24.47,-40.24 7.46,-49.57 -35.25,-53.66 -77.17,-53.66 z"
     style="fill:url(#b)"
     id="path47"
     inkscape:connector-curvature="0" />
  <path
     d="m 594.37288,542.94915 c 2.81,15.72 4.45,26.41 -3.41,45.83 -7.56,18.65 -31.73,31.42 -43.41,30.73 l -39.46,-0.1 -2.1,11.67 h 44.75 c 59.74,3.87 81.63,-17.8 96.51,-54.13 -5.83,-11.31 -10.25,-27.52 -52.88,-34 z"
     style="fill:url(#c)"
     id="path49"
     inkscape:connector-curvature="0" />
  <polygon
     points="154.07,614.12 202.13,614.12 204.53,598.76 204.75,597.34 214.54,532.25 165.59,538.17 "
     style="fill:url(#d)"
     id="polygon51"
     transform="translate(292.37288,16.949153)" />
  <path
     d="m 304.78288,459.34915 c 0,0 59.59,47.15 125.27,47.15 65.68,0 74.9,-12.94 134.3,-12.94 60.94,0 91.58,17.87 86.13,70 0,0 -10,-32.68 -73.36,-32.68 -63.36,0 -75.75,15.79 -137.87,15.79 -62.12,0 -114.73,-23.66 -134.47,-87.32 z"
     style="fill:url(#e)"
     id="path53"
     inkscape:connector-curvature="0" />
</svg>
