<?xml version="1.0" encoding="UTF-8" standalone="no"?>
<svg
   xmlns:dc="http://purl.org/dc/elements/1.1/"
   xmlns:cc="http://creativecommons.org/ns#"
   xmlns:rdf="http://www.w3.org/1999/02/22-rdf-syntax-ns#"
   xmlns:svg="http://www.w3.org/2000/svg"
   xmlns="http://www.w3.org/2000/svg"
   xmlns:sodipodi="http://sodipodi.sourceforge.net/DTD/sodipodi-0.dtd"
   xmlns:inkscape="http://www.inkscape.org/namespaces/inkscape"
   width="1864"
   height="702"
   fill="none"
   version="1.1"
   id="svg4"
   sodipodi:docname="Hotels.ng.svg"
   inkscape:version="0.92.3 (2405546, 2018-03-11)">
  <metadata
     id="metadata10">
    <rdf:RDF>
      <cc:Work
         rdf:about="">
        <dc:format>image/svg+xml</dc:format>
        <dc:type
           rdf:resource="http://purl.org/dc/dcmitype/StillImage" />
      </cc:Work>
    </rdf:RDF>
  </metadata>
  <defs
     id="defs8" />
  <sodipodi:namedview
     pagecolor="#ffffff"
     bordercolor="#666666"
     borderopacity="1"
     objecttolerance="10"
     gridtolerance="10"
     guidetolerance="10"
     inkscape:pageopacity="0"
     inkscape:pageshadow="2"
     inkscape:window-width="640"
     inkscape:window-height="480"
     id="namedview6"
     showgrid="false"
     inkscape:zoom="0.17757511"
     inkscape:cx="833.45015"
     inkscape:cy="351"
     inkscape:window-x="0"
     inkscape:window-y="27"
     inkscape:window-maximized="0"
     inkscape:current-layer="svg4" />
  <path
     d="m 1301,555 h -47 c -5,0 -10,-5 -10,-11 v -59 c 0,-5 5,-10 10,-10 h 47 c 6,0 11,5 11,10 v 59 c 0,6 -5,11 -11,11 z m -1068,0 h -48 c -6,0 -11,-6 -11,-11 V 372 c 0,-45 -8,-57 -43,-57 -18,0 -39,6 -61,18 v 211 c 0,5 -5,11 -11,11 H 11 C 5,555 0,549 0,544 V 57 C 0,52 5,47 11,47 h 48 c 6,0 11,5 11,10 v 219 c 20,-12 42,-19 79,-19 73,0 95,51 95,115 v 172 c 0,5 -5,11 -11,11 z m 766,104 h -49 c -6,0 -11,-6 -11,-11 V 168 c 0,-6 5,-11 11,-11 h 49 c 6,0 10,5 10,11 v 480 c 0,5 -4,11 -10,11 z m 564,-104 h -48 c -6,0 -11,-6 -11,-11 V 374 c 0,-46 -4,-59 -45,-59 -18,0 -37,7 -59,19 v 210 c 0,5 -5,11 -11,11 h -48 c -6,0 -11,-6 -11,-11 V 271 c 0,-6 5,-11 11,-11 h 46 c 5,0 10,5 10,11 v 11 c 31,-20 51,-25 86,-25 76,0 91,50 91,117 v 170 c 0,5 -5,11 -11,11 z m 214,-198 c 0,-25 -11,-44 -56,-44 -45,0 -57,20 -57,44 v 5 c 0,19 7,41 57,41 43,0 56,-15 56,-41 z m 6,218 c 0,-11 -7,-18 -62,-31 l -47,-11 c -8,11 -14,18 -14,36 v 5 c 0,21 14,34 63,34 51,0 60,-10 60,-29 z m 67,-267 -18,7 c 9,12 13,23 13,41 v 4 c 0,65 -45,95 -124,95 -28,0 -47,-5 -58,-9 -6,4 -9,9 -9,14 0,10 6,14 18,17 l 62,15 c 72,16 118,27 118,83 v 4 c 0,53 -39,82 -129,82 -85,0 -131,-32 -131,-87 v -5 c 0,-21 10,-42 27,-57 -14.7323,-11.53799 -23.2379,-29.28881 -23,-48 v -1 c 0,-16 6,-32 21,-42 -16,-16 -22,-35 -22,-61 v -4 c 0,-52 34,-96 126,-96 h 123 c 8,0 14,7 14,14 v 22 c 0,8 -2,9 -8,12 z"
     id="path2"
     inkscape:connector-curvature="0"
     style="clip-rule:evenodd;fill:#00aeff;fill-rule:evenodd"
     sodipodi:nodetypes="sssssssssssssscsssssssscsssssssssssssssssscsssssssscssssssssssssccsssssccssscsccsssssccscssssssc" />
</svg>
