<?xml version="1.0" encoding="UTF-8" standalone="no"?>
<svg
   xmlns:dc="http://purl.org/dc/elements/1.1/"
   xmlns:cc="http://creativecommons.org/ns#"
   xmlns:rdf="http://www.w3.org/1999/02/22-rdf-syntax-ns#"
   xmlns:svg="http://www.w3.org/2000/svg"
   xmlns="http://www.w3.org/2000/svg"
   xmlns:sodipodi="http://sodipodi.sourceforge.net/DTD/sodipodi-0.dtd"
   xmlns:inkscape="http://www.inkscape.org/namespaces/inkscape"
   width="1761"
   height="501"
   viewBox="0 0 1761 501"
   fill="none"
   version="1.1"
   id="svg23"
   sodipodi:docname="Iroko TV.svg"
   inkscape:version="0.92.3 (2405546, 2018-03-11)">
  <metadata
     id="metadata27">
    <rdf:RDF>
      <cc:Work
         rdf:about="">
        <dc:format>image/svg+xml</dc:format>
        <dc:type
           rdf:resource="http://purl.org/dc/dcmitype/StillImage" />
      </cc:Work>
    </rdf:RDF>
  </metadata>
  <sodipodi:namedview
     pagecolor="#ffffff"
     bordercolor="#666666"
     borderopacity="1"
     objecttolerance="10"
     gridtolerance="10"
     guidetolerance="10"
     inkscape:pageopacity="0"
     inkscape:pageshadow="2"
     inkscape:window-width="640"
     inkscape:window-height="480"
     id="namedview25"
     showgrid="false"
     inkscape:zoom="0.18796139"
     inkscape:cx="787.39577"
     inkscape:cy="250.5"
     inkscape:window-x="0"
     inkscape:window-y="27"
     inkscape:window-maximized="0"
     inkscape:current-layer="g16" />
  <g
     clip-path="url(#clip0)"
     id="g16">
    <path
       d="m 723.13003,43.224133 c -0.63,-0.0052 -1.26,-0.0078 -1.88,-0.0078 -111.25,0 -192.2,79.301697 -192.2,189.994697 0,110.692 80.95,189.995 192.2,189.995 99.55,0 175.05,-64.149 189.24,-157.588 h -81.48 c -11.57,51.755 -51.23,88.198 -107.76,88.198 -68.29,0 -111.8,-52.317 -111.8,-120.605 0,-68.839 43.51,-120.605 111.8,-120.605 0.63,0 1.25,0.004 1.88,0.013 z"
       id="path4"
       inkscape:connector-curvature="0"
       style="fill:#be194b" />
    <path
       d="M 845.09003,242.08903 V 80.486033 h 57.84 v -37.2697 h -158.62 v 37.2697 h 58.14 V 242.08903 Z"
       id="path12"
       inkscape:connector-curvature="0"
       style="fill:#be194b" />
    <path
       d="m 1012.07,242.08903 76.62,-198.872697 h -48 l -55.15997,152.657697 -55.16,-152.657697 h -48 l 76.62,198.872697 z"
       id="path14"
       inkscape:connector-curvature="0"
       style="fill:#be194b" />
  </g>
  <defs
     id="defs21">
    <clipPath
       id="clip0">
      <rect
         width="1760.95"
         height="499.031"
         fill="white"
         transform="translate(0.0488281 0.984375)"
         id="rect18" />
    </clipPath>
  </defs>
</svg>
