<?xml version="1.0" encoding="UTF-8" standalone="no"?>
<svg
   xmlns:dc="http://purl.org/dc/elements/1.1/"
   xmlns:cc="http://creativecommons.org/ns#"
   xmlns:rdf="http://www.w3.org/1999/02/22-rdf-syntax-ns#"
   xmlns:svg="http://www.w3.org/2000/svg"
   xmlns="http://www.w3.org/2000/svg"
   xmlns:sodipodi="http://sodipodi.sourceforge.net/DTD/sodipodi-0.dtd"
   xmlns:inkscape="http://www.inkscape.org/namespaces/inkscape"
   width="2786"
   height="597"
   fill="none"
   version="1.1"
   id="svg8"
   sodipodi:docname="Julius Berger.svg"
   inkscape:version="0.92.3 (2405546, 2018-03-11)">
  <metadata
     id="metadata14">
    <rdf:RDF>
      <cc:Work
         rdf:about="">
        <dc:format>image/svg+xml</dc:format>
        <dc:type
           rdf:resource="http://purl.org/dc/dcmitype/StillImage" />
      </cc:Work>
    </rdf:RDF>
  </metadata>
  <defs
     id="defs12" />
  <sodipodi:namedview
     pagecolor="#ffffff"
     bordercolor="#666666"
     borderopacity="1"
     objecttolerance="10"
     gridtolerance="10"
     guidetolerance="10"
     inkscape:pageopacity="0"
     inkscape:pageshadow="2"
     inkscape:window-width="640"
     inkscape:window-height="480"
     id="namedview10"
     showgrid="false"
     inkscape:zoom="0.11880833"
     inkscape:cx="1245.7039"
     inkscape:cy="298.5"
     inkscape:window-x="0"
     inkscape:window-y="27"
     inkscape:window-maximized="0"
     inkscape:current-layer="svg8" />
  <path
     d="m 1524.3625,0 h -499 c -26.99996,0 -48.99996,21 -48.99996,49 v 499 c 0,26 22,49 48.99996,49 h 499 c 26,0 49,-21 49,-49 V 49 c -1,-28 -23,-49 -49,-49 z m 22,548 c 0,12 -9,21 -22,21 h -499 c -12,0 -21,-9 -21,-21 V 49 c 0,-12 9,-21 21,-21 h 499 c 13,0 22,9 22,21 z"
     id="path2"
     inkscape:connector-curvature="0"
     style="fill:#004680"
     sodipodi:nodetypes="ssssssscssssssssss" />
  <path
     d="m 1294.3625,266 c 11,-2 20,-5 26,-11 6,-6 9,-14 9,-25 0,-9 -3,-18 -7,-24 -7,-6 -14,-10 -25,-11 -6,0 -25,-2 -55,-2 h -36 v 74 h 42 z m 20,58 c -9,-3 -28,-5 -57,-5 h -51 v 85 h 59 c 23,0 37,0 44,-2 9,-1 17,-6 23,-12 6,-6 10,-16 10,-28 0,-9 -2,-17 -7,-24 -6,-7 -12,-11 -21,-14 z"
     id="path4"
     inkscape:connector-curvature="0"
     style="fill:#004680" />
  <path
     d="m 1491.3625,63 h -432 c -12,0 -22,9 -22,21 v 432 c 0,12 10,21 22,21 h 432 c 12,0 21,-11 21,-21 V 84 c 0,-12 -9,-21 -21,-21 z m -94,344 c -6,14 -16,24 -28,32 -12,8 -26,14 -43,15 -11,2 -37,2 -77,2 h -107 V 141 h 126 c 24,0 43,2 55,3 12,2 23,6 32,13 a 73,73 0 0 1 34,63 c 0,15 -4,27 -12,41 -8,12 -19,21 -32,28 20,6 33,15 44,29 11,13 15,29 15,47 2,14 -1,29 -7,42 z"
     id="path6"
     inkscape:connector-curvature="0"
     style="fill:#004680" />
</svg>
