<?xml version="1.0" encoding="UTF-8" standalone="no"?>
<svg
   xmlns:dc="http://purl.org/dc/elements/1.1/"
   xmlns:cc="http://creativecommons.org/ns#"
   xmlns:rdf="http://www.w3.org/1999/02/22-rdf-syntax-ns#"
   xmlns:svg="http://www.w3.org/2000/svg"
   xmlns="http://www.w3.org/2000/svg"
   xmlns:sodipodi="http://sodipodi.sourceforge.net/DTD/sodipodi-0.dtd"
   xmlns:inkscape="http://www.inkscape.org/namespaces/inkscape"
   viewBox="0 0 1000 1000"
   version="1.1"
   id="svg107"
   sodipodi:docname="Nigerian Breweries PLC.svg"
   inkscape:version="0.92.3 (2405546, 2018-03-11)">
  <metadata
     id="metadata111">
    <rdf:RDF>
      <cc:Work
         rdf:about="">
        <dc:format>image/svg+xml</dc:format>
        <dc:type
           rdf:resource="http://purl.org/dc/dcmitype/StillImage" />
      </cc:Work>
    </rdf:RDF>
  </metadata>
  <sodipodi:namedview
     pagecolor="#ffffff"
     bordercolor="#666666"
     borderopacity="1"
     objecttolerance="10"
     gridtolerance="10"
     guidetolerance="10"
     inkscape:pageopacity="0"
     inkscape:pageshadow="2"
     inkscape:window-width="640"
     inkscape:window-height="480"
     id="namedview109"
     showgrid="false"
     inkscape:zoom="0.236"
     inkscape:cx="425.84746"
     inkscape:cy="500"
     inkscape:window-x="0"
     inkscape:window-y="27"
     inkscape:window-maximized="0"
     inkscape:current-layer="svg107" />
  <defs
     id="defs85">
    <linearGradient
       id="a"
       x1="383.33"
       y1="819.82"
       x2="668.66"
       y2="819.82"
       gradientUnits="userSpaceOnUse">
      <stop
         offset="0"
         stop-color="#020f58"
         id="stop2" />
      <stop
         offset="0.18"
         stop-color="#02125c"
         id="stop4" />
      <stop
         offset="0.34"
         stop-color="#031b67"
         id="stop6" />
      <stop
         offset="0.51"
         stop-color="#042b7b"
         id="stop8" />
      <stop
         offset="0.67"
         stop-color="#064196"
         id="stop10" />
      <stop
         offset="0.84"
         stop-color="#095db9"
         id="stop12" />
      <stop
         offset="1"
         stop-color="#0c7fe3"
         id="stop14" />
      <stop
         offset="1"
         stop-color="#0c80e4"
         id="stop16" />
    </linearGradient>
    <linearGradient
       id="b"
       x1="462.2"
       y1="60.98"
       x2="275.31"
       y2="285.25"
       gradientUnits="userSpaceOnUse">
      <stop
         offset="0"
         stop-color="#0c80e4"
         id="stop19" />
      <stop
         offset="0.24"
         stop-color="#0858b2"
         id="stop21" />
      <stop
         offset="0.47"
         stop-color="#06388b"
         id="stop23" />
      <stop
         offset="0.68"
         stop-color="#04226f"
         id="stop25" />
      <stop
         offset="0.86"
         stop-color="#02145e"
         id="stop27" />
      <stop
         offset="1"
         stop-color="#020f58"
         id="stop29" />
    </linearGradient>
    <linearGradient
       id="c"
       x1="819.45"
       y1="129.3"
       x2="385.41"
       y2="536.05"
       gradientUnits="userSpaceOnUse">
      <stop
         offset="0"
         stop-color="#020f58"
         id="stop32" />
      <stop
         offset="0.1"
         stop-color="#02125b"
         id="stop34" />
      <stop
         offset="0.19"
         stop-color="#031a65"
         id="stop36" />
      <stop
         offset="0.26"
         stop-color="#042776"
         id="stop38" />
      <stop
         offset="0.34"
         stop-color="#063b8e"
         id="stop40" />
      <stop
         offset="0.41"
         stop-color="#0854ad"
         id="stop42" />
      <stop
         offset="0.47"
         stop-color="#0b72d2"
         id="stop44" />
      <stop
         offset="0.5"
         stop-color="#0c80e4"
         id="stop46" />
      <stop
         offset="0.57"
         stop-color="#0c7cdf"
         id="stop48" />
      <stop
         offset="0.67"
         stop-color="#0b6fd0"
         id="stop50" />
      <stop
         offset="0.77"
         stop-color="#095bb6"
         id="stop52" />
      <stop
         offset="0.87"
         stop-color="#073f94"
         id="stop54" />
      <stop
         offset="0.98"
         stop-color="#031b67"
         id="stop56" />
      <stop
         offset="1"
         stop-color="#031560"
         id="stop58" />
    </linearGradient>
    <linearGradient
       id="d"
       x1="294.23"
       y1="614.08"
       x2="716.74"
       y2="614.08"
       gradientUnits="userSpaceOnUse">
      <stop
         offset="0.1"
         stop-color="#d2ae66"
         id="stop61" />
      <stop
         offset="0.17"
         stop-color="#cda453"
         id="stop63" />
      <stop
         offset="0.36"
         stop-color="#f2e8d3"
         id="stop65" />
      <stop
         offset="0.39"
         stop-color="#f8f2e6"
         id="stop67" />
      <stop
         offset="0.48"
         stop-color="#f0e3ca"
         id="stop69" />
      <stop
         offset="0.65"
         stop-color="#e1c897"
         id="stop71" />
      <stop
         offset="0.8"
         stop-color="#d6b472"
         id="stop73" />
      <stop
         offset="0.92"
         stop-color="#cfa85b"
         id="stop75" />
      <stop
         offset="1"
         stop-color="#cda453"
         id="stop77" />
    </linearGradient>
    <radialGradient
       id="e"
       cx="465.66"
       cy="453.96"
       r="148.37"
       gradientUnits="userSpaceOnUse">
      <stop
         offset="0"
         stop-color="#0c80e4"
         id="stop80" />
      <stop
         offset="1"
         stop-color="#020f58"
         id="stop82" />
    </radialGradient>
  </defs>
  <title
     id="title87">Nigeria-Logo</title>
  <path
     d="M674.43,636.85C660,766.52,636.79,906.19,618.27,959.12c0,0-50.77,33.72-119.68,32.21-80.37,1.31-126-35.54-126-35.54a53.49,53.49,0,0,0,10.74,3.54c16.93,10.3,56.4,29.49,114.21,28.55,67.56,1.48,117.34-31.58,117.34-31.58,17.63-50.35,39.59-180.75,53.78-304.59Q671.56,644.39,674.43,636.85Z"
     style="fill:#cda453"
     id="path89" />
  <path
     d="M668.66,651.71C654.47,775.55,632.51,906,614.88,956.3c0,0-49.78,33.06-117.34,31.58-57.81.94-97.28-18.25-114.21-28.55C419.78,967.93,543.56,969.32,668.66,651.71Z"
     style="fill:url(#a)"
     id="path91" />
  <path
     d="M494.08,62.78s-2.36,1.79-6.6,5.57C429.45,70.18,310.58,84,310.58,84c-8.54,118.28-8.21,267.89-7.67,327q-2.78,10-5.44,20.31s-3.54-201.82,7.35-352.66C304.82,78.66,442.92,62.57,494.08,62.78Z"
     style="fill:#cda453"
     id="path93" />
  <path
     d="M487.48,68.35C461.44,91.53,364.3,189.69,302.91,411c-.54-59.09-.87-208.7,7.67-327C310.58,84,429.45,70.18,487.48,68.35Z"
     style="fill:url(#b)"
     id="path95" />
  <ellipse
     cx="500"
     cy="487.49"
     rx="490.15"
     ry="211.44"
     transform="translate(-92.05 857.79) rotate(-76.3)"
     style="fill:#fff"
     id="ellipse97" />
  <path
     d="M392.74,247s83.9-130.1,163.09-130.1,102.08,101.28,102.08,199c3.88,101.35-37,258.08-90.12,382.75,0,0,132.58-205.24,132.58-448.51C700.37,151.88,668,44,597,44,495.06,44,392.74,247,392.74,247Z"
     style="fill:url(#c)"
     id="path99" />
  <path
     d="M297.71,613.12c0,71.75,19.3,234.23,113.85,234.23,180.21,0,288.81-416,304.64-554.82,10.27,162-127.83,643.1-318,643.1C265.32,935.63,297.71,613.12,297.71,613.12Z"
     style="fill:url(#d)"
     id="path101" />
</svg>
