<?xml version="1.0" encoding="UTF-8" standalone="no"?>
<svg
   xmlns:dc="http://purl.org/dc/elements/1.1/"
   xmlns:cc="http://creativecommons.org/ns#"
   xmlns:rdf="http://www.w3.org/1999/02/22-rdf-syntax-ns#"
   xmlns:svg="http://www.w3.org/2000/svg"
   xmlns="http://www.w3.org/2000/svg"
   xmlns:sodipodi="http://sodipodi.sourceforge.net/DTD/sodipodi-0.dtd"
   xmlns:inkscape="http://www.inkscape.org/namespaces/inkscape"
   id="Layer_1"
   data-name="Layer 1"
   viewBox="0 0 443.76 714.94"
   version="1.1"
   sodipodi:docname="ntel.svg"
   inkscape:version="0.92.3 (2405546, 2018-03-11)">
  <metadata
     id="metadata25">
    <rdf:RDF>
      <cc:Work
         rdf:about="">
        <dc:format>image/svg+xml</dc:format>
        <dc:type
           rdf:resource="http://purl.org/dc/dcmitype/StillImage" />
      </cc:Work>
    </rdf:RDF>
  </metadata>
  <sodipodi:namedview
     pagecolor="#ffffff"
     bordercolor="#666666"
     borderopacity="1"
     objecttolerance="10"
     gridtolerance="10"
     guidetolerance="10"
     inkscape:pageopacity="0"
     inkscape:pageshadow="2"
     inkscape:window-width="640"
     inkscape:window-height="480"
     id="namedview23"
     showgrid="false"
     inkscape:zoom="0.33009763"
     inkscape:cx="168.86539"
     inkscape:cy="357.47"
     inkscape:window-x="0"
     inkscape:window-y="27"
     inkscape:window-maximized="0"
     inkscape:current-layer="Layer_1" />
  <defs
     id="defs4">
    <style
       id="style2">.cls-1{fill:#8aceb6;}.cls-2{fill:#89ceb6;}.cls-3{fill:#e6077d;}.cls-4{fill:#d2dd24;}</style>
  </defs>
  <title
     id="title6">ntel-logo</title>
  <path
     class="cls-2"
     d="m 300.29941,254.5322 c -12,-14.36 -26.43,-25.63 -45.43,-27.92 -13.36,-1.61 -27,-0.45 -40.56,-0.86 -20.95,-0.64 -39.54,-7 -53.53,-23.5 -8.48,-10 -14.94,-21 -15.25,-34.64 a 38.64,38.64 0 0 1 -0.06,-17.25 c 0.78,-27.3 25.1,-55.349996 55.43,-57.639996 31.28,-2.36 63.32,-4 94.07,5.22 q 119.15,35.669996 147.19,157.269996 c 3.24,14.16 3.89,28.5 3.83,43 -0.27,63.56 -0.22,127.13 -0.28,190.69 -1.38,9.24 -0.45,18.53 -0.54,27.8 1.93,32.68 -27.91,65.45 -60.73,66.58 -4.69,0.16 -9.39,-0.19 -14.08,-0.3 -14.18,-4.24 -28,-8.71 -38.61,-20.26 -11.66,-12.67 -17.93,-27.1 -18,-44.15 -0.09,-73.56 0,-147.13 -0.09,-220.7 0.03,-15.72 -3.83,-30.46 -13.36,-43.34 z"
     id="path16"
     inkscape:connector-curvature="0"
     style="fill:#89ceb6" />
  <rect
     class="cls-3"
     x="4.6394067"
     y="92.922203"
     width="131.42999"
     height="346.31"
     rx="65.720001"
     ry="65.720001"
     id="rect18"
     style="fill:#e6077d" />
  <circle
     class="cls-4"
     cx="70.349403"
     cy="514.76221"
     r="66.519997"
     id="circle20"
     style="fill:#d2dd24" />
</svg>
