<?xml version="1.0" encoding="UTF-8" standalone="no"?>
<svg
   xmlns:dc="http://purl.org/dc/elements/1.1/"
   xmlns:cc="http://creativecommons.org/ns#"
   xmlns:rdf="http://www.w3.org/1999/02/22-rdf-syntax-ns#"
   xmlns:svg="http://www.w3.org/2000/svg"
   xmlns="http://www.w3.org/2000/svg"
   xmlns:sodipodi="http://sodipodi.sourceforge.net/DTD/sodipodi-0.dtd"
   xmlns:inkscape="http://www.inkscape.org/namespaces/inkscape"
   viewBox="0 0 1000 1000"
   version="1.1"
   id="svg40"
   sodipodi:docname="Oando PLC.svg"
   inkscape:version="0.92.3 (2405546, 2018-03-11)">
  <metadata
     id="metadata44">
    <rdf:RDF>
      <cc:Work
         rdf:about="">
        <dc:format>image/svg+xml</dc:format>
        <dc:type
           rdf:resource="http://purl.org/dc/dcmitype/StillImage" />
      </cc:Work>
    </rdf:RDF>
  </metadata>
  <sodipodi:namedview
     pagecolor="#ffffff"
     bordercolor="#666666"
     borderopacity="1"
     objecttolerance="10"
     gridtolerance="10"
     guidetolerance="10"
     inkscape:pageopacity="0"
     inkscape:pageshadow="2"
     inkscape:window-width="640"
     inkscape:window-height="480"
     id="namedview42"
     showgrid="false"
     inkscape:zoom="0.236"
     inkscape:cx="434.32203"
     inkscape:cy="480.9322"
     inkscape:window-x="0"
     inkscape:window-y="27"
     inkscape:window-maximized="0"
     inkscape:current-layer="svg40" />
  <defs
     id="defs10">
    <clipPath
       id="a">
      <path
         d="M1035.2,474.48A90.82,90.82,0,1,0,1126,383.66a90.84,90.84,0,0,0-90.82,90.82"
         style="fill:none"
         id="path2" />
    </clipPath>
    <linearGradient
       id="b"
       x1="-6182.32"
       y1="3938.86"
       x2="-6175.3"
       y2="3938.86"
       gradientTransform="translate(42127.95 -184727.42) rotate(-45) scale(25.89)"
       gradientUnits="userSpaceOnUse">
      <stop
         offset="0"
         stop-color="#c9cacb"
         id="stop5" />
      <stop
         offset="1"
         stop-color="#e8e8e9"
         id="stop7" />
    </linearGradient>
  </defs>
  <title
     id="title12">Nigeria-Logo</title>
  <path
     d="m 486.29932,331.76 h 3 c 0.15,1.05 1,1 1.73,1 a 179.18,179.18 0 0 1 21,1.35 163,163 0 0 1 32.24,7.06 184.74,184.74 0 0 1 21,8.8 111.06,111.06 0 0 1 15.33,9.62 c 5.49,3.83 10.37,8.56 15.18,13.22 a 118.33,118.33 0 0 1 14,16.53 c 6.16,8.5 10.75,17.74 15.18,27.21 1.58,3.46 2.63,7.06 4,10.6 a 142.13,142.13 0 0 1 5.91,19.85 c 1.43,6.46 2.41,13.15 3.24,19.76 a 279.8,279.8 0 0 1 2.33,30.59 c 0.07,3.9 -0.23,7.81 -0.3,11.64 a 222.84,222.84 0 0 1 -2.11,25.41 c -0.9,6.61 -1.8,13.22 -3.31,19.76 a 183.67,183.67 0 0 1 -7.44,24.35 73.83,73.83 0 0 1 -5.26,11.65 c -0.07,0 -0.15,-0.08 -0.22,-0.08 -0.07,0 0.15,0.08 0.22,0.08 a 4,4 0 0 1 -0.37,1.65 c -2.33,4.74 -5.41,9.09 -7.82,13.83 -2.63,5.18 -6.84,9.47 -10.37,14 a 101.72,101.72 0 0 1 -18.49,17.88 125.27,125.27 0 0 1 -17.88,11.88 c -3.83,2 -7.67,4.2 -11.72,5.86 -3,1.28 -6.32,2.1 -9.32,3.38 -7,2.93 -14.36,4.28 -21.65,6.16 a 50.07,50.07 0 0 1 -6.84,1.2 c -5.33,0.61 -10.67,1.13 -16,1.66 -6.47,0.52 -12.93,0.45 -19.39,0.6 a 78.56,78.56 0 0 1 -13.83,-0.68 c -4.73,-0.75 -9.62,-0.75 -14.2,-1.8 -6.84,-1.58 -13.76,-2.78 -20.44,-4.81 -7.37,-2.18 -14.36,-5.34 -21.35,-8.42 -6.99,-3.08 -13.3,-7.51 -19.61,-12 -4.13,-2.93 -7.74,-6.38 -11.57,-9.69 -1.13,-1 -2,-2.11 -3.09,-3.16 a 77,77 0 0 1 -8.94,-9.54 c -3.38,-4.59 -6.69,-9.17 -9.69,-14 a 150.89,150.89 0 0 1 -17.81,-41.56 c -1.88,-7.22 -3.38,-14.43 -4.81,-21.72 -2,-11.05 -2.63,-22.17 -3.23,-33.29 a 141,141 0 0 1 0.52,-24.65 c 0.45,-3.53 0.23,-7.07 0.83,-10.6 1,-5.86 1.5,-11.8 2.7,-17.58 1.21,-6 2.63,-12 4.29,-18 a 166.6,166.6 0 0 1 7.89,-22.32 c 1.5,-3.53 3.46,-6.91 5.18,-10.29 a 136.73,136.73 0 0 1 8.8,-14.66 105.54,105.54 0 0 1 11.34,-13.82 147.31,147.31 0 0 1 13.16,-12.48 113,113 0 0 1 14.57,-9.92 c 4.66,-2.7 9.55,-5 14.36,-7.44 3.61,-1.88 7.51,-2.93 11.27,-4.36 a 153.7,153.7 0 0 1 18.11,-5.26 116.32,116.32 0 0 1 11.5,-1.88 c 7.06,-1 14.05,-1.95 21.19,-1.8 h 5 c 0.86,0.21 1.84,0.47 1.99,-0.77 z m 1.73,318.86 a 137.47,137.47 0 0 0 24.72,-2.62 100.58,100.58 0 0 0 18.64,-5.86 97.71,97.71 0 0 0 20.74,-12 106.34,106.34 0 0 0 16.84,-16 110.29,110.29 0 0 0 11.5,-16.09 c 1.57,-2.85 3.3,-5.71 4.73,-8.71 a 199.65,199.65 0 0 0 8.49,-21.34 c 1.05,-3.23 2.11,-6.46 2.86,-9.69 a 246.52,246.52 0 0 0 5.26,-28.71 c 1.05,-8.57 1.28,-17.13 1.8,-25.7 0.45,-8 -0.3,-15.86 -0.82,-23.82 a 194.38,194.38 0 0 0 -2.71,-21.87 c -2.63,-14.58 -6.46,-28.86 -12.63,-42.39 a 123.25,123.25 0 0 0 -12.7,-22.39 c -5.56,-7.59 -11.57,-14.81 -19.08,-20.74 a 100.36,100.36 0 0 0 -28.34,-16.24 112.89,112.89 0 0 0 -40.88,-6.68 c -3.08,0.07 -6.09,0.22 -9.17,0.45 a 107.68,107.68 0 0 0 -14.72,1.91 100.84,100.84 0 0 0 -28.4,10.14 84.52,84.52 0 0 0 -11.35,7.14 126.46,126.46 0 0 0 -15.78,14.65 109.51,109.51 0 0 0 -9.77,12.85 133.78,133.78 0 0 0 -12.4,23.68 129.72,129.72 0 0 0 -5,13.75 237.09,237.09 0 0 0 -6.92,32.39 c -1.38,10.27 -1.69,20.44 -2.22,30.66 -0.38,7.37 0.45,14.73 0.83,22.1 a 174.07,174.07 0 0 0 2.7,23.37 c 2.93,15.55 7.14,30.73 14.21,45 a 123.86,123.86 0 0 0 15,24.28 100.22,100.22 0 0 0 44.18,32.09 c 13.04,4.67 26.49,6.09 40.39,6.39 z"
     style="fill:#f6d600"
     id="path24"
     inkscape:connector-curvature="0" />
  <path
     d="m 488.02932,650.62 c -13.83,-0.3 -27.35,-1.72 -40.36,-6.53 a 98.62,98.62 0 0 1 -23,-12 105,105 0 0 1 -21.18,-20.09 127.28,127.28 0 0 1 -15,-24.28 c -7.07,-14.28 -11.2,-29.46 -14.21,-45 a 171.3,171.3 0 0 1 -2.72,-23.38 c -0.38,-7.37 -1.21,-14.73 -0.83,-22.1 0.45,-10.22 0.75,-20.44 2.25,-30.66 a 237.09,237.09 0 0 1 6.92,-32.39 129.72,129.72 0 0 1 5,-13.75 139.29,139.29 0 0 1 12.4,-23.68 122.55,122.55 0 0 1 9.77,-12.85 126.46,126.46 0 0 1 15.78,-14.65 92.19,92.19 0 0 1 11.35,-7.14 98.29,98.29 0 0 1 28.36,-10.12 107.64,107.64 0 0 1 14.73,-1.87 c 3.08,-0.15 6.09,-0.38 9.17,-0.45 a 114.64,114.64 0 0 1 40.88,6.68 99.55,99.55 0 0 1 28.34,16.24 c 7.51,5.93 13.52,13.15 19.08,20.74 a 128.88,128.88 0 0 1 12.7,22.39 c 6.24,13.53 10,27.81 12.63,42.39 a 194.38,194.38 0 0 1 2.7,21.88 c 0.52,8 1.27,15.85 0.82,23.82 -0.52,8.57 -0.75,17.13 -1.8,25.7 a 246.52,246.52 0 0 1 -5.25,28.67 c -0.83,3.23 -1.81,6.54 -2.86,9.69 a 194,194 0 0 1 -8.49,21.35 c -1.43,3 -3.08,5.86 -4.73,8.71 a 101.92,101.92 0 0 1 -11.51,16.06 99.7,99.7 0 0 1 -37.58,28 100.58,100.58 0 0 1 -18.64,5.86 125.94,125.94 0 0 1 -24.72,2.76 z m 22.32,-44.49 c 1.13,0 2.33,0.08 3.46,0 1.13,-0.08 2.25,-0.37 3.45,-0.45 a 69.74,69.74 0 0 0 30.59,-9.32 89.2,89.2 0 0 0 23.82,-19.31 c 5.19,-5.94 10,-12.25 13.38,-19.31 a 76.39,76.39 0 0 0 7.14,-43.36 105.07,105.07 0 0 0 -9.32,-31.27 c -7.21,-15.55 -17.43,-29.16 -29.08,-41.56 a 181.09,181.09 0 0 0 -35.47,-29.55 118.28,118.28 0 0 0 -28,-13.23 c -10.67,-3.38 -21.64,-5.26 -33,-4.2 a 78.07,78.07 0 0 0 -12.47,2 80,80 0 0 0 -28.71,14.28 95,95 0 0 0 -22.92,24.88 74.58,74.58 0 0 0 -11.2,50.72 103.93,103.93 0 0 0 9.54,31.76 156,156 0 0 0 22.47,33.89 195.22,195.22 0 0 0 26.53,25.78 145.75,145.75 0 0 0 32.16,19.69 98,98 0 0 0 37.63,8.56 z"
     style="fill:#f4b400"
     id="path26"
     inkscape:connector-curvature="0" />
  <path
     d="m 622.01932,590.2 c -0.07,0 -0.15,-0.07 -0.22,-0.07 a 0.28,0.28 0 0 1 0.22,0.07 z"
     style="fill:#636363"
     id="path28"
     inkscape:connector-curvature="0" />
  <path
     d="m 510.34932,606.13 a 97.37,97.37 0 0 1 -37.73,-8.64 142.43,142.43 0 0 1 -32.16,-19.69 195.75,195.75 0 0 1 -26.53,-25.8 c -8.79,-10.45 -16.53,-21.5 -22.47,-33.9 a 103.94,103.94 0 0 1 -9.54,-31.71 74.73,74.73 0 0 1 11.35,-50.73 94.8,94.8 0 0 1 22.92,-24.87 79.61,79.61 0 0 1 28.7,-14.28 76.62,76.62 0 0 1 12.48,-2 c 11.35,-1.05 22.24,0.83 33,4.21 a 122.37,122.37 0 0 1 28,13.23 177.7,177.7 0 0 1 35.47,29.53 c 11.72,12.52 21.89,26 29.11,41.52 a 105.08,105.08 0 0 1 9.31,31.26 76.09,76.09 0 0 1 -7.14,43.36 c -3.45,7.14 -8.19,13.38 -13.37,19.32 a 88.5,88.5 0 0 1 -23.82,19.31 69.5,69.5 0 0 1 -30.59,9.32 c -1.13,0.07 -2.26,0.37 -3.46,0.45 a 28,28 0 0 1 -3.53,0.11 z m -5.79,-180.13 a 62.09,62.09 0 0 0 -21.64,3.83 c -15.26,5.49 -28.11,14.81 -39.53,26.15 a 123.43,123.43 0 0 0 -15,17.59 c -10,14.73 -17.06,30.28 -15.49,48.62 a 46.76,46.76 0 0 0 4.06,16 65.76,65.76 0 0 0 20.22,25.1 53.37,53.37 0 0 0 30,11.27 55.78,55.78 0 0 0 21,-3 c 16.23,-5.27 29.91,-14.66 42,-26.53 a 123.3,123.3 0 0 0 18.72,-23.15 c 8.11,-13.3 13.6,-27.35 12.32,-43.44 a 50.86,50.86 0 0 0 -6.54,-21.19 65.09,65.09 0 0 0 -15,-17.73 c -10.12,-8.52 -21.74,-13.45 -35.12,-13.52 z"
     style="fill:#ea6e00"
     id="path30"
     inkscape:connector-curvature="0" />
  <path
     d="m 504.55932,426 c 13.46,0.15 24.95,5 35.1,13.6 a 65.3,65.3 0 0 1 15,17.74 51,51 0 0 1 6.54,21.19 c 1.27,16.08 -4.21,30.06 -12.33,43.44 a 118,118 0 0 1 -18.71,23.14 c -12.1,11.88 -25.78,21.27 -42,26.53 a 55.77,55.77 0 0 1 -21,3 53.83,53.83 0 0 1 -30,-11.28 67,67 0 0 1 -20.21,-25.1 47.35,47.35 0 0 1 -4.06,-16 c -1.58,-18.42 5.49,-34 15.48,-48.63 a 119.55,119.55 0 0 1 15,-17.58 c 11.42,-11.35 24.27,-20.67 39.52,-26.15 a 59.62,59.62 0 0 1 21.67,-3.9 z m 33.75,75.52 c 0.22,-16.83 -6.84,-28.25 -20.9,-34.94 -18,-8.57 -36.74,-8.64 -55.46,-2.33 -10,3.38 -18.11,9.47 -22.77,19.24 a 38.74,38.74 0 0 0 -3.3,21 c 1.05,10.07 5.18,18.49 13.07,24.8 10,8 22,10.67 34.35,11.35 a 72.5,72.5 0 0 0 28.85,-4.14 c 15.79,-5.67 26.61,-18.37 26.16,-34.98 z"
     style="fill:#d50016"
     id="path32"
     inkscape:connector-curvature="0" />
  <path
     d="m 538.30932,501.52 c 0.45,16.61 -10.37,29.24 -26.08,35 a 72.55,72.55 0 0 1 -28.86,4.14 c -12.47,-0.68 -24.35,-3.31 -34.34,-11.35 -7.89,-6.31 -12.1,-14.65 -13.08,-24.8 a 38.75,38.75 0 0 1 3.31,-21 c 4.66,-9.77 12.77,-15.86 22.77,-19.24 18.71,-6.31 37.42,-6.24 55.46,2.33 13.98,6.67 21.07,18.09 20.82,34.92 z"
     style="fill:#370773"
     id="path34"
     inkscape:connector-curvature="0" />
</svg>
