<?xml version="1.0" encoding="UTF-8" standalone="no"?>
<svg
   xmlns:dc="http://purl.org/dc/elements/1.1/"
   xmlns:cc="http://creativecommons.org/ns#"
   xmlns:rdf="http://www.w3.org/1999/02/22-rdf-syntax-ns#"
   xmlns:svg="http://www.w3.org/2000/svg"
   xmlns="http://www.w3.org/2000/svg"
   xmlns:sodipodi="http://sodipodi.sourceforge.net/DTD/sodipodi-0.dtd"
   xmlns:inkscape="http://www.inkscape.org/namespaces/inkscape"
   width="1926"
   height="533"
   fill="none"
   version="1.1"
   id="svg26"
   sodipodi:docname="Opera.svg"
   inkscape:version="0.92.3 (2405546, 2018-03-11)">
  <metadata
     id="metadata30">
    <rdf:RDF>
      <cc:Work
         rdf:about="">
        <dc:format>image/svg+xml</dc:format>
        <dc:type
           rdf:resource="http://purl.org/dc/dcmitype/StillImage" />
      </cc:Work>
    </rdf:RDF>
  </metadata>
  <sodipodi:namedview
     pagecolor="#ffffff"
     bordercolor="#666666"
     borderopacity="1"
     objecttolerance="10"
     gridtolerance="10"
     guidetolerance="10"
     inkscape:pageopacity="0"
     inkscape:pageshadow="2"
     inkscape:window-width="640"
     inkscape:window-height="480"
     id="namedview28"
     showgrid="false"
     inkscape:zoom="0.17185877"
     inkscape:cx="861.17221"
     inkscape:cy="266.5"
     inkscape:window-x="0"
     inkscape:window-y="27"
     inkscape:window-maximized="0"
     inkscape:current-layer="svg26" />
  <path
     d="m 865.72931,0 a 266.5,266.5 0 1 0 177.69999,465.2 192.2,192.2 0 0 1 -106.79999,32.6 c -63.5,0 -120.3,-31.5 -158.5,-81.2 -29.5,-34.7 -48.6,-86.1 -49.9,-143.8 v -12.6 c 1.3,-57.7 20.4,-109.1 49.8,-143.9 38.3,-49.6 95.1,-81 158.6,-81 39,0 75.59999,11.8 106.79999,32.6 C 996.42931,25.9 934.62931,0.3 866.82931,0 h -1 z"
     id="path2"
     style="fill:url(#paint0_linear)"
     inkscape:connector-curvature="0" />
  <path
     d="m 778.02931,116.3 c 24.5,-28.8 56,-46.2 90.6,-46.2 77.6,0 140.49999,88 140.49999,196.4 0,108.5 -62.89999,196.4 -140.49999,196.4 -34.5,0 -66,-17.4 -90.5,-46.2 38.2,49.6 95,81.1 158.5,81.1 39,0 75.59999,-11.9 106.79999,-32.6 a 266,266 0 0 0 88.9,-198.7 c 0,-79 -34.3,-149.9 -88.8,-198.7 A 192,192 0 0 0 936.72931,35.2 c -63.5,0 -120.3,31.5 -158.5,81.2"
     id="path4"
     style="fill:url(#paint1_linear)"
     inkscape:connector-curvature="0" />
  <defs
     id="defs24">
    <linearGradient
       id="paint0_linear"
       x1="222"
       y1="8.7"
       x2="222"
       y2="525.2"
       gradientUnits="userSpaceOnUse"
       gradientTransform="translate(599.32931)">
      <stop
         stop-color="#FF1B2D"
         id="stop8" />
      <stop
         offset=".3"
         stop-color="#FF1B2D"
         id="stop10" />
      <stop
         offset=".6"
         stop-color="#FF1B2D"
         id="stop12" />
      <stop
         offset="1"
         stop-color="#A70014"
         id="stop14" />
    </linearGradient>
    <linearGradient
       id="paint1_linear"
       x1="355.9"
       y1="39.1"
       x2="355.9"
       y2="496"
       gradientUnits="userSpaceOnUse"
       gradientTransform="translate(599.32931)">
      <stop
         stop-color="#9C0000"
         id="stop17" />
      <stop
         offset=".7"
         stop-color="#FF4B4B"
         id="stop19" />
      <stop
         offset="1"
         stop-color="#FF4B4B"
         id="stop21" />
    </linearGradient>
  </defs>
</svg>
