<?xml version="1.0" encoding="UTF-8" standalone="no"?>
<svg
   xmlns:dc="http://purl.org/dc/elements/1.1/"
   xmlns:cc="http://creativecommons.org/ns#"
   xmlns:rdf="http://www.w3.org/1999/02/22-rdf-syntax-ns#"
   xmlns:svg="http://www.w3.org/2000/svg"
   xmlns="http://www.w3.org/2000/svg"
   xmlns:sodipodi="http://sodipodi.sourceforge.net/DTD/sodipodi-0.dtd"
   xmlns:inkscape="http://www.inkscape.org/namespaces/inkscape"
   viewBox="0 0 1000 1000"
   version="1.1"
   id="svg82"
   sodipodi:docname="Sterling Bank Plc.svg"
   inkscape:version="0.92.3 (2405546, 2018-03-11)">
  <metadata
     id="metadata88">
    <rdf:RDF>
      <cc:Work
         rdf:about="">
        <dc:format>image/svg+xml</dc:format>
        <dc:type
           rdf:resource="http://purl.org/dc/dcmitype/StillImage" />
      </cc:Work>
    </rdf:RDF>
  </metadata>
  <defs
     id="defs86" />
  <sodipodi:namedview
     pagecolor="#ffffff"
     bordercolor="#666666"
     borderopacity="1"
     objecttolerance="10"
     gridtolerance="10"
     guidetolerance="10"
     inkscape:pageopacity="0"
     inkscape:pageshadow="2"
     inkscape:window-width="640"
     inkscape:window-height="480"
     id="namedview84"
     showgrid="false"
     inkscape:zoom="0.236"
     inkscape:cx="425.84746"
     inkscape:cy="500"
     inkscape:window-x="0"
     inkscape:window-y="27"
     inkscape:window-maximized="0"
     inkscape:current-layer="svg82" />
  <title
     id="title2">Nigeria-Logo</title>
  <path
     d="m 712.18356,496.25424 c 0.56,125.89 -101.61,233.14 -233.16,233.31 -128.34,0.15 -233.68,-103.31 -233.58,-233.55 0.1,-131.94 107.54,-233.61 233.8,-233.34 129.27,0.27 233.57,105.8 232.94,233.58 z m -224.15,-92.17 c -0.41,37.66 31.16,68.18 68.16,68.17 35.37,0 68.1,-28.56 68.18,-68.27 0.08,-40.08 -32.66,-68.44 -67.84,-68.51 -36.36,-0.07 -68.93,30.23 -68.5,68.61 z"
     style="fill:#db353a"
     id="path4"
     inkscape:connector-curvature="0" />
  <path
     d="m 488.03356,404.08424 c -0.43,-38.38 32.14,-68.68 68.5,-68.61 35.18,0.07 67.92,28.43 67.84,68.51 -0.08,39.71 -32.81,68.27 -68.18,68.27 -37,0 -68.57,-30.51 -68.16,-68.17 z"
     style="fill:#fffefe"
     id="path62"
     inkscape:connector-curvature="0" />
</svg>
