<?xml version="1.0" encoding="UTF-8" standalone="no"?>
<svg
   xmlns:dc="http://purl.org/dc/elements/1.1/"
   xmlns:cc="http://creativecommons.org/ns#"
   xmlns:rdf="http://www.w3.org/1999/02/22-rdf-syntax-ns#"
   xmlns:svg="http://www.w3.org/2000/svg"
   xmlns="http://www.w3.org/2000/svg"
   xmlns:sodipodi="http://sodipodi.sourceforge.net/DTD/sodipodi-0.dtd"
   xmlns:inkscape="http://www.inkscape.org/namespaces/inkscape"
   viewBox="0 0 1000 1000"
   version="1.1"
   id="svg44"
   sodipodi:docname="Total Nigeria.svg"
   inkscape:version="0.92.3 (2405546, 2018-03-11)">
  <metadata
     id="metadata50">
    <rdf:RDF>
      <cc:Work
         rdf:about="">
        <dc:format>image/svg+xml</dc:format>
        <dc:type
           rdf:resource="http://purl.org/dc/dcmitype/StillImage" />
      </cc:Work>
    </rdf:RDF>
  </metadata>
  <defs
     id="defs48" />
  <sodipodi:namedview
     pagecolor="#ffffff"
     bordercolor="#666666"
     borderopacity="1"
     objecttolerance="10"
     gridtolerance="10"
     guidetolerance="10"
     inkscape:pageopacity="0"
     inkscape:pageshadow="2"
     inkscape:window-width="640"
     inkscape:window-height="480"
     id="namedview46"
     showgrid="false"
     inkscape:zoom="0.236"
     inkscape:cx="425.84746"
     inkscape:cy="500"
     inkscape:window-x="0"
     inkscape:window-y="27"
     inkscape:window-maximized="0"
     inkscape:current-layer="svg44" />
  <title
     id="title2">Nigeria-Logo</title>
  <path
     d="m 574.61,399.35492 a 216.43,216.43 0 0 0 -27.32,-11.09 483,483 0 0 0 -87.78,-21.49 361.38,361.38 0 0 0 -72.93,-3.65 c -21.72,1.25 -43,5 -63.21,13.37 -14.52,5.94 -27,14.63 -36.58,27.32 -0.46,0.46 -0.69,0.91 -1.14,1.37 -0.12,0.11 -0.58,0.11 -0.8,0.23 -0.69,-1.14 0.11,-2.06 0.57,-3 16.69,-37 41.15,-67.56 75.9,-89.16 20.46,-12.69 42.86,-20.81 66.18,-26.64 26.18,-6.51 52.81,-8.45 79.67,-7 a 274.35,274.35 0 0 1 43.1,5.72 c 1.48,0.34 3.08,1.14 4.8,0.34 l -0.12,-0.11 c -0.23,1.14 0.69,0.8 1.26,0.91 6.52,1.71 12.92,3.54 19.32,5.37 31,9.26 60,22.63 85.39,43.1 0.57,0.45 1.14,1 1.94,0.91 h -0.12 a 1,1 0 0 0 0.92,1 c 8.46,7.77 16.92,15.66 24.23,24.57 a 177.73,177.73 0 0 1 39.67,91.27 c 4.23,32 0.8,63.21 -11.89,93 -5.95,14.06 -13.95,26.75 -25,37.38 -2.63,2.4 -4.92,5.48 -8.81,6.17 -0.11,-1.49 1.15,-1.94 1.95,-2.74 a 70.32,70.32 0 0 0 7.08,-8.58 c 11.32,-15.77 13.95,-33.6 12,-52.35 a 70.84,70.84 0 0 0 -6.18,-23.66 c -5.71,-15.57 -15.1,-28.6 -26.71,-40.15 -0.92,-1 -1.72,-2.06 -2.63,-3 -26.87,-26.29 -58.64,-44.58 -92.71,-59.44"
     style="fill:#eb1c24;fill-rule:evenodd"
     id="path14"
     inkscape:connector-curvature="0" />
  <path
     d="m 592.45,631.39492 c 1.6,1.49 3.42,0.69 5.14,0.58 a 275.44,275.44 0 0 0 65.41,-10.28 c 0.46,-0.12 0.92,0 1.83,-0.12 -1,2 -2.74,2.86 -4,4 -16.8,14.75 -35,27.55 -55.09,37.5 -22.64,11.08 -46.3,18.51 -71.33,21.37 a 23.88,23.88 0 0 0 -5.6,1.37 c -1,-0.91 -2.29,-0.68 -3.43,-0.57 -3.66,0.23 -7.43,0.8 -11.09,0.8 -8.34,0 -16.69,0.12 -25,-0.57 -7.55,-0.57 -15.21,-1.14 -22.64,-2.28 a 263.78,263.78 0 0 1 -44.69,-10.41 18.49,18.49 0 0 0 -6.06,-1.14 c -3.2,-2.17 -7.09,-3 -10.74,-4.46 -33.38,-13.14 -63.44,-31.32 -88.36,-57.49 a 160.93,160.93 0 0 1 -43.67,-88.71 c -1.48,-9.6 -2.63,-19.31 -2.28,-29 0.57,-17.6 3.65,-34.52 13.14,-49.72 2.74,-4.46 5.6,-8.81 9.95,-12 -0.46,0.8 -0.8,1.6 -1.26,2.4 -7,10.41 -8.46,21.95 -5.95,33.95 3.43,16.58 11.78,30.52 23.44,42.64 7.77,9.94 16.8,18.63 26.06,27.09 a 346.13,346.13 0 0 0 88.7,58.53 390,390 0 0 0 58.41,21.49 c 1.6,0.45 3.09,1.25 4.69,-0.12 0.46,2.52 2.74,2.17 4.23,2.52 a 423.11,423.11 0 0 0 53.61,10.17 299.77,299.77 0 0 0 32,2.51 c 3.2,0.12 6.29,0 9.38,0.69 a 6.27,6.27 0 0 0 5.26,-0.69"
     style="fill:#6f8ec7;fill-rule:evenodd"
     id="path16"
     inkscape:connector-curvature="0" />
  <path
     d="m 592.45,631.39492 a 7.41,7.41 0 0 1 -5.61,0.8 51.79,51.79 0 0 0 -9.37,-0.68 c -10.74,-0.12 -21.37,-1.37 -32,-2.52 a 387.65,387.65 0 0 1 -53.61,-10.17 c -1.61,-0.34 -3.78,0 -4.23,-2.51 4,-5.61 8.45,-10.86 11.88,-16.81 2.63,-2.86 4.46,-6.28 6.52,-9.6 a 275.51,275.51 0 0 0 16.69,-30.06 c 5.94,-10.52 10.63,-21.72 15.32,-32.81 a 580.86,580.86 0 0 0 33.83,-111.22 c 1,-5.37 1.37,-11 3,-16.23 34.07,14.86 65.84,33.15 92.48,59.44 a 34,34 0 0 1 2.63,3.09 c -0.23,0.8 -0.58,1.71 -0.8,2.51 -2.18,11.66 -5,23 -8.23,34.29 -3.55,12.23 -8,24.12 -12.35,36 -0.69,1.48 -1.37,3 -2.06,4.57 a 390.82,390.82 0 0 1 -26.2,52.21 c -4,6.63 -8.23,13.14 -12.35,19.66 -5.26,6.52 -10.4,13.26 -15.54,20"
     style="fill:#0b5aaa;fill-rule:evenodd"
     id="path18"
     inkscape:connector-curvature="0" />
  <path
     d="m 309.76,509.31492 c -11.54,-12.11 -20,-26.06 -23.43,-42.63 -2.51,-12 -1,-23.44 5.95,-33.95 a 16.48,16.48 0 0 0 1.25,-2.4 c 3.77,-5 8.92,-8.35 14.18,-11.55 14.51,-8.91 30.52,-14.29 47.09,-18.06 a 280,280 0 0 1 77.5,-5.6 345.56,345.56 0 0 1 80,14.52 c 0.68,0.23 1.48,0.23 2,1.37 -4.11,0.69 -8.23,0.57 -12.23,1 a 325.42,325.42 0 0 0 -52.07,11.23 c -30.64,8.8 -60.24,20.12 -88,36.24 a 171.21,171.21 0 0 0 -34.18,25.14 94.43,94.43 0 0 0 -18.06,24.69"
     style="fill:#fbca1d;fill-rule:evenodd"
     id="path20"
     inkscape:connector-curvature="0" />
  <path
     d="m 662.74,336.14492 c -0.8,0.23 -1.37,-0.34 -1.94,-0.92 -25.38,-20.46 -54.29,-33.83 -85.39,-43.09 -6.4,-1.94 -12.91,-3.66 -19.31,-5.37 -0.23,-0.57 -0.35,-1.37 -1.26,-0.92 l 0.11,0.12 c 0.69,-1.37 -0.57,-1.83 -1.14,-2.52 a 76,76 0 0 0 -45.15,-23.54 c -16,-2.4 -31.55,-0.46 -47,3.54 -1.6,-0.69 -3.09,1.26 -4.69,0 11.09,-8.35 23.78,-13.15 37.15,-15.78 38.64,-7.54 75.56,-2.62 110.08,16.81 27.66,15.66 46.64,39.21 58.18,68.7 0.23,0.91 0.92,1.83 0.34,3"
     style="fill:#0b5aaa;fill-rule:evenodd"
     id="path22"
     inkscape:connector-curvature="0" />
  <path
     d="m 607.88,611.16492 c 4.11,-6.51 8.34,-13 12.34,-19.66 a 384.4,384.4 0 0 0 26.18,-52.24 l 2.06,-4.46 c 1.37,-0.57 2.74,-1 4.11,-1.71 16.46,-7.77 31.44,-17.72 44,-30.86 a 73.64,73.64 0 0 1 6.06,23.66 c 1.94,18.74 -0.69,36.46 -12,52.35 a 102.94,102.94 0 0 1 -7.09,8.57 c -0.8,0.8 -2.06,1.38 -1.95,2.75 v -0.12 c -0.68,0 -1,0.23 -1,0.92 v 0 c -0.58,0 -0.92,0.23 -0.92,0.91 v 0 a 1.64,1.64 0 0 0 -1.83,0.8 15.34,15.34 0 0 1 -5.37,3.66 c -13.83,7 -28.69,10.86 -44,13.37 a 176.68,176.68 0 0 1 -20.57,2.06"
     style="fill:#fbca1d;fill-rule:evenodd"
     id="path24"
     inkscape:connector-curvature="0" />
  <path
     d="m 415.61,671.74492 a 21.89,21.89 0 0 1 6.06,1.15 264.94,264.94 0 0 0 44.69,10.4 c 7.55,1.14 15.09,1.71 22.64,2.29 8.34,0.57 16.69,0.57 25,0.57 3.66,0 7.43,-0.57 11.09,-0.8 1.14,-0.12 2.4,-0.35 3.43,0.57 -21.49,12.34 -44.35,20.92 -68.93,24 -32.69,4.23 -63.78,-0.34 -92.13,-18.17 -17.83,-11.2 -31.32,-26.18 -39,-46.07 a 7,7 0 0 1 0.8,-1 c 23.2,27.55 52.35,34.75 86.3,27.09"
     style="fill:#0b5aaa;fill-rule:evenodd"
     id="path26"
     inkscape:connector-curvature="0" />
  <path
     d="m 522.49,559.69492 c -4.69,10.52 -10.63,20.35 -16.69,30.07 -2.06,3.31 -3.89,6.74 -6.51,9.6 -40.93,-11.17 -78.29,-29.67 -112.71,-54.61 a 392,392 0 0 1 -36.12,-29.49 c -1.37,-1.26 -3.09,-2.29 -4,-4.12 l 0.34,-0.34 a 5,5 0 0 1 1.71,0.57 c 26.75,14.63 55.44,24.46 84.59,32.81 a 436.44,436.44 0 0 0 61.73,13.26 224.26,224.26 0 0 0 27.66,2.25"
     style="fill:#fbc91b;fill-rule:evenodd"
     id="path28"
     inkscape:connector-curvature="0" />
  <path
     d="m 456.88,263.44492 c 1.6,1.14 3.08,-0.69 4.68,0 -1.94,1.14 -4.11,1.49 -6.74,2.17 0.34,-1.48 1,-2.06 2.06,-2.17"
     style="fill:#00abd3;fill-rule:evenodd"
     id="path30"
     inkscape:connector-curvature="0" />
  <path
     d="m 329.42,644.88492 a 6.53,6.53 0 0 0 -0.8,1 c -1,-0.91 -1.14,-2.17 -1.37,-3.54 a 3.19,3.19 0 0 1 2.17,2.51"
     style="fill:#00abd3;fill-rule:evenodd"
     id="path32"
     inkscape:connector-curvature="0" />
  <path
     d="m 677.83,591.96492 a 1.54,1.54 0 0 1 1.83,-0.8 1.28,1.28 0 0 1 -1.83,0.8"
     style="fill:#ec1464;fill-rule:evenodd"
     id="path34"
     inkscape:connector-curvature="0" />
  <path
     d="m 680.58,590.24492 c 0,-0.68 0.34,-0.91 1,-0.91 0.34,1 -0.35,1 -1,0.91"
     style="fill:#ec1464;fill-rule:evenodd"
     id="path36"
     inkscape:connector-curvature="0" />
  <path
     d="m 663.54,337.05492 c -0.57,-0.11 -0.91,-0.34 -0.91,-1 0.91,-0.22 0.8,0.58 0.91,1"
     style="fill:#016794;fill-rule:evenodd"
     id="path38"
     inkscape:connector-curvature="0" />
  <path
     d="m 346.57,511.26492 c -0.34,-0.12 -0.91,-0.23 -0.57,-0.69 0.34,-0.46 0.69,0 0.91,0.34 z"
     style="fill:#f58520;fill-rule:evenodd"
     id="path40"
     inkscape:connector-curvature="0" />
  <path
     d="m 679.66,591.16492 c 0,-0.69 0.34,-0.92 0.92,-0.92 0.22,0.8 -0.35,0.8 -0.92,0.92"
     style="fill:#ec1464;fill-rule:evenodd"
     id="path42"
     inkscape:connector-curvature="0" />
</svg>
