<?xml version="1.0" encoding="UTF-8" standalone="no"?>
<svg
   xmlns:dc="http://purl.org/dc/elements/1.1/"
   xmlns:cc="http://creativecommons.org/ns#"
   xmlns:rdf="http://www.w3.org/1999/02/22-rdf-syntax-ns#"
   xmlns:svg="http://www.w3.org/2000/svg"
   xmlns="http://www.w3.org/2000/svg"
   xmlns:sodipodi="http://sodipodi.sourceforge.net/DTD/sodipodi-0.dtd"
   xmlns:inkscape="http://www.inkscape.org/namespaces/inkscape"
   viewBox="0 0 1000 1000"
   version="1.1"
   id="svg30"
   sodipodi:docname="Union Bank Nigeria.svg"
   inkscape:version="0.92.3 (2405546, 2018-03-11)">
  <metadata
     id="metadata36">
    <rdf:RDF>
      <cc:Work
         rdf:about="">
        <dc:format>image/svg+xml</dc:format>
        <dc:type
           rdf:resource="http://purl.org/dc/dcmitype/StillImage" />
      </cc:Work>
    </rdf:RDF>
  </metadata>
  <defs
     id="defs34" />
  <sodipodi:namedview
     pagecolor="#ffffff"
     bordercolor="#666666"
     borderopacity="1"
     objecttolerance="10"
     gridtolerance="10"
     guidetolerance="10"
     inkscape:pageopacity="0"
     inkscape:pageshadow="2"
     inkscape:window-width="640"
     inkscape:window-height="480"
     id="namedview32"
     showgrid="false"
     inkscape:zoom="0.236"
     inkscape:cx="425.84746"
     inkscape:cy="500"
     inkscape:window-x="0"
     inkscape:window-y="27"
     inkscape:window-maximized="0"
     inkscape:current-layer="svg30" />
  <title
     id="title2">Nigeria-Logo</title>
  <path
     d="m 557.34458,385.76271 c -10.31,-1 -20.35,1.44 -30.43,2.83 -0.87,-0.93 -0.1,-1.62 0.26,-2.21 24.48,-40.07 58.3,-67.37 105.16,-76.75 a 151.62,151.62 0 0 1 50.14,-1.74 c 6.72,0.91 12.8,-1.56 19.17,-2.5 6.09,-0.9 7.29,0 4.23,5.32 -6,10.44 -2.38,20.64 -0.69,31 q 4.44,27.05 9.29,54.05 c 0.59,3.34 -0.09,5.88 -2.5,8.07 -4.6,4.19 -8.55,9.49 -16.26,6.94 -5,-1.64 -8.84,-3.66 -9,-9.63 a 6.33,6.33 0 0 0 -1.41,-3.65 c -6.77,-7.78 -13.42,-15.71 -21.62,-22.08 -4.85,-3.77 -7.64,-3.25 -11.11,1.92 -3.93,5.85 -6.09,12.54 -8.62,19.05 -6,15.35 -11.9,30.71 -21.67,44.22 -1.94,2.68 -3.85,3.87 -7.37,3.53 a 266.48,266.48 0 0 0 -40.26,-1.12 c 0.28,1.85 1.49,1.8 2.67,1.95 13.21,1.62 26.4,3.32 39.61,4.91 10.41,1.26 17,12.18 12.76,21.67 a 548.42,548.42 0 0 1 -28.1,53.39 14.56,14.56 0 0 1 -5.56,5.56 q -8.28,4.6 -16.47,9.38 c -2.18,1.27 -3.61,1 -4.71,-1.42 a 32.2,32.2 0 0 1 -2.75,-17.52 c 0.49,-3.91 6.93,-7 11.69,-5.95 5.91,1.33 8.61,-0.88 8.36,-7 -0.12,-2.88 1.27,-5.13 2.66,-7.37 4.75,-7.62 9.63,-15.16 14.39,-22.78 1,-1.63 2.88,-3.39 1.59,-5.38 -1.29,-1.99 -3.65,-1.39 -5.58,-1.22 -8.89,0.78 -17.57,1.44 -26,5.51 -14.32,6.9 -30,9.71 -45.69,11.88 -20.38,2.81 -41.09,2.55 -61.62,6.7 0.66,-9.3 1.52,-18.26 -0.06,-28.19 -2.41,2.92 -2.57,5.4 -2.85,7.77 -3.45,29.71 -19.87,51.22 -43.27,68.24 a 133.34,133.34 0 0 1 -47.39,21.57 c -11.93,2.91 -20.45,9.48 -26.35,20.27 -6.71,12.27 -11.92,25.31 -18.87,37.4 -7.27,12.66 -18.44,20.76 -33.19,23.06 -7.52,1.17 -8.72,-0.36 -6.51,-7.66 0.92,-3 2.09,-6 3.15,-8.94 2.4,-6.78 5.47,-12.5 14.35,-11.4 3.35,0.42 5.16,-2 6.34,-5.19 6.81,-18.4 13.89,-36.69 20.64,-55.11 a 10.39,10.39 0 0 1 6.56,-6.82 c 8,-3 16,-5.79 23.74,-9.12 13.38,-5.71 17.2,-12 16.27,-26.36 -0.77,-12.11 -2.29,-24.21 0.29,-36.29 5.15,-24.21 21,-39.79 41.62,-51.43 18.46,-10.4 38.73,-15.74 59,-21 q 33.33,-8.56 66.62,-17.25 c 1.88,-0.49 3.71,-1.14 5.56,-1.71 z"
     style="fill:#03b1f0"
     id="path4"
     inkscape:connector-curvature="0" />
  <path
     d="m 263.18458,527.48271 a 27.44,27.44 0 0 1 0.84,-15.16 c 8.54,-26.74 28.27,-40.34 54.42,-46.42 9.48,-2.2 19.11,-2.39 28.76,-2.15 12.25,0.3 24.25,-0.59 35.46,-6.16 1.06,-0.53 2.33,-1.21 3.25,-0.29 1.13,1.13 -0.27,2.09 -0.84,3 a 60.82,60.82 0 0 0 -7.28,14.13 c -0.95,2.79 -3.36,3.55 -5.5,4.66 -21.68,11.22 -44.82,18.22 -68.52,23.75 -8.27,1.94 -16.37,4.33 -23.89,8.4 a 39.72,39.72 0 0 0 -16.7,16.24 z"
     style="fill:#05b3f1"
     id="path14"
     inkscape:connector-curvature="0" />
  <path
     d="m 652.65458,451.60271 c -3.48,0.3 -7.09,0.11 -10.4,1 -6.37,1.74 -10.66,-1.4 -15,-5.12 -1.25,-1.06 -1.08,-1.77 -0.4,-2.88 1.3,-2.13 2.59,-4.26 3.81,-6.43 5.89,-10.44 5.89,-10.47 17.91,-9 7.26,0.88 14.51,1.85 21.76,2.79 7.78,1 13.85,10.82 10.7,18.05 a 340.09,340.09 0 0 1 -26.42,49.75 c -4.51,6.93 -13.22,9.14 -20.3,13 -1.51,0.83 -2.32,-0.86 -2.86,-2.05 a 28,28 0 0 1 -2.44,-15.07 c 0.46,-3.63 5.8,-6.48 10.25,-5.7 5.9,1 7.64,-0.39 7.71,-6.5 0,-2.49 1.22,-4.46 2.44,-6.42 4.23,-6.77 8.59,-13.45 12.78,-20.24 2.7,-4.36 2.12,-5.29 -3.06,-5.38 -1.16,0 -2.32,0.05 -3.49,0.1 -1,0 -2,0.13 -3,0.2 z"
     style="fill:#06b4f1"
     id="path16"
     inkscape:connector-curvature="0" />
  <path
     d="m 360.69458,612.92271 c -2,0.27 -3.15,-1.42 -2,-4.88 1.1,-3.3 2.37,-6.55 3.46,-9.86 1.75,-5.35 4.6,-9 11,-8.68 3.35,0.17 5.57,-1.77 6.2,-5.24 1.9,-10.53 7.71,-17.35 18.32,-20.13 3.3,-0.86 6.26,-3 9.39,-4.55 0.86,-0.43 1.75,-1.27 2.72,-0.5 0.97,0.77 0.29,1.81 -0.14,2.65 -6,11.86 -11,24.4 -19,34.94 -6.82,8.9 -16.17,15.35 -29.95,16.25 z"
     style="fill:#06b4f1"
     id="path28"
     inkscape:connector-curvature="0" />
</svg>
