<?xml version="1.0" encoding="UTF-8" standalone="no"?>
<svg
   xmlns:dc="http://purl.org/dc/elements/1.1/"
   xmlns:cc="http://creativecommons.org/ns#"
   xmlns:rdf="http://www.w3.org/1999/02/22-rdf-syntax-ns#"
   xmlns:svg="http://www.w3.org/2000/svg"
   xmlns="http://www.w3.org/2000/svg"
   xmlns:sodipodi="http://sodipodi.sourceforge.net/DTD/sodipodi-0.dtd"
   xmlns:inkscape="http://www.inkscape.org/namespaces/inkscape"
   width="462"
   height="161"
   viewBox="0 0 462 161"
   version="1.1"
   id="svg10"
   sodipodi:docname="Verve.svg"
   inkscape:version="0.92.3 (2405546, 2018-03-11)">
  <metadata
     id="metadata16">
    <rdf:RDF>
      <cc:Work
         rdf:about="">
        <dc:format>image/svg+xml</dc:format>
        <dc:type
           rdf:resource="http://purl.org/dc/dcmitype/StillImage" />
      </cc:Work>
    </rdf:RDF>
  </metadata>
  <defs
     id="defs14" />
  <sodipodi:namedview
     pagecolor="#ffffff"
     bordercolor="#666666"
     borderopacity="1"
     objecttolerance="10"
     gridtolerance="10"
     guidetolerance="10"
     inkscape:pageopacity="0"
     inkscape:pageshadow="2"
     inkscape:window-width="640"
     inkscape:window-height="480"
     id="namedview12"
     showgrid="false"
     inkscape:zoom="0.71645022"
     inkscape:cx="206.57402"
     inkscape:cy="80.5"
     inkscape:window-x="0"
     inkscape:window-y="27"
     inkscape:window-maximized="0"
     inkscape:current-layer="g8" />
  <g
     fill="none"
     fill-rule="evenodd"
     transform="rotate(-90 80.5 80)"
     id="g8">
    <path
       d="m 79.9417,293.84736 c -43.9416,0 -79.5631,-35.6215 -79.5631,-79.5631 0,-43.9436 35.6215,-79.5661 79.5631,-79.5661 43.9416,0 79.5631,35.6225 79.5631,79.5661 0,43.9416 -35.6215,79.5631 -79.5631,79.5631"
       id="path2"
       inkscape:connector-curvature="0"
       style="fill:#ed342b" />
    <path
       d="m 45.8608,214.28316 c 40.3403,-17.7967 78.0258,-30.8457 78.0258,-30.8457 v -27.2823 c 0,0 -48.3695,16.6053 -108.8585,47.45 v 21.3561 c 60.489,30.8447 108.8585,47.4489 108.8585,47.4489 v -27.2823 c 0,0 -37.6855,-13.0479 -78.0258,-30.8447"
       id="path4"
       inkscape:connector-curvature="0"
       style="fill:#fefefe" />
  </g>
</svg>
