<?xml version="1.0" encoding="UTF-8" standalone="no"?>
<svg
   xmlns:dc="http://purl.org/dc/elements/1.1/"
   xmlns:cc="http://creativecommons.org/ns#"
   xmlns:rdf="http://www.w3.org/1999/02/22-rdf-syntax-ns#"
   xmlns:svg="http://www.w3.org/2000/svg"
   xmlns="http://www.w3.org/2000/svg"
   xmlns:sodipodi="http://sodipodi.sourceforge.net/DTD/sodipodi-0.dtd"
   xmlns:inkscape="http://www.inkscape.org/namespaces/inkscape"
   viewBox="0 0 1000 1000"
   version="1.1"
   id="svg22"
   sodipodi:docname="Wema Bank.svg"
   inkscape:version="0.92.3 (2405546, 2018-03-11)">
  <metadata
     id="metadata28">
    <rdf:RDF>
      <cc:Work
         rdf:about="">
        <dc:format>image/svg+xml</dc:format>
        <dc:type
           rdf:resource="http://purl.org/dc/dcmitype/StillImage" />
      </cc:Work>
    </rdf:RDF>
  </metadata>
  <defs
     id="defs26" />
  <sodipodi:namedview
     pagecolor="#ffffff"
     bordercolor="#666666"
     borderopacity="1"
     objecttolerance="10"
     gridtolerance="10"
     guidetolerance="10"
     inkscape:pageopacity="0"
     inkscape:pageshadow="2"
     inkscape:window-width="640"
     inkscape:window-height="480"
     id="namedview24"
     showgrid="false"
     inkscape:zoom="0.236"
     inkscape:cx="425.84746"
     inkscape:cy="500"
     inkscape:window-x="0"
     inkscape:window-y="27"
     inkscape:window-maximized="0"
     inkscape:current-layer="svg22" />
  <title
     id="title2">Nigeria-Logo</title>
  <path
     d="m 558,632.20848 c 0.42,-0.77 0.76,-1.58 1.13,-2.37 l 134.29,-291.86 c 1.1,-2.38 2.21,-4.75 3.29,-7.14 0.38,-0.82 0.76,-1.54 1.86,-1.53 2.47,0 4.95,0 7.77,0 -0.62,1.5 -1,2.61 -1.52,3.68 q -71.82,156.58 -143.63,313.15 c -1.91,4.16 -3.88,8.31 -5.72,12.5 -1.62,3.7 -1.38,7.3 1.3,10.44 a 9.77,9.77 0 0 0 10,3.4 c 4,-0.81 6,-3.58 7.56,-7 q 71.67,-155.97 143.29,-311.88 c 4.56,-9.92 9,-19.87 13.7,-29.75 2.58,-5.48 0.49,-13.19 -6.71,-14.68 v -0.66 h -36.06 a 0.75,0.75 0 0 1 -0.06,0.62 c -3.92,0.86 -6,3.63 -7.61,7 q -8,17.42 -16,34.83 -56.88,124.14 -113.88,248.22 c -0.54,1.19 -1.11,2.36 -1.76,3.74 -1.5,-1 -1.52,-2.66 -2.33,-3.83 -2.78,-4 -2.1,-7.69 -0.09,-12.06 q 58.68,-127.63 117,-255.41 c 1.22,-2.68 2.48,-5.35 3.69,-8 2.86,-6.36 -0.19,-12.72 -6.94,-14.55 v 0 a 1.3,1.3 0 0 0 -0.22,-0.53 H 625 a 0.81,0.81 0 0 1 -0.08,0.61 c -3.9,0.79 -6.21,3.37 -7.79,6.82 q -9.14,19.95 -18.31,39.88 l -80.35,175 c -0.37,0.79 -0.75,1.57 -1.25,2.59 -1.62,-1.72 -2,-3.92 -3.1,-5.67 -2.06,-3.26 -1.73,-6.17 -0.1,-9.7 q 44.14,-95.59 88,-191.3 c 1.25,-2.72 2.19,-5.43 1.5,-8.52 a 9.73,9.73 0 0 0 -8.23,-7.79 25.39,25.39 0 0 0 -3.6,-0.17 c -9.18,0 -18.36,0.17 -27.53,-0.07 -5.94,-0.16 -9.61,2.38 -12,7.66 q -24.16,52.84 -48.51,105.63 -8.61,18.75 -17.22,37.5 c -0.4,0.89 -0.88,1.74 -1.54,3.05 -1.6,-3.5 -3,-6.64 -4.49,-9.79 -0.55,-1.21 0.3,-2.1 0.73,-3 q 7.11,-15.66 14.29,-31.28 21.68,-47.34 43.35,-94.69 c 2,-4.34 1.41,-8.65 -1.57,-11.87 a 8.85,8.85 0 0 0 -6.63,-3.1 c -10.82,0 -21.64,-0.09 -32.46,0 -4.65,0 -7.66,2.75 -9.54,6.84 l -10.8,23.51 q -11.67,25.44 -23.37,50.83 c -0.39,0.86 -0.56,1.9 -1.65,2.53 l -8.09,-17.53 c -8.79,-19.14 -17.65,-38.26 -26.31,-57.46 -2,-4.51 -4.36,-8.47 -9.09,-10.51 h -4.59 c -0.83,1.08 -2.22,1.26 -3.26,2 -3.39,2.44 -5.09,5.63 -4.58,9.85 a 15,15 0 0 0 1.57,4.28 q 21,45.86 42,91.69 a 5.89,5.89 0 0 1 0.11,5.52 q -25.51,55.29 -50.86,110.63 a 5.27,5.27 0 0 1 -1.33,2.19 12.77,12.77 0 0 1 -1.92,-3.6 q -48.87,-106.38 -97.73,-212.78 a 24.36,24.36 0 0 0 -1.8,-3.48 c -3,-4.48 -8.44,-6 -12.91,-3.6 -5.2,2.76 -7.14,8 -4.89,13.3 0.39,0.91 0.82,1.79 1.22,2.69 l 107.48,234.6 a 32.07,32.07 0 0 0 1.43,3 c 4.07,7 13.2,7.18 17.55,0.41 a 34,34 0 0 0 2.05,-4.09 l 52.35,-113.64 a 11.36,11.36 0 0 1 1.76,-3.27 c 1.53,2.19 2.21,4.75 3.51,7 1.06,1.82 0.81,3.39 -0.05,5.22 -4.54,9.69 -9,19.43 -13.42,29.15 q -24,52.23 -48,104.46 a 9.87,9.87 0 0 0 -0.05,8.83 c 0.85,1.78 1.66,3.57 2.47,5.36 4.27,9.45 8.56,18.89 12.78,28.36 1.42,3.18 3.56,5.47 7,6.35 5.53,1.41 10.11,-0.77 12.61,-6.13 5.2,-11.19 10.33,-22.4 15.49,-33.61 q 19,-41.36 38.06,-82.7 c 0.41,-0.89 0.55,-2 1.74,-2.58 1.07,2.33 1.93,4.59 3.1,6.67 1.17,2.08 0.94,3.73 0,5.8 q -30.15,65.57 -60.22,131.22 c -0.5,1.09 -1.05,2.17 -1.44,3.3 a 9.8,9.8 0 0 0 7.05,13 c 4.85,1.25 9.38,-1 11.7,-6 q 8,-17.25 15.86,-34.52 18.88,-41.06 37.78,-82.11 c 0.46,-1 0.6,-2.29 1.94,-2.88 0.79,1.69 1.53,3.27 2.26,4.85 1.51,3.27 2.92,6.6 4.56,9.8 a 10,10 0 0 0 8.93,5.72 c 4.11,0.15 7,-2 9.1,-5.41 a 33.36,33.36 0 0 0 1.59,-3.23 l 98.34,-213.65 q 3.49,-7.59 7,-15.17 c 0.46,-1 0.77,-2.09 2.21,-2 2.38,0.11 4.78,-0.21 7.21,0.21 0.1,1.73 -0.9,3 -1.51,4.33 q -46.66,101.82 -93.38,203.6 -11.75,25.6 -23.51,51.19 a 9.2,9.2 0 0 0 -0.38,7.91 q 8,17.79 16.06,35.51 c 1.83,4 5.17,5.75 9.49,5.78 a 9.82,9.82 0 0 0 9.21,-5.66 z m -92.8,-215.38 q 6.25,-13.68 12.58,-27.35 c 8.59,-18.63 17.22,-37.24 25.7,-55.92 1,-2.26 2.24,-3.16 4.65,-2.88 a 54.91,54.91 0 0 0 5.82,0 l -45.14,98.4 c -1.64,-3.55 -2.93,-6.4 -4.26,-9.22 -0.55,-1.18 0.26,-2.08 0.69,-3.03 z m 7.27,74.48 q -9,19.65 -18,39.26 -16.01,34.94 -32.04,69.94 c -0.58,1.27 -1.18,2.52 -1.95,4.17 a 6.58,6.58 0 0 1 -0.6,-0.73 c -1.39,-3.08 -3.6,-6.07 -3.92,-9.26 -0.3,-3 2.17,-5.81 3.48,-8.67 q 23.74,-51.99 47.56,-103.9 a 9.14,9.14 0 0 1 2,-3.42 c 1.5,3.28 3,6.41 4.36,9.56 0.48,1.16 -0.36,2.09 -0.85,3.05 z m 28.32,7.44 c -1.6,-3.46 -2.85,-6.24 -4.18,-9 -0.7,-1.45 0.13,-2.55 0.66,-3.7 q 7.71,-16.83 15.48,-33.62 27.24,-59.2 54.47,-118.41 c 0.32,-0.69 0.68,-1.37 1,-2.08 a 1.89,1.89 0 0 1 2,-1.25 c 2.39,0 4.77,0 7.65,0 z"
     style="fill:#990d81"
     id="path4"
     inkscape:connector-curvature="0" />
</svg>
