<?xml version="1.0" encoding="UTF-8" standalone="no"?>
<svg
   xmlns:dc="http://purl.org/dc/elements/1.1/"
   xmlns:cc="http://creativecommons.org/ns#"
   xmlns:rdf="http://www.w3.org/1999/02/22-rdf-syntax-ns#"
   xmlns:svg="http://www.w3.org/2000/svg"
   xmlns="http://www.w3.org/2000/svg"
   xmlns:sodipodi="http://sodipodi.sourceforge.net/DTD/sodipodi-0.dtd"
   xmlns:inkscape="http://www.inkscape.org/namespaces/inkscape"
   id="Layer_1"
   data-name="Layer 1"
   viewBox="0 0 939.31 191.46"
   version="1.1"
   sodipodi:docname="Whogohost.svg"
   inkscape:version="0.92.3 (2405546, 2018-03-11)">
  <metadata
     id="metadata19">
    <rdf:RDF>
      <cc:Work
         rdf:about="">
        <dc:format>image/svg+xml</dc:format>
        <dc:type
           rdf:resource="http://purl.org/dc/dcmitype/StillImage" />
      </cc:Work>
    </rdf:RDF>
  </metadata>
  <sodipodi:namedview
     pagecolor="#ffffff"
     bordercolor="#666666"
     borderopacity="1"
     objecttolerance="10"
     gridtolerance="10"
     guidetolerance="10"
     inkscape:pageopacity="0"
     inkscape:pageshadow="2"
     inkscape:window-width="640"
     inkscape:window-height="480"
     id="namedview17"
     showgrid="false"
     inkscape:zoom="0.35238633"
     inkscape:cx="419.99359"
     inkscape:cy="95.730003"
     inkscape:window-x="0"
     inkscape:window-y="27"
     inkscape:window-maximized="0"
     inkscape:current-layer="Layer_1" />
  <defs
     id="defs4">
    <style
       id="style2">.cls-1{fill:#232121}</style>
  </defs>
  <path
     d="m 419.31447,114.95236 30.8,-14.07 c 0,11.09 0.05,21.54 -0.08,32 a 4.15,4.15 0 0 1 -1.86,3 q -33.57,17.53 -67.21,34.84 c -0.09,0 -0.29,-0.14 -0.66,-0.33 V 23.042356 h 39.01 z"
     id="path8"
     inkscape:connector-curvature="0"
     style="fill:#090a0b" />
  <path
     d="m 455.86447,100.71236 32.1,13.37 V 22.982356 h 39.1 V 170.80236 c -1.8,-0.79 -3.16,-1.3 -4.44,-2 -21.06,-10.73 -42.09,-21.51 -63.19,-32.16 -2.52,-1.27 -3.68,-2.63 -3.62,-5.63 0.15,-9.77 0.05,-19.58 0.05,-30.3 z"
     id="path10"
     inkscape:connector-curvature="0"
     style="fill:#0293dc" />
</svg>
